<?xml version="1.0" encoding="UTF-8" standalone="no"?>
<svg
   xmlns:dc="http://purl.org/dc/elements/1.1/"
   xmlns:cc="http://creativecommons.org/ns#"
   xmlns:rdf="http://www.w3.org/1999/02/22-rdf-syntax-ns#"
   xmlns:svg="http://www.w3.org/2000/svg"
   xmlns="http://www.w3.org/2000/svg"
   xmlns:sodipodi="http://sodipodi.sourceforge.net/DTD/sodipodi-0.dtd"
   xmlns:inkscape="http://www.inkscape.org/namespaces/inkscape"
   width="212.4668mm"
   height="36.254292mm"
   viewBox="0 0 212.4668 36.254292"
   version="1.1"
   id="svg8"
   inkscape:version="1.0.2 (e86c870879, 2021-01-15)"
   sodipodi:docname="about:freedom.svg">
  <defs
     id="defs2">
    <filter
       inkscape:collect="always"
       style="color-interpolation-filters:sRGB"
       id="filter1081"
       x="-0.0012634824"
       width="1.002527"
       y="-0.007496662"
       height="1.0149933">
      <feGaussianBlur
         inkscape:collect="always"
         stdDeviation="0.11157141"
         id="feGaussianBlur1083" />
    </filter>
  </defs>
  <sodipodi:namedview
     id="base"
     pagecolor="#ffffff"
     bordercolor="#666666"
     borderopacity="1.0"
     inkscape:pageopacity="0.0"
     inkscape:pageshadow="2"
     inkscape:zoom="1.4071807"
     inkscape:cx="401.51206"
     inkscape:cy="151.86134"
     inkscape:document-units="mm"
     inkscape:current-layer="layer1"
     inkscape:document-rotation="0"
     showgrid="false"
     showguides="true"
     inkscape:guide-bbox="true"
     fit-margin-top="0"
     fit-margin-left="0"
     fit-margin-right="0"
     fit-margin-bottom="0"
     inkscape:window-width="1920"
     inkscape:window-height="1011"
     inkscape:window-x="0"
     inkscape:window-y="119"
     inkscape:window-maximized="1">
    <sodipodi:guide
       position="193.51456,-107.90673"
       orientation="0,-1"
       id="guide1085" />
    <sodipodi:guide
       position="202.23967,-106.86282"
       orientation="1,0"
       id="guide1087" />
  </sodipodi:namedview>
  <metadata
     id="metadata5">
    <rdf:RDF>
      <cc:Work
         rdf:about="">
        <dc:format>image/svg+xml</dc:format>
        <dc:type
           rdf:resource="http://purl.org/dc/dcmitype/StillImage" />
        <dc:title></dc:title>
      </cc:Work>
    </rdf:RDF>
  </metadata>
  <g
     inkscape:label="Ebene 1"
     inkscape:groupmode="layer"
     id="layer1"
     transform="translate(1.3644735,-0.06429291)">
    <rect
       style="fill:#388f78;fill-opacity:1;stroke:none;stroke-width:4.99999;stroke-linecap:butt;stroke-linejoin:miter;stroke-miterlimit:4;stroke-dasharray:none;stroke-dashoffset:0;stroke-opacity:1"
       id="rect849-3"
       width="211.93123"
       height="35.718754"
       x="-1.0967021"
       y="0.33206457" />
    <path
       style="fill:#000000;stroke-width:0.264583;filter:url(#filter1081)"
       d="M -1.0967021,18.191444 V 0.3320643 H 104.86892 210.83454 V 18.191444 36.050814 H 104.86892 -1.0967021 Z m 205.8458321,9.92187 v -1.5875 H 105.92726 7.1053805 v 1.5875 1.5875 H 105.92726 204.74913 Z M 21.525172,18.456024 v -7.14375 h -7.14375 -7.1437495 v 1.71979 1.71979 l 10.2263785,-0.11802 -4.802421,3.5113 c -2.481058,1.81403 -4.8385665,3.37109 -5.0932285,3.66734 -0.467354,0.54367 -0.678905,3.35093 -0.282401,3.74743 0.09934,0.0993 3.3437935,0.14895 7.2098955,0.11025 l 7.029276,-0.0704 z m -6.066448,1.84507 2.097698,-1.46222 0.08284,1.09561 c 0.132937,1.75824 0.04654,1.82883 -2.238378,1.82883 h -2.039855 z m 21.544572,-1.84507 v -7.27604 h -5.011467 c -3.58851,0 -5.066713,-0.0894 -5.206026,-0.3148 -0.107006,-0.17314 -0.232876,-1.0175897 -0.27971,-1.8765597 -0.04684,-0.85897 -0.151932,-1.66981 -0.233548,-1.80187 -0.08162,-0.13206 -0.858689,-0.24011 -1.726829,-0.24011 -1.450893,0 -1.599283,0.0548 -1.836468,0.67869 -0.278167,0.73163 -0.360391,16.5071997 -0.09127,17.5114197 l 0.159537,0.59531 h 7.112891 7.112891 z m -10.336379,2.97656 c -0.08401,-1.57608 0.02521,-6.08207 0.152421,-6.2879 0.173408,-0.28058 5.104411,-0.36559 5.796693,-0.0999 0.350478,0.13449 0.418515,0.69366 0.418515,3.43958 v 3.27899 h -3.175 c -2.354209,0 -3.179558,-0.0855 -3.192629,-0.33073 z m 25.884901,-3.04271 0.0704,-7.20989 h -7.148004 -7.148001 v 7.09965 c 0,3.90481 0.08131,7.18096 0.180686,7.28034 0.09938,0.0994 3.284299,0.14899 7.077604,0.11024 l 6.896917,-0.0704 z m -10.360839,2.95493 c -0.309791,-0.8073 -0.173133,-5.54862 0.17359,-6.0228 0.287867,-0.39368 0.737132,-0.44653 3.241146,-0.3813 l 2.906955,0.0757 0.07405,3.37344 0.07405,3.37344 h -3.154595 c -2.632506,0 -3.181178,-0.0693 -3.315197,-0.41852 z m 26.165441,-2.88878 v -7.14375 h -1.852084 -1.852083 l -0.07174,5.22552 -0.07174,5.22552 h -3.296105 -3.296105 l 0.164066,-10.47515 -2.003245,-0.0558 c -1.178416,-0.0328 -1.762458,0.0254 -1.914178,0.26458 -0.250579,0.39506 -0.310105,13.18039 -0.06435,13.82082 0.143965,0.37516 0.956038,0.41485 7.209896,0.35237 l 7.047661,-0.0704 z m 10.399852,5.56364 c 0.103822,-2.02276 -0.184544,-2.25635 -2.785412,-2.25635 h -1.941708 l 0.07405,-3.37344 0.07405,-3.37343 2.248958,-0.1323 2.248958,-0.13229 v -1.71979 -1.71979 l -2.248958,-0.13229 -2.248958,-0.13229 -0.07949,-1.8410597 c -0.04372,-1.01258 -0.191458,-1.97596 -0.328305,-2.14085 -0.136848,-0.1649 -0.85606,-0.28722 -1.598248,-0.27184 -2.161735,0.0448 -2.094997,-0.2679 -2.094997,9.8164697 0,4.82288 -0.18599,8.35761 0.227205,8.71957 0.51609,0.4521 1.99098,0.38233 4.255125,0.3424 l 4.116628,-0.0726 z m 14.28512,-0.0717 c 0.0911,-1.91251 0.0346,-1.8777 3.22857,-1.98546 l 1.98437,-0.0669 v -1.71979 -1.7198 l -1.98437,-0.0669 c -3.18459,-0.10744 -3.175,-0.10203 -3.175,-1.79017 0,-0.7976 0.0298,-1.47342 0.0661,-1.50183 0.0364,-0.0284 2.38786,-0.11771 5.22552,-0.19844 l 5.159378,-0.14678 v -1.71979 -1.71979 h -7.143758 -7.143746 l -0.07074,6.87482 c -0.0389,3.78116 -0.01077,7.03109 0.06251,7.22207 0.09614,0.25053 0.631674,0.32543 1.922822,0.26893 l 1.789574,-0.0783 z m 15.928578,-3.63991 0.13229,-5.29167 5.15937,-0.13229 5.15938,-0.13229 v -1.71979 -1.71979 h -7.14375 -7.14375 l -0.0707,6.87482 c -0.0389,3.78115 -0.0108,7.03108 0.0625,7.22207 0.0961,0.25053 0.63168,0.32543 1.92282,0.26892 l 1.78957,-0.0783 z m 26.93631,3.71155 c 0.1155,-2.25041 0.10113,-2.25634 -5.46837,-2.25634 h -4.62467 l 4.73646,-3.20816 c 2.60506,-1.76449 4.88669,-3.4016 5.0703,-3.63802 0.20362,-0.26219 0.30874,-1.04908 0.2695,-2.01736 l -0.0643,-1.5875 -7.20989,-0.0704 -7.2099,-0.0704 v 7.1039 c 0,3.90715 0.0813,7.18519 0.18062,7.28453 0.0993,0.0993 3.3438,0.14895 7.2099,0.11024 l 7.02927,-0.0704 z m -10.53215,-7.38332 c 0,-1.55128 0.36336,-1.79426 2.54028,-1.69867 l 1.79416,0.0788 -2.01202,1.38906 c -1.10662,0.76398 -2.08186,1.38906 -2.16722,1.38906 -0.0854,0 -0.1552,-0.5212 -0.1552,-1.15823 z m 26.66886,7.1775 c 0.043,-0.98227 0.043,-1.80888 0,-1.83693 -0.043,-0.028 -2.264,-0.11734 -4.9355,-0.19844 l -4.85726,-0.14744 3.79893,-2.55595 c 2.08941,-1.40577 4.31028,-2.92843 4.93526,-3.38368 l 1.13634,-0.82774 -0.078,-1.77569 -0.078,-1.77569 h -7.14375 -7.14375 l -0.0707,6.87482 c -0.0389,3.78115 -0.0121,7.02755 0.0595,7.21423 0.10242,0.26692 1.64313,0.32436 7.21448,0.26893 l 7.08425,-0.0705 z m -10.26469,-7.32657 v -1.33853 h 1.85208 c 1.01865,0 1.85208,0.0551 1.85208,0.12243 0,0.10623 -2.43534,1.81043 -3.37343,2.36065 -0.24657,0.14461 -0.33073,-0.14666 -0.33073,-1.14455 z m 26.3957,0.0157 c 0.0452,-5.90378 0.15191,-9.2217897 -0.0234,-9.4330497 -0.5415,-0.21363 -3.16589,-0.21208 -3.71965,-0.002 -0.12559,0.12572 -0.17195,1.10857 -0.21574,2.12722 l -0.0796,1.8520797 -5.15938,0.1323 -5.15937,0.13229 -0.0707,6.87482 c -0.0389,3.78115 -0.0121,7.02755 0.0595,7.21423 0.10243,0.26692 1.64314,0.32436 7.21448,0.26893 l 7.08425,-0.0705 z m -10.46246,1.88688 0.074,-3.37344 2.64583,-0.0773 c 4.1113,-0.12019 3.83646,-0.3725 3.83646,3.52198 v 3.30225 h -3.3152 -3.31519 z m 26.07361,0 0.0704,-7.20989 h -7.148 c -5.536,0 -7.15055,0.0746 -7.15927,0.33072 -0.0888,2.60666 0.0323,13.77675 0.15148,13.96959 0.10083,0.16314 2.74949,0.23414 7.08799,0.18998 l 6.927,-0.0705 z m -10.34505,3.19705 c -0.097,-0.097 -0.17639,-1.51119 -0.17639,-3.1426 0,-2.21414 0.0935,-3.04386 0.36897,-3.27243 0.24291,-0.2016 1.35023,-0.28046 3.24115,-0.23084 l 2.87217,0.0754 0.0741,3.37344 0.074,3.37344 h -3.13881 c -1.72635,0 -3.21818,-0.0794 -3.3152,-0.17639 z m 16.1208,-6.523 4.02494,-0.0226 0.0143,10.54358 1.624,0.0149 h 1.71979 l 0.03,-10.53583 h 3.90126 l 0.0375,10.53583 h 1.85208 1.85209 v -7.14375 -7.14375 h -9.39271 -9.39271 l -0.0707,6.87482 c -0.0389,3.78115 -0.0108,7.03108 0.0625,7.22207 0.0961,0.25053 0.63167,0.32541 1.92282,0.26892 l 1.78957,-0.0783 z m -103.595627,8.53778 c 0.133329,-0.21075 0.244242,-1.18266 0.24647,-2.15981 0.0048,-2.10335 -0.230156,-2.32441 -2.470457,-2.32441 -2.269963,0 -2.287992,0.0189 -2.287992,2.39641 0,1.69153 0.08561,2.12786 0.463021,2.35996 0.668483,0.4111 3.747637,0.20414 4.048958,-0.27215 z m -0.261252,-6.08103 c 0.435477,-0.23306 0.511773,-0.56695 0.511773,-2.23965 0,-2.29899 -0.203261,-2.51354 -2.38125,-2.51354 -2.199931,0 -2.38125,0.20049 -2.38125,2.63309 0,1.42068 0.10541,2.12784 0.330729,2.21876 0.613725,0.24765 3.40415,0.17741 3.919998,-0.0987 z M 21.657463,8.5340643 v -1.5875 H 14.381422 7.1053805 v 1.5875 1.5874997 h 7.2760415 7.276041 z m 46.831248,0 v -1.5875 H 47.983504 27.478296 v 1.5875 1.5874997 h 20.505208 20.505207 z m 94.720839,-7.6e-4 v -1.58828 l -44.11927,0.0669 -44.119277,0.0669 -0.07935,1.52135 -0.07935,1.5213597 h 44.198627 44.19862 V 8.5332543 Z m 41.53958,7.6e-4 v -1.5875 h -17.72708 -17.72709 v 1.5875 1.5874997 h 17.72709 17.72708 z"
       id="path1003"
       sodipodi:nodetypes="cccccccccccccccccccccccccssscccccssccccsssssssccccsssscsssccccssccccsscccscccccccccccssssccsscccccccccsssssscsccccccscscccccsssccccccccccscsccsscssscccssscssscssssssscsscccccscscsscsssssccscccscscscccsccccccscssccsssscccsssccccccccccccccsssccsssssscssssccccccccccccccccccccccccccccccccccccccc" />
  </g>
</svg>
