<?xml version="1.0" encoding="utf-8"?>
<!-- Generator: Adobe Illustrator 25.0.1, SVG Export Plug-In . SVG Version: 6.00 Build 0)  -->
<svg version="1.1"
	 id="svg4551" inkscape:version="0.92.1 r" sodipodi:docname="ccchh.svg" xmlns:cc="http://creativecommons.org/ns#" xmlns:dc="http://purl.org/dc/elements/1.1/" xmlns:inkscape="http://www.inkscape.org/namespaces/inkscape" xmlns:rdf="http://www.w3.org/1999/02/22-rdf-syntax-ns#" xmlns:sodipodi="http://sodipodi.sourceforge.net/DTD/sodipodi-0.dtd" xmlns:svg="http://www.w3.org/2000/svg"
	 xmlns="http://www.w3.org/2000/svg" xmlns:xlink="http://www.w3.org/1999/xlink" x="0px" y="0px" viewBox="0 0 5669.3 1417.3"
	 style="enable-background:new 0 0 5669.3 1417.3;" xml:space="preserve">
<style type="text/css">
	.st0{fill:#FFFFFF;}
</style>
<sodipodi:namedview  bordercolor="#666666" borderopacity="1" gridtolerance="10" guidetolerance="10" id="namedview4553" inkscape:current-layer="svg4551" inkscape:cx="130" inkscape:cy="30" inkscape:pageopacity="0" inkscape:pageshadow="2" inkscape:window-height="746" inkscape:window-maximized="0" inkscape:window-width="1364" inkscape:window-x="0" inkscape:window-y="20" inkscape:zoom="3.2384615" objecttolerance="10" pagecolor="#ffffff" showgrid="false">
	</sodipodi:namedview>
<g id="path4549">
	
		<image style="overflow:visible;" width="6216" height="2089" xlink:href="C4C79655FADD1D96.png"  transform="matrix(1 0 0 1 -276.5512 -334.5354)">
	</image>
	<g>
		<path class="st0" d="M3623.5,548.5l-2.9-6.6l-3-6.6l-3.1-6.5l-3.2-6.4l-3.3-6.4l-3.4-6.3l-3.5-6.3l-3.7-6.2l-3.8-6.1l-3.9-6.1
			l-4-6l-4.1-5.9l-4.2-5.9l-4.3-5.8l-4.4-5.7l-4.5-5.6l-4.6-5.6l-4.7-5.5l-4.8-5.4l-4.9-5.3l-5-5.2l-5.1-5.1l-5.1-5l-5.2-5l-5.3-4.9
			l-5.4-4.8l-5.5-4.7l-5.6-4.6l-5.6-4.5l-5.7-4.4l-5.8-4.3l-5.9-4.2l-5.9-4.1l-6-4l-6.1-3.9l-6.1-3.8l-6.2-3.7l-6.3-3.5l-6.3-3.4
			l-6.4-3.3l-6.5-3.2l-6.5-3.1l-6.5-3l-6.6-2.9l-6.7-2.8l-6.7-2.6l-6.7-2.5l-6.8-2.4l-6.8-2.3l-6.9-2.2l-6.9-2l-7-1.9l-7-1.8l-7-1.7
			l-7-1.6l-7.1-1.4l-7.1-1.3l-7.1-1.2l-7.1-1.1l-7.1-0.9l-7.1-0.8l-7.2-0.7l-7.2-0.6l-7.2-0.4l-7.2-0.3l-7.2-0.2l-7.2-0.1l-7.2,0.1
			l-7.2,0.2l-7.2,0.3l-7.2,0.4l-7.2,0.6l-7.2,0.7l-7.1,0.8l-7.1,0.9l-7.1,1.1l-7.1,1.2l-7.1,1.3l-7.1,1.4l-7,1.6l-7,1.7l-7,1.8
			l-7,1.9l-6.9,2l-6.9,2.2l-6.8,2.3l-6.8,2.4l-6.7,2.5l-6.7,2.6l-6.7,2.8l-6.6,2.9l-6.5,3l-6.5,3.1l-6.5,3.2l-6.4,3.3l-6.3,3.4
			l-6.3,3.5l-6.2,3.7l-6.1,3.8l-6.1,3.9l-6,4l-5.9,4.1l-5.9,4.2l-5.8,4.3l-5.7,4.4l-5.6,4.5l-5.6,4.6l-5.5,4.7l-5.4,4.8l-5.3,4.9
			l-5.2,5l-5.1,5l-5.1,5.1l-5,5.2l-4.9,5.3l-4.8,5.4l-4.7,5.5l-4.6,5.6l-4.5,5.6l-4.4,5.7l-4.3,5.8l-4.2,5.9l-4.1,5.9l-4,6l-3.9,6.1
			l-3.8,6.1l-3.7,6.2l-3.5,6.3l-3.4,6.3l-3.3,6.4l-3.2,6.4l-3.1,6.5l-3,6.6l-2.9,6.6l-2.8,6.7l-2.6,6.7l-2.5,6.7l-2.4,6.8l-2.3,6.8
			l-2.2,6.9l-2,6.9l-1.9,6.9l-1.8,7l-1.7,7l-1.6,7l-1.4,7.1l-1.3,7.1l-1.2,7.1l-1.1,7.1l-0.9,7.1l-0.8,7.2l-0.7,7.2l-0.6,7.2
			l-0.5,7.2l-0.3,7.2l-0.2,7.2l-0.1,7.2l0.1,7.2l0.2,7.2l0.3,7.2l0.5,7.2l0.6,7.2l0.7,7.2l0.8,7.2l0.9,7.1l1.1,7.1l1.2,7.1l1.3,7.1
			l1.4,7.1l1.6,7l1.7,7l1.8,7l1.9,6.9l2,6.9l2.2,6.9l2.3,6.8l2.4,6.8l2.5,6.7l2.6,6.7l2.8,6.7l2.9,6.6l3,6.6l3.1,6.5l3.2,6.4
			l3.3,6.4l3.4,6.3l3.5,6.3l3.7,6.2l3.8,6.1l3.9,6.1l4,6l4.1,5.9l4.2,5.9l4.3,5.8l4.4,5.7l4.5,5.6l4.6,5.6l4.7,5.5l4.8,5.4l4.9,5.3
			l5,5.2l5.1,5.1l5.1,5l5.2,5l5.3,4.9l5.4,4.8l5.5,4.7l5.6,4.6l5.6,4.5l5.7,4.4l5.8,4.3l5.9,4.2l5.9,4.1l6,4l6.1,3.9l6.1,3.8
			l6.2,3.7l6.3,3.5l6.3,3.4l6.4,3.3l6.5,3.2l6.5,3.1l6.5,3l6.6,2.9l6.7,2.8l6.7,2.6l6.7,2.5l6.8,2.4l6.8,2.3l6.9,2.2l6.9,2l7,1.9
			l7,1.8l7,1.7l7,1.6l7.1,1.4l7.1,1.3l7.1,1.2l7.1,1.1l7.1,0.9l7.1,0.8l7.2,0.7l7.2,0.6l7.2,0.4l7.2,0.3l7.2,0.2l7.2,0.1l7.2-0.1
			l7.2-0.2l7.2-0.3l7.2-0.4l7.2-0.6l7.2-0.7l7.1-0.8l7.1-0.9l7.1-1.1l7.1-1.2l7.1-1.3l7.1-1.4l7-1.6l7-1.7l7-1.8l7-1.9l6.9-2
			l6.9-2.2l6.8-2.3l6.8-2.4l6.7-2.5l6.7-2.6l6.7-2.8l6.6-2.9l6.5-3l6.5-3.1l6.5-3.2l6.4-3.3l6.3-3.4l6.3-3.5l6.2-3.7l6.1-3.8
			l6.1-3.9l6-4l5.9-4.1l5.9-4.2l5.8-4.3l5.7-4.4l5.6-4.5l5.6-4.6l5.5-4.7l5.4-4.8l5.3-4.9l5.2-5l5.1-5l5.1-5.1l5-5.2l4.9-5.3
			l4.8-5.4l4.7-5.5l4.6-5.6l4.5-5.6l4.4-5.7l4.3-5.8l4.2-5.9l4.1-5.9l4-6l3.9-6.1l3.8-6.1l3.7-6.2l3.5-6.3l3.4-6.3l3.3-6.4l3.2-6.4
			l3.1-6.5l3-6.6l2.9-6.6l2.7-6.5h339.6v464.2h309.4V864.4h309.4v464.2h309.4V864.4h309.4v464.2h309.4V90.8h-309.4v464.2h-309.4
			V90.8h-309.4v464.2h-309.4V90.8h-309.4v464.2h-339.6L3623.5,548.5z M4068.9,1225.4V761.2h-520.1l-1.4,7.5l-1.1,5.3l-1.2,5.3
			l-1.3,5.3l-1.3,5.2l-1.4,5.2l-1.5,5.2l-1.6,5.2l-1.7,5.1l-1.8,5.1l-1.9,5.1l-2,5l-2.1,5l-2.2,5l-2.2,4.9l-2.3,4.9l-2.4,4.8
			l-2.5,4.8l-2.6,4.7l-2.7,4.7l-2.7,4.7l-2.8,4.6l-2.9,4.6l-3,4.5l-3.1,4.5l-3.1,4.4l-3.2,4.3l-3.3,4.3l-3.4,4.2l-3.4,4.2l-3.5,4.1
			l-3.6,4l-3.7,4l-3.7,3.9l-3.8,3.9l-3.9,3.8l-3.9,3.7l-4,3.6l-4,3.6l-4.1,3.5l-4.2,3.4l-4.2,3.4l-4.3,3.3l-4.3,3.2l-4.4,3.1
			l-4.5,3.1l-4.5,3l-4.6,2.9l-4.6,2.8l-4.7,2.7l-4.7,2.7l-4.7,2.6l-4.8,2.5l-4.8,2.4l-4.9,2.3l-4.9,2.2l-5,2.2l-5,2.1l-5,2l-5.1,1.9
			l-5.1,1.8l-5.1,1.7l-5.1,1.6l-5.2,1.5l-5.2,1.4l-5.2,1.4l-5.3,1.3l-5.3,1.2l-5.3,1.1l-5.3,1l-5.3,0.9l-5.3,0.8l-5.4,0.7l-5.4,0.6
			l-5.4,0.5l-5.4,0.4l-5.4,0.3l-5.4,0.2l-5.4,0.1l-5.4,0l-2.7,0l-5.4-0.1l-5.4-0.2l-5.4-0.3l-5.4-0.4l-5.4-0.5l-5.4-0.6l-5.4-0.7
			l-5.3-0.8l-5.3-0.8l-5.3-0.9l-5.3-1l-5.3-1.1l-5.3-1.2l-5.2-1.3l-5.2-1.4l-5.2-1.5l-5.2-1.6l-5.1-1.7l-5.1-1.8l-5.1-1.8l-5.1-1.9
			l-5-2l-5-2.1l-4.9-2.2l-4.9-2.3l-4.8-2.4l-4.8-2.5l-4.8-2.5l-4.7-2.6l-4.7-2.7l-4.6-2.8l-4.6-2.9l-4.5-2.9l-4.5-3l-4.4-3.1
			l-4.4-3.2l-4.3-3.2l-4.3-3.3l-4.2-3.4l-4.1-3.5l-4.1-3.5l-4-3.6l-3.9-3.7l-3.9-3.8l-3.8-3.8l-3.8-3.9l-3.7-3.9l-3.6-4l-3.5-4.1
			l-3.5-4.1l-3.4-4.2l-3.3-4.3l-3.3-4.3l-3.2-4.4l-3.1-4.4l-3-4.5l-2.9-4.5l-2.9-4.6l-2.8-4.6l-2.7-4.7l-2.6-4.7l-2.5-4.8l-2.5-4.8
			l-2.4-4.9l-2.3-4.9l-2.2-4.9l-2.1-5l-2-5l-1.9-5l-1.9-5.1l-1.8-5.1l-1.7-5.1l-1.6-5.2l-1.5-5.2l-1.4-5.2l-1.3-5.2l-1.2-5.3
			l-1.1-5.3l-1-5.3l-0.9-5.3l-0.8-5.3l-0.8-5.3l-0.7-5.4l-0.6-5.4l-0.5-5.4l-0.4-5.4l-0.3-5.4l-0.2-5.4l-0.1-5.4V707l0.1-5.4
			l0.2-5.4l0.3-5.4l0.4-5.4l0.5-5.4l0.6-5.4l0.7-5.4l0.8-5.3l0.8-5.3l0.9-5.3l1-5.3l1.1-5.3l1.2-5.3l1.3-5.2l1.4-5.2l1.5-5.2
			l1.6-5.2l1.7-5.1l1.8-5.1l1.9-5.1l1.9-5l2-5l2.1-5l2.2-4.9l2.3-4.9l2.4-4.9l2.5-4.8l2.5-4.8l2.6-4.7l2.7-4.7l2.8-4.6l2.9-4.6
			l2.9-4.5l3-4.5l3.1-4.4l3.2-4.4l3.3-4.3l3.3-4.3l3.4-4.2l3.5-4.1l3.5-4.1l3.6-4l3.7-3.9l3.8-3.9l3.8-3.8l3.9-3.8l3.9-3.7l4-3.6
			l4.1-3.5l4.1-3.5l4.2-3.4l4.3-3.3l4.3-3.2l4.4-3.2l4.4-3.1l4.5-3l4.5-2.9l4.6-2.9l4.6-2.8l4.7-2.7l4.7-2.6l4.8-2.5l4.8-2.5
			l4.8-2.4l4.9-2.3l4.9-2.2l5-2.1l5-2l5.1-1.9l5.1-1.8l5.1-1.8l5.1-1.7l5.2-1.6l5.2-1.5l5.2-1.4l5.2-1.3l5.3-1.2l5.3-1.1l5.3-1
			l5.3-0.9l5.3-0.8l5.3-0.8l5.4-0.7l5.4-0.6l5.4-0.5l5.4-0.4l5.4-0.3l5.4-0.2l5.4-0.1h5.4l5.4,0.1l5.4,0.2l5.4,0.3l5.4,0.4l5.4,0.5
			l5.4,0.6l5.4,0.7l5.3,0.8l5.3,0.8l5.3,0.9l5.3,1l5.3,1.1l5.3,1.2l5.2,1.3l5.2,1.4l5.2,1.5l5.2,1.6l5.1,1.7l5.1,1.8l5.1,1.8
			l5.1,1.9l5,2l5,2.1l4.9,2.2l4.9,2.3l4.8,2.4l4.8,2.5l4.8,2.5l4.7,2.6l4.7,2.7l4.6,2.8l4.6,2.9l4.5,2.9l4.5,3l4.4,3.1l4.4,3.2
			l4.3,3.2l4.3,3.3l4.2,3.4l4.1,3.5l4.1,3.5l4,3.6l3.9,3.7l3.9,3.8l3.8,3.8l3.8,3.9l3.7,3.9l3.6,4l3.5,4.1l3.5,4.1l3.4,4.2l3.3,4.3
			l3.3,4.3l3.2,4.4l3.1,4.4l3,4.5l3,4.5l2.9,4.6l2.8,4.6l2.7,4.7l2.6,4.7l2.5,4.8l2.5,4.8l2.4,4.9l2.3,4.9l2.2,4.9l2.1,5l2,5l1.9,5
			l1.9,5.1l1.8,5.1l1.7,5.1l1.6,5.2l1.5,5.2l1.4,5.2l1.3,5.2l1.2,5.3l1.1,5.3l1,5.3l0.8,4.8h520.1V193.9H4172v464.2h515.7V193.9
			h103.1v464.2h515.7V193.9h103.1v1031.5h-103.1V761.2h-515.7v464.2h-103.1V761.2H4172v464.2H4068.9z M2385.8,548.5l-2.9-6.6l-3-6.6
			l-3.1-6.5l-3.2-6.4l-3.3-6.4l-3.4-6.3l-3.5-6.3l-3.7-6.2l-3.8-6.1l-3.9-6.1l-4-6l-4.1-5.9l-4.2-5.9l-4.3-5.8l-4.4-5.7l-4.5-5.6
			l-4.6-5.6l-4.7-5.5l-4.8-5.4l-4.9-5.3l-5-5.2l-5-5.1l-5.1-5l-5.2-5l-5.3-4.9l-5.4-4.8l-5.5-4.7l-5.6-4.6l-5.6-4.5l-5.7-4.4
			l-5.8-4.3l-5.9-4.2l-5.9-4.1l-6-4l-6.1-3.9l-6.1-3.8l-6.2-3.7l-6.3-3.5l-6.3-3.4l-6.4-3.3l-6.4-3.2l-6.5-3.1l-6.6-3l-6.6-2.9
			l-6.7-2.8l-6.7-2.6l-6.7-2.5l-6.8-2.4l-6.8-2.3l-6.9-2.2l-6.9-2l-6.9-1.9l-7-1.8l-7-1.7l-7-1.6l-7.1-1.4l-7.1-1.3l-7.1-1.2
			l-7.1-1.1l-7.1-0.9l-7.2-0.8l-7.2-0.7l-7.2-0.6l-7.2-0.4l-7.2-0.3l-7.2-0.2l-7.2-0.1l-7.2,0.1l-7.2,0.2l-7.2,0.3l-7.2,0.4
			l-7.2,0.6l-7.2,0.7l-7.2,0.8l-7.1,0.9l-7.1,1.1l-7.1,1.2l-7.1,1.3l-7.1,1.4l-7,1.6l-7,1.7l-7,1.8l-6.9,1.9l-6.9,2l-6.9,2.2
			l-6.8,2.3l-6.8,2.4l-6.7,2.5l-6.7,2.6l-6.7,2.8l-6.6,2.9l-6.6,3l-6.5,3.1l-6.4,3.2l-6.4,3.3l-6.3,3.4l-6.3,3.5l-6.2,3.7l-6.1,3.8
			l-6.1,3.9l-6,4l-5.9,4.1l-5.9,4.2l-5.8,4.3l-5.7,4.4l-5.6,4.5l-5.6,4.6l-5.5,4.7l-5.4,4.8l-5.3,4.9l-5.2,5l-5.1,5l-5,5.1l-5,5.2
			l-4.9,5.3l-4.8,5.4l-4.7,5.5l-4.6,5.6l-4.5,5.6l-4.4,5.7l-4.3,5.8l-4.2,5.9l-4.1,5.9l-4,6l-3.9,6.1l-3.8,6.1l-3.7,6.2l-3.5,6.3
			l-3.4,6.3l-3.3,6.4l-3.2,6.4l-3.1,6.5l-3,6.6l-2.9,6.6l-2.8,6.7l-2.6,6.7l-2.5,6.7l-2.4,6.8l-2.3,6.8l-2.2,6.9l-2,6.9l-1.9,6.9
			l-1.8,7l-1.7,7l-1.6,7l-1.4,7.1l-1.3,7.1l-1.2,7.1l-1.1,7.1l-0.9,7.1l-0.8,7.2l-0.7,7.2l-0.6,7.2l-0.4,7.2l-0.3,7.2l-0.2,7.2
			l-0.1,7.2l0.1,7.2l0.2,7.2l0.3,7.2l0.4,7.2l0.6,7.2l0.7,7.2l0.8,7.2l0.9,7.1l1.1,7.1l1.2,7.1l1.3,7.1l1.4,7.1l1.6,7l1.7,7l1.8,7
			l1.9,6.9l2,6.9l2.2,6.9l2.3,6.8l2.4,6.8l2.5,6.7l2.6,6.7l2.8,6.7l2.9,6.6l3,6.6l3.1,6.5l3.2,6.4l3.3,6.4l3.4,6.3l3.5,6.3l3.7,6.2
			l3.8,6.1l3.9,6.1l4,6l4.1,5.9l4.2,5.9l4.3,5.8l4.4,5.7l4.5,5.6l4.6,5.6l4.7,5.5l4.8,5.4l4.9,5.3l5,5.2l5,5.1l5.1,5l5.2,5l5.3,4.9
			l5.4,4.8l5.5,4.7l5.6,4.6l5.6,4.5l5.7,4.4l5.8,4.3l5.9,4.2l5.9,4.1l6,4l6.1,3.9l6.1,3.8l6.2,3.7l6.3,3.5l6.3,3.4l6.4,3.3l6.4,3.2
			l6.5,3.1l6.6,3l6.6,2.9l6.7,2.8l6.7,2.6l6.7,2.5l6.8,2.4l6.8,2.3l6.9,2.2l6.9,2l6.9,1.9l7,1.8l7,1.7l7,1.6l7.1,1.4l7.1,1.3
			l7.1,1.2l7.1,1.1l7.1,0.9l7.2,0.8l7.2,0.7l7.2,0.6l7.2,0.4l7.2,0.3l7.2,0.2l7.2,0.1l7.2-0.1l7.2-0.2l7.2-0.3l7.2-0.4l7.2-0.6
			l7.2-0.7l7.2-0.8l7.1-0.9l7.1-1.1l7.1-1.2l7.1-1.3l7.1-1.4l7-1.6l7-1.7l7-1.8l6.9-1.9l6.9-2l6.9-2.2l6.8-2.3l6.8-2.4l6.7-2.5
			l6.7-2.6l6.7-2.8l6.6-2.9l6.6-3l6.5-3.1l6.4-3.2l6.4-3.3l6.3-3.4l6.3-3.5l6.2-3.7l6.1-3.8l6.1-3.9l6-4l5.9-4.1l5.9-4.2l5.8-4.3
			l5.7-4.4l5.6-4.5l5.6-4.6l5.5-4.7l5.4-4.8l5.3-4.9l5.2-5l5.1-5l5-5.1l5-5.2l4.9-5.3l4.8-5.4l4.7-5.5l4.6-5.6l4.5-5.6l4.4-5.7
			l4.3-5.8l4.2-5.9l4.1-5.9l4-6l3.9-6.1l3.8-6.1l3.7-6.2l3.5-6.3l3.4-6.3l3.3-6.4l3.2-6.4l3.1-6.5l3-6.6l2.9-6.6l2.7-6.5h256.1
			l1.4,5.5l1.4,5.2l1.5,5.2l1.5,5.2l1.6,5.2l1.6,5.2l1.6,5.1l1.7,5.1l1.7,5.1l1.8,5.1l1.8,5.1l1.9,5.1l1.9,5.1l2,5l2,5l2,5l2.1,5
			l2.1,5l2.2,4.9l2.2,4.9l2.3,4.9l2.3,4.9l2.3,4.9l2.4,4.8l2.4,4.8l2.5,4.8l2.5,4.8l2.6,4.8l2.6,4.7l2.6,4.7l2.7,4.7l2.7,4.7
			l2.8,4.6l2.8,4.6l2.8,4.6l2.9,4.6l2.9,4.5l3,4.5l3,4.5l3,4.5l3.1,4.4l3.1,4.4l3.2,4.4l3.2,4.4l3.2,4.3l3.3,4.3l3.3,4.3l3.3,4.2
			l3.4,4.2l3.4,4.2l3.5,4.2l3.5,4.1l3.5,4.1l3.6,4.1l3.6,4l3.6,4l3.7,4l3.7,3.9l3.7,3.9l3.8,3.9l3.8,3.8l3.8,3.8l3.9,3.8l3.9,3.7
			l3.9,3.7l4,3.7l4,3.6l4,3.6l4.1,3.6l4.1,3.5l4.1,3.5l4.2,3.5l4.2,3.4l4.2,3.4l4.2,3.3l4.3,3.3l4.3,3.3l4.3,3.2l4.4,3.2l4.4,3.2
			l4.4,3.1l4.4,3.1l4.5,3l4.5,3l4.5,3l4.5,2.9l4.6,2.9l4.6,2.8l4.6,2.8l4.6,2.8l4.7,2.7l4.7,2.7l4.7,2.6l4.7,2.6l4.8,2.6l4.8,2.5
			l4.8,2.5l4.8,2.4l4.8,2.4l4.9,2.3l4.9,2.3l4.9,2.3l4.9,2.2l5,2.2l5,2.1l5,2.1l5,2l5,2l5,2l5.1,1.9l5.1,1.9l5.1,1.8l5.1,1.8
			l5.1,1.7l5.1,1.7l5.2,1.6l5.2,1.6l5.2,1.6l5.2,1.5l5.2,1.5l5.2,1.4l5.2,1.4l5.2,1.3l5.3,1.3l5.2,1.2l5.3,1.2l5.3,1.1l5.3,1.1
			l5.3,1.1l5.3,1l5.3,1l5.3,0.9l5.3,0.9l5.3,0.8l5.3,0.8l5.3,0.7l5.4,0.7l5.4,0.6l5.4,0.6l5.4,0.5l5.4,0.5l5.4,0.4l5.4,0.4l5.4,0.4
			l5.4,0.3l5.4,0.3l5.4,0.2l5.4,0.2l5.4,0.1l5.4,0.1l5.4,0l5.4,0l5.4-0.1l5.4-0.1l5.4-0.2l5.4-0.2l5.4-0.3l5.4-0.3l5.4-0.4l5.4-0.4
			l5.4-0.4l5.4-0.5l5.4-0.5l5.4-0.6l5.4-0.6l5.4-0.7l5.3-0.7l5.3-0.8l5.3-0.8l5.3-0.9l5.3-0.9l5.3-1l5.3-1l5.3-1.1l5.3-1.1l5.3-1.1
			l5.3-1.2l5.2-1.2l5.3-1.3l5.2-1.3l5.2-1.4l5.2-1.4l5.2-1.5l5.2-1.5l5.2-1.6l5.2-1.6l5.2-1.6l5.1-1.7l5.1-1.7l5.1-1.8l5.1-1.8
			l5.1-1.9l5.1-1.9l5-2l5-2l5-2l5-2.1l5-2.1l5-2.2l4.9-2.2l4.9-2.3l4.9-2.3l4.9-2.3l4.8-2.4l4.8-2.4l4.8-2.5l4.8-2.5l4.8-2.6
			l4.7-2.6l4.7-2.6l4.7-2.7l4.7-2.7l4.6-2.8l4.6-2.8l4.6-2.8l4.6-2.9l4.5-2.9l4.5-3l4.5-3l4.5-3l4.4-3.1l4.4-3.1l4.4-3.2l4.4-3.2
			l4.3-3.2l4.3-3.3l4.3-3.3l4.2-3.3l4.2-3.4l4.2-3.4l4.2-3.5l4.1-3.5l4.1-3.5l4.1-3.6l4-3.6l4-3.6l4-3.7l3.9-3.7l3.9-3.7l3.9-3.8
			l3.8-3.8l3.8-3.8l3.8-3.9l3.7-3.9l3.7-3.9l3.7-4l3.6-4l3.6-4l3.5-4.1l3.5-4.1l3.5-4.1l3.5-4.2l3.4-4.2l3.4-4.2l3.3-4.2l3.3-4.3
			l3.3-4.3l3.2-4.3l3.2-4.4l3.1-4.4l3.1-4.4l3.1-4.4l3-4.5l3-4.5l3-4.5l2.9-4.5l2.9-4.6l2.8-4.6l2.8-4.6l2.8-4.6l2.7-4.7l2.7-4.7
			l2.6-4.7l2.6-4.7l2.5-4.8l2.5-4.8l2.5-4.8l2.4-4.8l2.4-4.8l2.4-4.9l4-8.6h-116l-4.6,7.8l-4.7,7.7l-4.8,7.6l-5,7.5l-5.1,7.4
			l-5.2,7.3l-5.3,7.2l-5.5,7.1l-5.6,7l-5.7,6.9l-5.8,6.8l-6,6.7l-6.1,6.6l-6.2,6.5l-6.3,6.4l-6.4,6.3l-6.5,6.2l-6.6,6.1l-6.7,6
			l-6.8,5.8l-7,5.7l-7,5.6l-7.2,5.5l-7.2,5.4l-7.3,5.2l-7.4,5.1l-7.5,5l-7.6,4.8l-7.7,4.7l-7.8,4.6l-7.8,4.4l-7.9,4.3l-8,4.2l-8.1,4
			l-8.1,3.9l-8.2,3.7l-8.3,3.6l-8.3,3.4l-8.4,3.3l-8.4,3.2l-8.5,3l-8.5,2.9l-8.6,2.7l-8.6,2.6l-8.7,2.4l-8.7,2.3l-8.7,2.1l-8.8,1.9
			l-8.8,1.8l-8.8,1.6l-8.9,1.5l-8.9,1.3l-8.9,1.2l-9,1l-9,0.9l-9,0.7l-9,0.5l-9,0.4l-9,0.2l-9,0.1l-9-0.1l-9-0.2l-9-0.4l-9-0.5
			l-9-0.7l-9-0.9l-9-1l-8.9-1.2l-8.9-1.3l-8.9-1.5l-8.8-1.6l-8.8-1.8l-8.8-1.9l-8.7-2.1l-8.7-2.3l-8.7-2.4l-8.6-2.6l-8.6-2.7
			l-8.5-2.9l-8.5-3l-8.4-3.2l-8.4-3.3l-8.3-3.4l-8.3-3.6l-8.2-3.7l-8.1-3.9l-8.1-4l-8-4.2l-7.9-4.3l-7.8-4.4l-7.8-4.6l-7.7-4.7
			l-7.6-4.8l-7.5-5l-7.4-5.1l-7.3-5.2l-7.2-5.4l-7.2-5.5l-7-5.6l-7-5.7l-6.8-5.8l-6.7-6l-6.6-6.1l-6.5-6.2l-6.4-6.3l-6.3-6.4
			l-6.2-6.5l-6.1-6.6l-6-6.7l-5.8-6.8l-5.7-6.9l-5.6-7l-5.5-7.1l-5.4-7.2l-5.2-7.3l-5.1-7.4l-5-7.5l-4.8-7.6l-4.7-7.7l-4.6-7.8
			l-4.4-7.8l-4.3-7.9l-4.2-8l-4-8.1l-3.9-8.1l-3.7-8.2l-3.6-8.3l-3.4-8.3l-3.3-8.4l-3.2-8.4l-3-8.5l-2.9-8.5l-2.7-8.6l-2.6-8.6
			l-2.4-8.7l-2.3-8.7l-2.1-8.8l-1.9-8.8l-1.8-8.8l-1.6-8.9l-1.5-8.9l-1.3-8.9l-1.2-8.9l-1-8.9l-0.2-2.3h-419.5l-1.4,7.5l-1.1,5.3
			l-1.2,5.3l-1.3,5.3l-1.4,5.2l-1.4,5.2l-1.5,5.2l-1.6,5.2l-1.7,5.1l-1.8,5.1l-1.9,5.1l-2,5l-2.1,5l-2.2,5l-2.2,4.9l-2.3,4.9
			l-2.4,4.8l-2.5,4.8l-2.6,4.7l-2.7,4.7l-2.7,4.7l-2.8,4.6l-2.9,4.6l-3,4.5l-3.1,4.5l-3.1,4.4l-3.2,4.3l-3.3,4.3l-3.4,4.2l-3.4,4.2
			l-3.5,4.1l-3.6,4l-3.6,4l-3.7,3.9l-3.8,3.9l-3.9,3.8l-3.9,3.7l-4,3.6l-4,3.6l-4.1,3.5l-4.2,3.4l-4.2,3.4l-4.3,3.3l-4.3,3.2
			l-4.4,3.1l-4.4,3.1l-4.5,3l-4.6,2.9l-4.6,2.8l-4.7,2.7l-4.7,2.7l-4.7,2.6l-4.8,2.5l-4.8,2.4l-4.9,2.3l-4.9,2.2l-5,2.2l-5,2.1l-5,2
			l-5.1,1.9l-5.1,1.8l-5.1,1.7l-5.2,1.6l-5.2,1.5l-5.2,1.4l-5.2,1.4l-5.2,1.3l-5.3,1.2l-5.3,1.1l-5.3,1l-5.3,0.9l-5.3,0.8l-5.4,0.7
			l-5.4,0.6l-5.4,0.5l-5.4,0.4l-5.4,0.3l-5.4,0.2l-5.4,0.1l-5.4,0l-2.7,0l-5.4-0.1l-5.4-0.2l-5.4-0.3l-5.4-0.4l-5.4-0.5l-5.4-0.6
			l-5.4-0.7l-5.3-0.8l-5.3-0.8l-5.3-0.9l-5.3-1l-5.3-1.1l-5.3-1.2l-5.2-1.3l-5.2-1.4l-5.2-1.5l-5.2-1.6l-5.1-1.7l-5.1-1.8l-5.1-1.8
			l-5-1.9l-5-2l-5-2.1l-4.9-2.2l-4.9-2.3l-4.9-2.4l-4.8-2.5l-4.8-2.5l-4.7-2.6l-4.7-2.7l-4.6-2.8l-4.6-2.9l-4.5-2.9l-4.5-3l-4.4-3.1
			l-4.4-3.2l-4.3-3.2l-4.3-3.3l-4.2-3.4l-4.1-3.5l-4.1-3.5l-4-3.6l-3.9-3.7l-3.9-3.8l-3.8-3.8l-3.8-3.9l-3.7-3.9l-3.6-4l-3.5-4.1
			l-3.5-4.1l-3.4-4.2l-3.3-4.3l-3.2-4.3l-3.2-4.4l-3.1-4.4l-3-4.5l-2.9-4.5l-2.9-4.6l-2.8-4.6l-2.7-4.7l-2.6-4.7l-2.5-4.8l-2.5-4.8
			l-2.4-4.9l-2.3-4.9l-2.2-4.9l-2.1-5l-2-5l-1.9-5l-1.8-5.1l-1.8-5.1l-1.7-5.1l-1.6-5.2l-1.5-5.2l-1.4-5.2l-1.3-5.2l-1.2-5.3
			l-1.1-5.3l-1-5.3l-0.9-5.3l-0.8-5.3l-0.8-5.3l-0.7-5.4l-0.6-5.4l-0.5-5.4l-0.4-5.4l-0.3-5.4l-0.2-5.4l-0.1-5.4V707l0.1-5.4
			l0.2-5.4l0.3-5.4l0.4-5.4l0.5-5.4l0.6-5.4l0.7-5.4l0.8-5.3l0.8-5.3l0.9-5.3l1-5.3l1.1-5.3l1.2-5.3l1.3-5.2l1.4-5.2l1.5-5.2
			l1.6-5.2l1.7-5.1l1.8-5.1l1.8-5.1l1.9-5l2-5l2.1-5l2.2-4.9l2.3-4.9l2.4-4.9l2.5-4.8l2.5-4.8l2.6-4.7l2.7-4.7l2.8-4.6l2.9-4.6
			l2.9-4.5l3-4.5l3.1-4.4l3.2-4.4l3.2-4.3l3.3-4.3l3.4-4.2l3.5-4.1l3.5-4.1l3.6-4l3.7-3.9l3.8-3.9l3.8-3.8l3.9-3.8l3.9-3.7l4-3.6
			l4.1-3.5l4.1-3.5l4.2-3.4l4.3-3.3l4.3-3.2l4.4-3.2l4.4-3.1l4.5-3l4.5-2.9l4.6-2.9l4.6-2.8l4.7-2.7l4.7-2.6l4.8-2.5l4.8-2.5
			l4.9-2.4l4.9-2.3l4.9-2.2l5-2.1l5-2l5-1.9l5.1-1.8l5.1-1.8l5.1-1.7l5.2-1.6l5.2-1.5l5.2-1.4l5.2-1.3l5.3-1.2l5.3-1.1l5.3-1
			l5.3-0.9l5.3-0.8l5.3-0.8l5.4-0.7l5.4-0.6l5.4-0.5l5.4-0.4l5.4-0.3l5.4-0.2l5.4-0.1h5.4l5.4,0.1l5.4,0.2l5.4,0.3l5.4,0.4l5.4,0.5
			l5.4,0.6l5.4,0.7l5.3,0.8l5.3,0.8l5.3,0.9l5.3,1l5.3,1.1l5.3,1.2l5.2,1.3l5.2,1.4l5.2,1.5l5.2,1.6l5.1,1.7l5.1,1.8l5.1,1.8l5,1.9
			l5,2l5,2.1l4.9,2.2l4.9,2.3l4.9,2.4l4.8,2.5l4.8,2.5l4.7,2.6l4.7,2.7l4.6,2.8l4.6,2.9l4.5,2.9l4.5,3l4.4,3.1l4.4,3.2l4.3,3.2
			l4.3,3.3l4.2,3.4l4.1,3.5l4.1,3.5l4,3.6l3.9,3.7l3.9,3.8l3.8,3.8l3.8,3.9l3.7,3.9l3.6,4l3.5,4.1l3.5,4.1l3.4,4.2l3.3,4.3l3.2,4.3
			l3.2,4.4l3.1,4.4l3,4.5l2.9,4.5l2.9,4.6l2.8,4.6l2.7,4.7l2.6,4.7l2.5,4.8l2.5,4.8l2.4,4.9l2.3,4.9l2.2,4.9l2.1,5l2,5l1.9,5
			l1.8,5.1l1.8,5.1l1.7,5.1l1.6,5.2l1.5,5.2l1.4,5.2l1.3,5.2l1.2,5.3l1.1,5.3l1,5.3l0.9,4.8h419.5l0.2-2.3l1-8.9l1.2-8.9l1.3-8.9
			l1.5-8.9l1.6-8.9l1.8-8.8l1.9-8.8l2.1-8.8l2.3-8.7l2.4-8.7l2.6-8.6l2.7-8.6l2.9-8.5l3-8.5l3.2-8.4l3.3-8.4l3.4-8.3l3.6-8.3
			l3.7-8.2l3.9-8.1l4-8.1l4.2-8l4.3-7.9l4.4-7.8l4.6-7.8l4.7-7.7l4.8-7.6l5-7.5l5.1-7.4l5.2-7.3l5.4-7.2l5.5-7.1l5.6-7l5.7-6.9
			l5.8-6.8l6-6.7l6.1-6.6l6.2-6.5l6.3-6.4l6.4-6.3l6.5-6.2l6.6-6.1l6.7-6l6.8-5.8l7-5.7l7-5.6l7.2-5.5l7.2-5.4l7.3-5.2l7.4-5.1
			l7.5-5l7.6-4.8l7.7-4.7l7.8-4.6l7.8-4.4l7.9-4.3l8-4.2l8.1-4l8.1-3.9l8.2-3.7l8.3-3.6l8.3-3.4l8.4-3.3l8.4-3.2l8.5-3l8.5-2.9
			l8.6-2.7l8.6-2.6l8.7-2.4l8.7-2.3l8.7-2.1l8.8-1.9l8.8-1.8l8.8-1.6l8.9-1.5l8.9-1.3l8.9-1.2l9-1l9-0.9l9-0.7l9-0.5l9-0.4l9-0.2
			l9-0.1l9,0.1l9,0.2l9,0.4l9,0.5l9,0.7l9,0.9l9,1l8.9,1.2l8.9,1.3l8.9,1.5l8.8,1.6l8.8,1.8l8.8,1.9l8.7,2.1l8.7,2.3l8.7,2.4
			l8.6,2.6l8.6,2.7l8.5,2.9l8.5,3l8.4,3.2l8.4,3.3l8.3,3.4l8.3,3.6l8.2,3.7l8.1,3.9l8.1,4l8,4.2l7.9,4.3l7.8,4.4l7.8,4.6l7.7,4.7
			l7.6,4.8l7.5,5l7.4,5.1l7.3,5.2l7.2,5.4l7.2,5.5l7,5.6l7,5.7l6.8,5.8l6.7,6l6.6,6.1l6.5,6.2l6.4,6.3l6.3,6.4l6.2,6.5l6.1,6.6
			l6,6.7l5.8,6.8l5.7,6.9l5.6,7l5.5,7.1l5.3,7.2l5.2,7.3l5.1,7.4l5,7.5l4.8,7.6l4.7,7.7l4.6,7.8h116l-4-8.6l-2.4-4.9l-2.4-4.8
			l-2.4-4.8l-2.5-4.8l-2.5-4.8l-2.5-4.8l-2.6-4.7l-2.6-4.7l-2.7-4.7l-2.7-4.7l-2.8-4.6l-2.8-4.6l-2.8-4.6l-2.9-4.6l-2.9-4.5l-3-4.5
			l-3-4.5l-3-4.5l-3.1-4.4l-3.1-4.4l-3.1-4.4l-3.2-4.4l-3.2-4.3l-3.3-4.3l-3.3-4.3l-3.3-4.2l-3.4-4.2l-3.4-4.2l-3.5-4.2l-3.5-4.1
			l-3.5-4.1l-3.5-4.1l-3.6-4l-3.6-4l-3.7-4l-3.7-3.9l-3.7-3.9l-3.8-3.9l-3.8-3.8l-3.8-3.8l-3.9-3.8l-3.9-3.7l-3.9-3.7l-4-3.7l-4-3.6
			l-4-3.6l-4.1-3.6l-4.1-3.5l-4.1-3.5l-4.2-3.5l-4.2-3.4l-4.2-3.4l-4.2-3.3l-4.3-3.3l-4.3-3.3l-4.3-3.2l-4.4-3.2l-4.4-3.2l-4.4-3.1
			l-4.4-3.1l-4.5-3l-4.5-3l-4.5-3l-4.5-2.9l-4.6-2.9l-4.6-2.8l-4.6-2.8l-4.6-2.8l-4.7-2.7l-4.7-2.7l-4.7-2.6l-4.7-2.6l-4.8-2.6
			l-4.8-2.5l-4.8-2.5l-4.8-2.4l-4.8-2.4l-4.9-2.3l-4.9-2.3l-4.9-2.3l-4.9-2.2l-5-2.2l-5-2.1l-5-2.1l-5-2l-5-2l-5-2l-5.1-1.9
			l-5.1-1.9l-5.1-1.8l-5.1-1.8l-5.1-1.7l-5.1-1.7l-5.2-1.6l-5.2-1.6l-5.2-1.6l-5.2-1.5l-5.2-1.5l-5.2-1.4l-5.2-1.4l-5.2-1.3
			l-5.3-1.3l-5.2-1.2l-5.3-1.2l-5.3-1.1l-5.3-1.1l-5.3-1.1l-5.3-1l-5.3-1l-5.3-0.9l-5.3-0.9l-5.3-0.8l-5.3-0.8l-5.3-0.7l-5.4-0.7
			l-5.4-0.6l-5.4-0.6l-5.4-0.5l-5.4-0.5l-5.4-0.4l-5.4-0.4l-5.4-0.4l-5.4-0.3l-5.4-0.3l-5.4-0.2l-5.4-0.2l-5.4-0.1l-5.4-0.1l-5.4,0
			l-5.4,0l-5.4,0.1l-5.4,0.1l-5.4,0.2l-5.4,0.2l-5.4,0.3l-5.4,0.3l-5.4,0.4l-5.4,0.4l-5.4,0.4l-5.4,0.5l-5.4,0.5l-5.4,0.6l-5.4,0.6
			l-5.4,0.7l-5.3,0.7l-5.3,0.8l-5.3,0.8l-5.3,0.9l-5.3,0.9l-5.3,1l-5.3,1l-5.3,1.1l-5.3,1.1l-5.3,1.1l-5.3,1.2l-5.2,1.2l-5.3,1.3
			l-5.2,1.3l-5.2,1.4l-5.2,1.4l-5.2,1.5l-5.2,1.5l-5.2,1.6l-5.2,1.6l-5.2,1.6l-5.1,1.7l-5.1,1.7l-5.1,1.8l-5.1,1.8l-5.1,1.9
			l-5.1,1.9l-5,2l-5,2l-5,2l-5,2.1l-5,2.1l-5,2.2l-4.9,2.2l-4.9,2.3l-4.9,2.3l-4.9,2.3l-4.8,2.4l-4.8,2.4l-4.8,2.5l-4.8,2.5
			l-4.8,2.6l-4.7,2.6l-4.7,2.6l-4.7,2.7l-4.7,2.7l-4.6,2.8l-4.6,2.8l-4.6,2.8l-4.6,2.9l-4.5,2.9l-4.5,3l-4.5,3l-4.5,3l-4.4,3.1
			l-4.4,3.1l-4.4,3.2l-4.4,3.2l-4.3,3.2l-4.3,3.3l-4.3,3.3l-4.2,3.3l-4.2,3.4l-4.2,3.4l-4.2,3.5l-4.1,3.5l-4.1,3.5l-4.1,3.6l-4,3.6
			l-4,3.6l-4,3.7l-3.9,3.7l-3.9,3.7l-3.9,3.8l-3.8,3.8l-3.8,3.8l-3.8,3.9l-3.7,3.9l-3.7,3.9l-3.7,4l-3.6,4l-3.6,4l-3.6,4.1l-3.5,4.1
			l-3.5,4.1l-3.5,4.2l-3.4,4.2l-3.4,4.2l-3.3,4.2l-3.3,4.3l-3.3,4.3l-3.2,4.3l-3.2,4.4l-3.2,4.4l-3.1,4.4l-3.1,4.4l-3,4.5l-3,4.5
			l-3,4.5l-2.9,4.5l-2.9,4.6l-2.8,4.6l-2.8,4.6l-2.8,4.6l-2.7,4.7l-2.7,4.7l-2.6,4.7l-2.6,4.7l-2.6,4.8l-2.5,4.8l-2.5,4.8l-2.4,4.8
			l-2.4,4.8l-2.3,4.9l-2.3,4.9l-2.3,4.9l-2.2,4.9l-2.2,4.9l-2.1,5l-2.1,5l-2,5l-2,5l-2,5l-1.9,5.1l-1.9,5.1l-1.8,5.1l-1.8,5.1
			l-1.7,5.1l-1.7,5.1l-1.6,5.1l-1.6,5.2l-1.6,5.2l-1.5,5.2l-1.5,5.2l-1.4,5.2l-1.4,5.5h-256.1L2385.8,548.5z M1148,548.5l-2.9-6.6
			l-3-6.6l-3.1-6.5l-3.2-6.4l-3.3-6.4l-3.4-6.3l-3.5-6.3l-3.7-6.2l-3.8-6.1l-3.9-6.1l-4-6l-4.1-5.9l-4.2-5.9l-4.3-5.8l-4.4-5.7
			l-4.5-5.6l-4.6-5.6l-4.7-5.5l-4.8-5.4l-4.9-5.3l-5-5.2l-5-5.1l-5.1-5l-5.2-5l-5.3-4.9l-5.4-4.8l-5.5-4.7l-5.6-4.6l-5.6-4.5
			l-5.7-4.4l-5.8-4.3l-5.9-4.2l-5.9-4.1l-6-4l-6.1-3.9l-6.1-3.8l-6.2-3.7l-6.3-3.5l-6.3-3.4l-6.4-3.3l-6.4-3.2l-6.5-3.1l-6.6-3
			l-6.6-2.9l-6.7-2.8l-6.7-2.6l-6.7-2.5l-6.8-2.4l-6.8-2.3l-6.9-2.2l-6.9-2l-6.9-1.9l-7-1.8l-7-1.7l-7-1.6l-7.1-1.4l-7.1-1.3
			l-7.1-1.2l-7.1-1.1l-7.1-0.9l-7.2-0.8l-7.2-0.7l-7.2-0.6l-7.2-0.4l-7.2-0.3l-7.2-0.2l-7.2-0.1l-7.2,0.1l-7.2,0.2l-7.2,0.3
			l-7.2,0.4l-7.2,0.6l-7.2,0.7l-7.2,0.8l-7.1,0.9l-7.1,1.1l-7.1,1.2l-7.1,1.3l-7.1,1.4l-7,1.6l-7,1.7l-7,1.8l-6.9,1.9l-6.9,2
			l-6.9,2.2l-6.8,2.3l-6.8,2.4l-6.7,2.5l-6.7,2.6l-6.7,2.8l-6.6,2.9l-6.6,3l-6.5,3.1l-6.4,3.2l-6.4,3.3l-6.3,3.4l-6.3,3.5l-6.2,3.7
			l-6.1,3.8l-6.1,3.9l-6,4l-5.9,4.1l-5.9,4.2l-5.8,4.3l-5.7,4.4l-5.6,4.5l-5.6,4.6l-5.5,4.7l-5.4,4.8l-5.3,4.9l-5.2,5l-5.1,5l-5,5.1
			l-5,5.2l-4.9,5.3l-4.8,5.4l-4.7,5.5l-4.6,5.6l-4.5,5.6l-4.4,5.7l-4.3,5.8l-4.2,5.9l-4.1,5.9l-4,6l-3.9,6.1l-3.8,6.1l-3.7,6.2
			l-3.5,6.3l-3.4,6.3l-3.3,6.4l-3.2,6.4l-3.1,6.5l-3,6.6l-2.9,6.6l-2.8,6.7l-2.6,6.7l-2.5,6.7l-2.4,6.8l-2.3,6.8l-2.2,6.9l-2,6.9
			l-1.9,6.9l-1.8,7l-1.7,7l-1.6,7l-1.4,7.1l-1.3,7.1l-1.2,7.1l-1.1,7.1l-0.9,7.1l-0.8,7.2l-0.7,7.2l-0.6,7.2l-0.4,7.2l-0.3,7.2
			l-0.2,7.2l-0.1,7.2l0.1,7.2l0.2,7.2l0.3,7.2l0.4,7.2l0.6,7.2l0.7,7.2l0.8,7.2l0.9,7.1l1.1,7.1l1.2,7.1l1.3,7.1l1.4,7.1l1.6,7
			l1.7,7l1.8,7l1.9,6.9l2,6.9l2.2,6.9l2.3,6.8l2.4,6.8l2.5,6.7l2.6,6.7l2.8,6.7l2.9,6.6l3,6.6l3.1,6.5l3.2,6.4l3.3,6.4l3.4,6.3
			l3.5,6.3l3.7,6.2l3.8,6.1l3.9,6.1l4,6l4.1,5.9l4.2,5.9l4.3,5.8l4.4,5.7l4.5,5.6l4.6,5.6l4.7,5.5l4.8,5.4l4.9,5.3l5,5.2l5,5.1
			l5.1,5l5.2,5l5.3,4.9l5.4,4.8l5.5,4.7l5.6,4.6l5.6,4.5l5.7,4.4l5.8,4.3l5.9,4.2l5.9,4.1l6,4l6.1,3.9l6.1,3.8l6.2,3.7l6.3,3.5
			l6.3,3.4l6.4,3.3l6.4,3.2l6.5,3.1l6.6,3l6.6,2.9l6.7,2.8l6.7,2.6l6.7,2.5l6.8,2.4l6.8,2.3l6.9,2.2l6.9,2l6.9,1.9l7,1.8l7,1.7
			l7,1.6l7.1,1.4l7.1,1.3l7.1,1.2l7.1,1.1l7.1,0.9l7.2,0.8l7.2,0.7l7.2,0.6l7.2,0.4l7.2,0.3l7.2,0.2l7.2,0.1l7.2-0.1l7.2-0.2
			l7.2-0.3l7.2-0.4l7.2-0.6l7.2-0.7l7.2-0.8l7.1-0.9l7.1-1.1l7.1-1.2l7.1-1.3l7.1-1.4l7-1.6l7-1.7l7-1.8l6.9-1.9l6.9-2l6.9-2.2
			l6.8-2.3l6.8-2.4l6.7-2.5l6.7-2.6l6.7-2.8l6.6-2.9l6.6-3l6.5-3.1l6.4-3.2l6.4-3.3l6.3-3.4l6.3-3.5l6.2-3.7l6.1-3.8l6.1-3.9l6-4
			l5.9-4.1l5.9-4.2l5.8-4.3l5.7-4.4l5.6-4.5l5.6-4.6l5.5-4.7l5.4-4.8l5.3-4.9l5.2-5l5.1-5l5-5.1l5-5.2l4.9-5.3l4.8-5.4l4.7-5.5
			l4.6-5.6l4.5-5.6l4.4-5.7l4.3-5.8l4.2-5.9l4.1-5.9l4-6l3.9-6.1l3.8-6.1l3.7-6.2l3.5-6.3l3.4-6.3l3.3-6.4l3.2-6.4l3.1-6.5l3-6.6
			l2.9-6.6l2.7-6.5h256.1l1.4,5.5l1.4,5.2l1.5,5.2l1.5,5.2l1.6,5.2l1.6,5.2l1.6,5.1l1.7,5.1l1.7,5.1l1.8,5.1l1.8,5.1l1.9,5.1
			l1.9,5.1l2,5l2,5l2,5l2.1,5l2.1,5l2.2,4.9l2.2,4.9l2.3,4.9l2.3,4.9l2.3,4.9l2.4,4.8l2.4,4.8l2.5,4.8l2.5,4.8l2.6,4.8l2.6,4.7
			l2.6,4.7l2.7,4.7l2.7,4.7l2.8,4.6l2.8,4.6l2.8,4.6l2.9,4.6l2.9,4.5l3,4.5l3,4.5l3,4.5l3.1,4.4l3.1,4.4l3.2,4.4l3.2,4.4l3.2,4.3
			l3.3,4.3l3.3,4.3l3.3,4.2l3.4,4.2l3.4,4.2l3.5,4.2l3.5,4.1l3.5,4.1l3.6,4.1l3.6,4l3.6,4l3.7,4l3.7,3.9l3.7,3.9l3.8,3.9l3.8,3.8
			l3.8,3.8l3.9,3.8l3.9,3.7l3.9,3.7l4,3.7l4,3.6l4,3.6l4.1,3.6l4.1,3.5l4.1,3.5l4.2,3.5l4.2,3.4l4.2,3.4l4.2,3.3l4.3,3.3l4.3,3.3
			l4.3,3.2l4.4,3.2l4.4,3.2l4.4,3.1l4.4,3.1l4.5,3l4.5,3l4.5,3l4.5,2.9l4.6,2.9l4.6,2.8l4.6,2.8l4.6,2.8l4.7,2.7l4.7,2.7l4.7,2.6
			l4.7,2.6l4.8,2.6l4.8,2.5l4.8,2.5l4.8,2.4l4.8,2.4l4.9,2.3l4.9,2.3l4.9,2.3l4.9,2.2l4.9,2.2l5,2.1l5,2.1l5,2l5,2l5,2l5.1,1.9
			l5.1,1.9l5.1,1.8l5.1,1.8l5.1,1.7l5.1,1.7l5.1,1.6l5.2,1.6l5.2,1.6l5.2,1.5l5.2,1.5l5.2,1.4l5.2,1.4l5.2,1.3l5.2,1.3l5.3,1.2
			l5.3,1.2l5.3,1.1l5.3,1.1l5.3,1.1l5.3,1l5.3,1l5.3,0.9l5.3,0.9l5.3,0.8l5.3,0.8l5.4,0.7l5.4,0.7l5.4,0.6l5.4,0.6l5.4,0.5l5.4,0.5
			l5.4,0.4l5.4,0.4l5.4,0.4l5.4,0.3l5.4,0.3l5.4,0.2l5.4,0.2l5.4,0.1l5.4,0.1l5.4,0l5.4,0l5.4-0.1l5.4-0.1l5.4-0.2l5.4-0.2l5.4-0.3
			l5.4-0.3l5.4-0.4l5.4-0.4l5.4-0.4l5.4-0.5l5.4-0.5l5.4-0.6l5.4-0.6l5.4-0.7l5.4-0.7l5.3-0.8l5.3-0.8l5.3-0.9l5.3-0.9l5.3-1l5.3-1
			l5.3-1.1l5.3-1.1l5.3-1.1l5.3-1.2l5.3-1.2l5.2-1.3l5.2-1.3l5.2-1.4l5.2-1.4l5.2-1.5l5.2-1.5l5.2-1.6l5.2-1.6l5.1-1.6l5.1-1.7
			l5.1-1.7l5.1-1.8l5.1-1.8l5.1-1.9l5.1-1.9l5-2l5-2l5-2l5-2.1l5-2.1l4.9-2.2l4.9-2.2l4.9-2.3l4.9-2.3l4.9-2.3l4.8-2.4l4.8-2.4
			l4.8-2.5l4.8-2.5l4.8-2.6l4.7-2.6l4.7-2.6l4.7-2.7l4.7-2.7l4.6-2.8l4.6-2.8l4.6-2.8l4.6-2.9l4.5-2.9l4.5-3l4.5-3l4.5-3l4.4-3.1
			l4.4-3.1l4.4-3.2l4.4-3.2l4.3-3.2l4.3-3.3l4.3-3.3l4.2-3.3l4.2-3.4l4.2-3.4l4.2-3.5l4.1-3.5l4.1-3.5l4.1-3.6l4-3.6l4-3.6l4-3.7
			l3.9-3.7l3.9-3.7l3.9-3.8l3.8-3.8l3.8-3.8l3.8-3.9l3.7-3.9l3.7-3.9l3.7-4l3.6-4l3.6-4l3.6-4.1l3.5-4.1l3.5-4.1l3.5-4.2l3.4-4.2
			l3.4-4.2l3.3-4.2l3.3-4.3l3.3-4.3l3.2-4.3l3.2-4.4l3.2-4.4l3.1-4.4l3.1-4.4l3-4.5l3-4.5l3-4.5l2.9-4.5l2.9-4.6l2.8-4.6l2.8-4.6
			l2.8-4.6l2.7-4.7l2.7-4.7l2.6-4.7l2.6-4.7l2.6-4.8l2.5-4.8l2.5-4.8l2.4-4.8l2.4-4.8l2.3-4.9l4-8.6h-116l-4.6,7.8l-4.7,7.7
			l-4.8,7.6l-5,7.5l-5.1,7.4l-5.2,7.3l-5.4,7.2l-5.5,7.1l-5.6,7l-5.7,6.9l-5.8,6.8l-6,6.7l-6.1,6.6l-6.2,6.5l-6.3,6.4l-6.4,6.3
			l-6.5,6.2l-6.6,6.1l-6.7,6l-6.8,5.8l-6.9,5.7l-7,5.6l-7.1,5.5l-7.2,5.4l-7.3,5.2l-7.4,5.1l-7.5,5l-7.6,4.8l-7.7,4.7l-7.8,4.6
			l-7.8,4.4l-7.9,4.3l-8,4.2l-8.1,4l-8.1,3.9l-8.2,3.7l-8.3,3.6l-8.3,3.4l-8.4,3.3l-8.4,3.2l-8.5,3l-8.5,2.9l-8.6,2.7l-8.6,2.6
			l-8.7,2.4l-8.7,2.3l-8.8,2.1l-8.8,1.9l-8.8,1.8l-8.9,1.6l-8.9,1.5l-8.9,1.3l-8.9,1.2l-8.9,1l-9,0.9l-9,0.7l-9,0.5l-9,0.4l-9,0.2
			l-9,0.1l-9-0.1l-9-0.2l-9-0.4l-9-0.5l-9-0.7l-9-0.9l-8.9-1l-8.9-1.2l-8.9-1.3l-8.9-1.5l-8.8-1.6l-8.8-1.8l-8.8-1.9l-8.8-2.1
			l-8.7-2.3l-8.7-2.4l-8.6-2.6l-8.6-2.7l-8.5-2.9l-8.5-3l-8.4-3.2l-8.4-3.3l-8.3-3.4l-8.3-3.6l-8.2-3.7l-8.1-3.9l-8.1-4l-8-4.2
			l-7.9-4.3l-7.8-4.4l-7.8-4.6l-7.7-4.7l-7.6-4.8l-7.5-5l-7.4-5.1l-7.3-5.2l-7.2-5.4l-7.1-5.5l-7-5.6l-6.9-5.7l-6.8-5.8l-6.7-6
			l-6.6-6.1l-6.5-6.2l-6.4-6.3l-6.3-6.4l-6.2-6.5l-6.1-6.6l-6-6.7l-5.8-6.8l-5.7-6.9l-5.6-7l-5.5-7.1l-5.4-7.2l-5.2-7.3l-5.1-7.4
			l-5-7.5l-4.8-7.6l-4.7-7.7l-4.6-7.8l-4.4-7.8l-4.3-7.9l-4.2-8l-4-8.1l-3.9-8.1l-3.7-8.2l-3.6-8.3l-3.4-8.3l-3.3-8.4l-3.2-8.4
			l-3-8.5l-2.9-8.5l-2.7-8.6l-2.6-8.6l-2.4-8.7l-2.3-8.7l-2.1-8.8l-1.9-8.8l-1.8-8.8l-1.6-8.9l-1.5-8.9l-1.3-8.9l-1.2-8.9l-1-8.9
			l-0.2-2.3h-419.5l-1.4,7.5l-1.1,5.3l-1.2,5.3l-1.3,5.3l-1.4,5.2l-1.4,5.2l-1.5,5.2l-1.6,5.2l-1.7,5.1l-1.8,5.1l-1.9,5.1l-2,5
			l-2.1,5l-2.2,5l-2.2,4.9l-2.3,4.9l-2.4,4.8l-2.5,4.8l-2.6,4.7l-2.7,4.7l-2.7,4.7l-2.8,4.6l-2.9,4.6l-3,4.5l-3.1,4.5l-3.1,4.4
			l-3.2,4.3l-3.3,4.3l-3.4,4.2l-3.4,4.2l-3.5,4.1l-3.6,4l-3.6,4l-3.7,3.9l-3.8,3.9l-3.9,3.8l-3.9,3.7l-4,3.6l-4,3.6l-4.1,3.5
			l-4.2,3.4l-4.2,3.4l-4.3,3.3l-4.3,3.2l-4.4,3.1l-4.5,3.1l-4.5,3l-4.6,2.9l-4.6,2.8l-4.7,2.7l-4.7,2.7l-4.7,2.6l-4.8,2.5l-4.8,2.4
			l-4.9,2.3l-4.9,2.2l-5,2.2l-5,2.1l-5,2l-5.1,1.9l-5.1,1.8l-5.1,1.7l-5.2,1.6l-5.2,1.5l-5.2,1.4l-5.2,1.4l-5.3,1.3l-5.3,1.2
			l-5.3,1.1l-5.3,1l-5.3,0.9l-5.3,0.8l-5.4,0.7l-5.4,0.6l-5.4,0.5l-5.4,0.4l-5.4,0.3l-5.4,0.2l-5.4,0.1l-5.4,0l-2.7,0l-5.4-0.1
			l-5.4-0.2l-5.4-0.3l-5.4-0.4l-5.4-0.5l-5.4-0.6l-5.4-0.7l-5.3-0.8l-5.3-0.8l-5.3-0.9l-5.3-1l-5.3-1.1l-5.3-1.2l-5.2-1.3l-5.2-1.4
			l-5.2-1.5l-5.2-1.6l-5.1-1.7l-5.1-1.8l-5.1-1.8l-5-1.9l-5-2l-5-2.1l-4.9-2.2L635,989l-4.9-2.4l-4.8-2.5l-4.8-2.5l-4.7-2.6
			l-4.7-2.7l-4.6-2.8l-4.6-2.9l-4.5-2.9l-4.5-3l-4.4-3.1l-4.4-3.2l-4.3-3.2l-4.3-3.3l-4.2-3.4l-4.1-3.5l-4.1-3.5l-4-3.6l-3.9-3.7
			l-3.9-3.8l-3.8-3.8l-3.8-3.9l-3.7-3.9l-3.6-4l-3.5-4.1l-3.5-4.1l-3.4-4.2l-3.3-4.3l-3.2-4.3l-3.2-4.4l-3.1-4.4l-3-4.5l-2.9-4.5
			l-2.9-4.6l-2.8-4.6l-2.7-4.7l-2.6-4.7l-2.5-4.8l-2.5-4.8l-2.4-4.9l-2.3-4.9l-2.2-4.9l-2.1-5l-2-5l-1.9-5l-1.8-5.1l-1.8-5.1
			l-1.7-5.1l-1.6-5.2l-1.5-5.2l-1.4-5.2l-1.3-5.2l-1.2-5.3l-1.1-5.3l-1-5.3l-0.9-5.3l-0.8-5.3l-0.8-5.3l-0.7-5.4l-0.6-5.4l-0.5-5.4
			l-0.4-5.4l-0.3-5.4l-0.2-5.4l-0.1-5.4V707l0.1-5.4l0.2-5.4l0.3-5.4l0.4-5.4l0.5-5.4l0.6-5.4l0.7-5.4l0.8-5.3l0.8-5.3l0.9-5.3
			l1-5.3l1.1-5.3l1.2-5.3l1.3-5.2l1.4-5.2l1.5-5.2l1.6-5.2l1.7-5.1l1.8-5.1l1.8-5.1l1.9-5l2-5l2.1-5l2.2-4.9l2.3-4.9l2.4-4.9
			l2.5-4.8l2.5-4.8l2.6-4.7l2.7-4.7l2.8-4.6l2.9-4.6l2.9-4.5l3-4.5l3.1-4.4l3.2-4.4l3.2-4.3l3.3-4.3l3.4-4.2l3.5-4.1l3.5-4.1l3.6-4
			l3.7-3.9l3.8-3.9l3.8-3.8l3.9-3.8l3.9-3.7l4-3.6l4.1-3.5l4.1-3.5l4.2-3.4l4.3-3.3l4.3-3.2l4.4-3.2l4.4-3.1l4.5-3l4.5-2.9l4.6-2.9
			l4.6-2.8l4.7-2.7l4.7-2.6l4.8-2.5l4.8-2.5l4.9-2.4l4.9-2.3l4.9-2.2l5-2.1l5-2l5-1.9l5.1-1.8l5.1-1.8l5.1-1.7l5.2-1.6l5.2-1.5
			l5.2-1.4l5.2-1.3l5.3-1.2l5.3-1.1l5.3-1l5.3-0.9l5.3-0.8l5.3-0.8l5.4-0.7l5.4-0.6l5.4-0.5l5.4-0.4l5.4-0.3l5.4-0.2l5.4-0.1h5.4
			l5.4,0.1l5.4,0.2l5.4,0.3l5.4,0.4l5.4,0.5l5.4,0.6l5.4,0.7l5.3,0.8l5.3,0.8l5.3,0.9l5.3,1l5.3,1.1l5.3,1.2l5.2,1.3l5.2,1.4
			l5.2,1.5l5.2,1.6l5.1,1.7l5.1,1.8l5.1,1.8l5,1.9l5,2l5,2.1l4.9,2.2l4.9,2.3l4.9,2.4l4.8,2.5l4.8,2.5l4.7,2.6l4.7,2.7l4.6,2.8
			l4.6,2.9l4.5,2.9l4.5,3l4.4,3.1l4.4,3.2l4.3,3.2l4.3,3.3l4.2,3.4l4.1,3.5l4.1,3.5l4,3.6l3.9,3.7l3.9,3.8l3.8,3.8l3.8,3.9l3.7,3.9
			l3.6,4l3.5,4.1l3.5,4.1l3.4,4.2l3.3,4.3l3.2,4.3l3.2,4.4l3.1,4.4l3,4.5l2.9,4.5l2.9,4.6l2.8,4.6l2.7,4.7l2.6,4.7l2.5,4.8l2.5,4.8
			l2.4,4.9l2.3,4.9l2.2,4.9l2.1,5l2,5l1.9,5l1.8,5.1l1.8,5.1l1.7,5.1l1.6,5.2l1.5,5.2l1.4,5.2l1.3,5.2l1.2,5.3l1.1,5.3l1,5.3
			l0.9,4.8h419.5l0.2-2.3l1-8.9l1.2-8.9l1.3-8.9l1.5-8.9l1.6-8.9l1.8-8.8l1.9-8.8l2.1-8.8l2.3-8.7l2.4-8.7l2.6-8.6l2.7-8.6l2.9-8.5
			l3-8.5l3.2-8.4l3.3-8.4l3.4-8.3l3.6-8.3l3.7-8.2l3.9-8.1l4-8.1l4.2-8l4.3-7.9l4.4-7.8l4.6-7.8l4.7-7.7l4.8-7.6l5-7.5l5.1-7.4
			l5.2-7.3l5.4-7.2l5.5-7.1l5.6-7l5.7-6.9l5.8-6.8l6-6.7l6.1-6.6l6.2-6.5l6.3-6.4l6.4-6.3l6.5-6.2l6.6-6.1l6.7-6l6.8-5.8l6.9-5.7
			l7-5.6l7.1-5.5l7.2-5.4l7.3-5.2l7.4-5.1l7.5-5l7.6-4.8l7.7-4.7l7.8-4.6l7.8-4.4l7.9-4.3l8-4.2l8.1-4l8.1-3.9l8.2-3.7l8.3-3.6
			l8.3-3.4l8.4-3.3l8.4-3.2l8.5-3l8.5-2.9l8.6-2.7l8.6-2.6l8.7-2.4l8.7-2.3l8.8-2.1l8.8-1.9l8.8-1.8l8.8-1.6l8.9-1.5l8.9-1.3
			l8.9-1.2l8.9-1l9-0.9l9-0.7l9-0.5l9-0.4l9-0.2l9-0.1l9,0.1l9,0.2l9,0.4l9,0.5l9,0.7l9,0.9l8.9,1l8.9,1.2l8.9,1.3l8.9,1.5l8.9,1.6
			l8.8,1.8l8.8,1.9l8.8,2.1l8.7,2.3l8.7,2.4l8.6,2.6l8.6,2.7l8.5,2.9l8.5,3l8.4,3.2l8.4,3.3l8.3,3.4l8.3,3.6l8.2,3.7l8.1,3.9l8.1,4
			l8,4.2l7.9,4.3l7.8,4.4l7.8,4.6l7.7,4.7l7.6,4.8l7.5,5l7.4,5.1l7.3,5.2l7.2,5.4l7.1,5.5l7,5.6l6.9,5.7l6.8,5.8l6.7,6l6.6,6.1
			l6.5,6.2l6.4,6.3l6.3,6.4l6.2,6.5l6.1,6.6l6,6.7l5.8,6.8l5.7,6.9l5.6,7l5.5,7.1l5.4,7.2l5.2,7.3l5.1,7.4l5,7.5l4.8,7.6l4.7,7.7
			l4.6,7.8h116l-4-8.6l-2.3-4.9l-2.4-4.8l-2.4-4.8l-2.5-4.8l-2.5-4.8l-2.6-4.8l-2.6-4.7l-2.6-4.7l-2.7-4.7l-2.7-4.7l-2.8-4.6
			l-2.8-4.6l-2.8-4.6l-2.9-4.6l-2.9-4.5l-3-4.5l-3-4.5l-3-4.5l-3.1-4.4l-3.1-4.4l-3.2-4.4l-3.2-4.4l-3.2-4.3l-3.3-4.3l-3.3-4.3
			l-3.3-4.2l-3.4-4.2l-3.4-4.2l-3.5-4.2l-3.5-4.1l-3.5-4.1l-3.6-4.1l-3.6-4l-3.6-4l-3.7-4l-3.7-3.9l-3.7-3.9l-3.8-3.9l-3.8-3.8
			l-3.8-3.8l-3.9-3.8l-3.9-3.7l-3.9-3.7l-4-3.7l-4-3.6l-4-3.6l-4.1-3.6l-4.1-3.5l-4.1-3.5l-4.2-3.5l-4.2-3.4l-4.2-3.4l-4.2-3.3
			l-4.3-3.3l-4.3-3.3l-4.3-3.2l-4.4-3.2l-4.4-3.2l-4.4-3.1l-4.4-3.1l-4.5-3l-4.5-3l-4.5-3l-4.5-2.9l-4.6-2.9l-4.6-2.8l-4.6-2.8
			l-4.6-2.8l-4.7-2.7l-4.7-2.7l-4.7-2.6l-4.7-2.6l-4.8-2.6l-4.8-2.5l-4.8-2.5l-4.8-2.4l-4.8-2.4l-4.9-2.3l-4.9-2.3l-4.9-2.3
			l-4.9-2.2l-4.9-2.2l-5-2.1l-5-2.1l-5-2l-5-2l-5-2l-5.1-1.9l-5.1-1.9l-5.1-1.8l-5.1-1.8l-5.1-1.7l-5.1-1.7l-5.1-1.6l-5.2-1.6
			l-5.2-1.6l-5.2-1.5l-5.2-1.5l-5.2-1.4l-5.2-1.4l-5.2-1.3l-5.2-1.3l-5.3-1.2l-5.3-1.2l-5.3-1.1l-5.3-1.1l-5.3-1.1l-5.3-1l-5.3-1
			l-5.3-0.9l-5.3-0.9l-5.3-0.8l-5.3-0.8l-5.4-0.7l-5.4-0.7l-5.4-0.6l-5.4-0.6l-5.4-0.5l-5.4-0.5l-5.4-0.4l-5.4-0.4l-5.4-0.4
			l-5.4-0.3l-5.4-0.3l-5.4-0.2l-5.4-0.2l-5.4-0.1l-5.4-0.1l-5.4,0l-5.4,0l-5.4,0.1l-5.4,0.1l-5.4,0.2l-5.4,0.2l-5.4,0.3l-5.4,0.3
			l-5.4,0.4l-5.4,0.4l-5.4,0.4l-5.4,0.5l-5.4,0.5l-5.4,0.6l-5.4,0.6l-5.4,0.7l-5.4,0.7l-5.3,0.8l-5.3,0.8l-5.3,0.9l-5.3,0.9l-5.3,1
			l-5.3,1l-5.3,1.1l-5.3,1.1l-5.3,1.1l-5.3,1.2l-5.3,1.2l-5.2,1.3l-5.2,1.3l-5.2,1.4l-5.2,1.4l-5.2,1.5l-5.2,1.5l-5.2,1.6l-5.2,1.6
			l-5.1,1.6l-5.1,1.7l-5.1,1.7l-5.1,1.8l-5.1,1.8l-5.1,1.9l-5.1,1.9l-5,2l-5,2l-5,2l-5,2.1l-5,2.1l-4.9,2.2l-4.9,2.2l-4.9,2.3
			l-4.9,2.3l-4.9,2.3l-4.8,2.4l-4.8,2.4l-4.8,2.5l-4.8,2.5l-4.8,2.6l-4.7,2.6l-4.7,2.6l-4.7,2.7l-4.7,2.7l-4.6,2.8l-4.6,2.8
			l-4.6,2.8l-4.6,2.9l-4.5,2.9l-4.5,3l-4.5,3l-4.5,3l-4.4,3.1l-4.4,3.1l-4.4,3.2l-4.4,3.2l-4.3,3.2l-4.3,3.3l-4.3,3.3l-4.2,3.3
			l-4.2,3.4l-4.2,3.4l-4.2,3.5l-4.1,3.5l-4.1,3.5l-4.1,3.6l-4,3.6l-4,3.6l-4,3.7l-3.9,3.7l-3.9,3.7l-3.9,3.8l-3.8,3.8l-3.8,3.8
			l-3.8,3.9l-3.7,3.9l-3.7,3.9l-3.7,4l-3.6,4l-3.6,4l-3.6,4.1l-3.5,4.1l-3.5,4.1l-3.5,4.2l-3.4,4.2l-3.4,4.2l-3.3,4.2l-3.3,4.3
			l-3.3,4.3l-3.2,4.3l-3.2,4.4l-3.2,4.4l-3.1,4.4l-3.1,4.4l-3,4.5l-3,4.5l-3,4.5l-2.9,4.5l-2.9,4.6l-2.8,4.6l-2.8,4.6l-2.8,4.6
			l-2.7,4.7l-2.7,4.7l-2.6,4.7l-2.6,4.7l-2.6,4.8l-2.5,4.8l-2.5,4.8l-2.4,4.8l-2.4,4.8l-2.3,4.9l-2.3,4.9l-2.3,4.9l-2.2,4.9
			l-2.2,4.9l-2.1,5l-2.1,5l-2,5l-2,5l-2,5l-1.9,5.1l-1.9,5.1l-1.8,5.1l-1.8,5.1l-1.7,5.1l-1.7,5.1l-1.6,5.1l-1.6,5.2l-1.6,5.2
			l-1.5,5.2l-1.5,5.2l-1.4,5.2l-1.4,5.5h-256.1L1148,548.5z M773.6,1328.5l5.4-0.1l5.4-0.1l5.4-0.2l5.4-0.2l5.4-0.3l5.4-0.3l5.4-0.4
			l5.4-0.4l5.4-0.4l5.4-0.5l5.4-0.5l5.4-0.6l5.4-0.6l5.4-0.7l5.4-0.7l5.3-0.8l5.3-0.8l5.3-0.9l5.3-0.9l5.3-1l5.3-1l5.3-1.1l5.3-1.1
			l5.3-1.1l5.3-1.2l5.3-1.2l5.2-1.3l5.2-1.3l5.2-1.4l5.2-1.4l5.2-1.5l5.2-1.5l5.2-1.6l5.2-1.6l5.1-1.6l5.1-1.7l5.1-1.7l5.1-1.8
			l5.1-1.8l5.1-1.9l5.1-1.9l5-2l5-2l5-2l5-2.1l5-2.1l4.9-2.2l4.9-2.2l4.9-2.3l4.9-2.3l4.9-2.3l4.8-2.4l4.8-2.4l4.8-2.5l4.8-2.5
			l4.8-2.6l4.7-2.6l4.7-2.6l4.7-2.7l4.7-2.7l4.6-2.8l4.6-2.8l4.6-2.8l4.6-2.9l4.5-2.9l4.5-3l4.5-3l4.5-3l4.4-3.1l4.4-3.1l4.4-3.2
			l4.4-3.2l4.3-3.2l4.3-3.3l4.3-3.3l4.2-3.3l4.2-3.4l4.2-3.4l4.2-3.5l4.1-3.5l4.1-3.5l4.1-3.6l4-3.6l4-3.6l4-3.7l3.9-3.7l3.9-3.7
			l3.9-3.8l3.8-3.8l3.8-3.8l3.8-3.9l3.7-3.9l3.7-3.9l3.7-4l3.6-4l3.6-4l3.6-4.1l3.5-4.1l3.5-4.1l3.5-4.2l3.4-4.2l3.4-4.2l3.3-4.2
			l3.3-4.3l3.3-4.3l3.2-4.3l3.2-4.4l3.2-4.4l3.1-4.4l3.1-4.4l3-4.5l3-4.5l3-4.5l2.9-4.5l2.9-4.6l2.8-4.6l2.8-4.6l2.8-4.6l2.7-4.7
			l2.7-4.7l2.6-4.7l2.6-4.7l2.6-4.8l2.5-4.8l2.5-4.8l2.4-4.8l2.4-4.8l2.3-4.9l4-8.6h-116l-4.6,7.8l-4.7,7.7l-4.8,7.6l-5,7.5
			l-5.1,7.4l-5.2,7.3l-5.4,7.2l-5.5,7.1l-5.6,7l-5.7,6.9l-5.8,6.8l-6,6.7l-6.1,6.6l-6.2,6.5l-6.3,6.4l-6.4,6.3l-6.5,6.2l-6.6,6.1
			l-6.7,6l-6.8,5.8l-6.9,5.7l-7,5.6l-7.1,5.5l-7.2,5.4l-7.3,5.2l-7.4,5.1l-7.5,5l-7.6,4.8l-7.7,4.7l-7.8,4.6l-7.8,4.4l-7.9,4.3
			l-8,4.2l-8.1,4l-8.1,3.9l-8.2,3.7l-8.3,3.6l-8.3,3.4l-8.4,3.3l-8.4,3.2l-8.5,3l-8.5,2.9l-8.6,2.7l-8.6,2.6l-8.7,2.4l-8.7,2.3
			l-8.8,2.1l-8.8,1.9l-8.8,1.8l-8.9,1.6l-8.9,1.5l-8.9,1.3l-8.9,1.2l-8.9,1l-9,0.9l-9,0.7l-9,0.5l-9,0.4l-9,0.2l-9,0.1l-9-0.1
			l-9-0.2l-9-0.4l-9-0.5l-9-0.7l-9-0.9l-8.9-1l-8.9-1.2l-8.9-1.3l-8.9-1.5l-8.9-1.6l-8.8-1.8l-8.8-1.9l-8.8-2.1l-8.7-2.3l-8.7-2.4
			l-8.6-2.6l-8.6-2.7l-8.5-2.9l-8.5-3l-8.4-3.2l-8.4-3.3l-8.3-3.4l-8.3-3.6l-8.2-3.7l-8.1-3.9l-8.1-4l-8-4.2l-7.9-4.3l-7.8-4.4
			l-7.8-4.6l-7.7-4.7l-7.6-4.8l-7.5-5l-7.4-5.1l-7.3-5.2l-7.2-5.4l-7.1-5.5l-7-5.6l-6.9-5.7l-6.8-5.8l-6.7-6l-6.6-6.1l-6.5-6.2
			l-6.4-6.3l-6.3-6.4l-6.2-6.5l-6.1-6.6l-6-6.7l-5.8-6.8l-5.7-6.9l-5.6-7l-5.5-7.1l-5.4-7.2l-5.2-7.3l-5.1-7.4l-5-7.5l-4.8-7.6
			l-4.7-7.7l-4.6-7.8l-4.4-7.8l-4.3-7.9l-4.2-8l-4-8.1l-3.9-8.1l-3.7-8.2l-3.6-8.3l-3.4-8.3l-3.3-8.4l-3.2-8.4l-3-8.5l-2.9-8.5
			l-2.7-8.6l-2.6-8.6l-2.4-8.7l-2.3-8.7l-2.1-8.8l-1.9-8.8l-1.8-8.8l-1.6-8.9l-1.5-8.9l-1.3-8.9l-1.2-8.9l-1-8.9l-0.9-9l-0.7-9
			l-0.5-9l-0.4-9l-0.2-9l-0.1-9l0.1-9l0.2-9l0.4-9l0.5-9l0.7-9l0.9-9l1-8.9l1.2-8.9l1.3-8.9l1.5-8.9l1.6-8.9l1.8-8.8l1.9-8.8
			l2.1-8.8l2.3-8.7l2.4-8.7l2.6-8.6l2.7-8.6l2.9-8.5l3-8.5l3.2-8.4l3.3-8.4l3.4-8.3l3.6-8.3l3.7-8.2l3.9-8.1l4-8.1l4.2-8l4.3-7.9
			l4.4-7.8l4.6-7.8l4.7-7.7l4.8-7.6l5-7.5l5.1-7.4l5.2-7.3l5.4-7.2l5.5-7.1l5.6-7l5.7-6.9l5.8-6.8l6-6.7l6.1-6.6l6.2-6.5l6.3-6.4
			l6.4-6.3l6.5-6.2l6.6-6.1l6.7-6l6.8-5.8l6.9-5.7l7-5.6l7.1-5.5l7.2-5.4l7.3-5.2l7.4-5.1l7.5-5l7.6-4.8l7.7-4.7l7.8-4.6l7.8-4.4
			l7.9-4.3l8-4.2l8.1-4l8.1-3.9l8.2-3.7l8.3-3.6l8.3-3.4l8.4-3.3l8.4-3.2l8.5-3l8.5-2.9l8.6-2.7l8.6-2.6l8.7-2.4l8.7-2.3l8.8-2.1
			l8.8-1.9l8.8-1.8l8.9-1.6l8.9-1.5l8.9-1.3l8.9-1.2l8.9-1l9-0.9l9-0.7l9-0.5l9-0.4l9-0.2l9-0.1l9,0.1l9,0.2l9,0.4l9,0.5l9,0.7
			l9,0.9l8.9,1l8.9,1.2l8.9,1.3l8.9,1.5l8.9,1.6l8.8,1.8l8.8,1.9l8.8,2.1l8.7,2.3l8.7,2.4l8.6,2.6l8.6,2.7l8.5,2.9l8.5,3l8.4,3.2
			l8.4,3.3l8.3,3.4l8.3,3.6l8.2,3.7l8.1,3.9l8.1,4l8,4.2l7.9,4.3l7.8,4.4l7.8,4.6l7.7,4.7l7.6,4.8l7.5,5l7.4,5.1l7.3,5.2l7.2,5.4
			l7.1,5.5l7,5.6l6.9,5.7l6.8,5.8l6.7,6l6.6,6.1l6.5,6.2l6.4,6.3l6.3,6.4l6.2,6.5l6.1,6.6l6,6.7l5.8,6.8l5.7,6.9l5.6,7l5.5,7.1
			l5.4,7.2l5.2,7.3l5.1,7.4l5,7.5l4.8,7.6l4.7,7.7l4.6,7.8h116l-4-8.6l-2.3-4.9l-2.4-4.8l-2.4-4.8l-2.5-4.8l-2.5-4.8l-2.6-4.8
			l-2.6-4.7l-2.6-4.7l-2.7-4.7l-2.7-4.7l-2.8-4.6l-2.8-4.6l-2.8-4.6l-2.9-4.6l-2.9-4.5l-3-4.5l-3-4.5l-3-4.5l-3.1-4.4l-3.1-4.4
			l-3.2-4.4l-3.2-4.4l-3.2-4.3l-3.3-4.3l-3.3-4.3l-3.3-4.2l-3.4-4.2l-3.4-4.2l-3.5-4.2l-3.5-4.1l-3.5-4.1l-3.6-4.1l-3.6-4l-3.6-4
			l-3.7-4l-3.7-3.9l-3.7-3.9l-3.8-3.9l-3.8-3.8l-3.8-3.8l-3.9-3.8l-3.9-3.7l-3.9-3.7l-4-3.7l-4-3.6l-4-3.6l-4.1-3.6l-4.1-3.5
			l-4.1-3.5l-4.2-3.5l-4.2-3.4l-4.2-3.4l-4.2-3.3l-4.3-3.3l-4.3-3.3l-4.3-3.2l-4.4-3.2l-4.4-3.2l-4.4-3.1l-4.4-3.1l-4.5-3l-4.5-3
			l-4.5-3l-4.5-2.9l-4.6-2.9l-4.6-2.8l-4.6-2.8l-4.6-2.8l-4.7-2.7l-4.7-2.7l-4.7-2.6l-4.7-2.6l-4.8-2.6l-4.8-2.5l-4.8-2.5l-4.8-2.4
			l-4.8-2.4l-4.9-2.3l-4.9-2.3l-4.9-2.3l-4.9-2.2l-4.9-2.2l-5-2.1l-5-2.1l-5-2l-5-2l-5-2L985,130l-5.1-1.9l-5.1-1.8l-5.1-1.8
			l-5.1-1.7l-5.1-1.7l-5.1-1.6l-5.2-1.6l-5.2-1.6l-5.2-1.5l-5.2-1.5l-5.2-1.4l-5.2-1.4l-5.2-1.3l-5.2-1.3l-5.3-1.2l-5.3-1.2
			l-5.3-1.1l-5.3-1.1l-5.3-1.1l-5.3-1l-5.3-1l-5.3-0.9l-5.3-0.9l-5.3-0.8l-5.3-0.8l-5.4-0.7l-5.4-0.7l-5.4-0.6l-5.4-0.6l-5.4-0.5
			l-5.4-0.5l-5.4-0.4l-5.4-0.4l-5.4-0.4l-5.4-0.3l-5.4-0.3l-5.4-0.2l-5.4-0.2l-5.4-0.1l-5.4-0.1l-5.4,0l-5.4,0l-5.4,0.1L752,91
			l-5.4,0.2l-5.4,0.2l-5.4,0.3l-5.4,0.3l-5.4,0.4l-5.4,0.4l-5.4,0.4l-5.4,0.5l-5.4,0.5l-5.4,0.6l-5.4,0.6l-5.4,0.7l-5.4,0.7
			l-5.3,0.8l-5.3,0.8l-5.3,0.9l-5.3,0.9l-5.3,1l-5.3,1l-5.3,1.1l-5.3,1.1l-5.3,1.1l-5.3,1.2l-5.3,1.2l-5.2,1.3l-5.2,1.3l-5.2,1.4
			l-5.2,1.4l-5.2,1.5l-5.2,1.5l-5.2,1.6l-5.2,1.6l-5.1,1.6l-5.1,1.7l-5.1,1.7l-5.1,1.8l-5.1,1.8l-5.1,1.9l-5.1,1.9l-5,2l-5,2l-5,2
			l-5,2.1l-5,2.1l-4.9,2.2l-4.9,2.2l-4.9,2.3l-4.9,2.3l-4.9,2.3l-4.8,2.4l-4.8,2.4l-4.8,2.5l-4.8,2.5l-4.8,2.6l-4.7,2.6l-4.7,2.6
			l-4.7,2.7l-4.7,2.7l-4.6,2.8l-4.6,2.8l-4.6,2.8l-4.6,2.9l-4.5,2.9l-4.5,3l-4.5,3l-4.5,3l-4.4,3.1l-4.4,3.1l-4.4,3.2l-4.4,3.2
			l-4.3,3.2l-4.3,3.3l-4.3,3.3l-4.2,3.3l-4.2,3.4l-4.2,3.4l-4.2,3.5l-4.1,3.5l-4.1,3.5l-4.1,3.6l-4,3.6l-4,3.6l-4,3.7l-3.9,3.7
			l-3.9,3.7l-3.9,3.8l-3.8,3.8l-3.8,3.8l-3.8,3.9l-3.7,3.9l-3.7,3.9l-3.7,4l-3.6,4l-3.6,4l-3.6,4.1l-3.5,4.1l-3.5,4.1l-3.5,4.2
			l-3.4,4.2l-3.4,4.2l-3.3,4.2l-3.3,4.3l-3.3,4.3l-3.2,4.3l-3.2,4.4l-3.2,4.4l-3.1,4.4l-3.1,4.4l-3,4.5l-3,4.5l-3,4.5l-2.9,4.5
			l-2.9,4.6l-2.8,4.6l-2.8,4.6l-2.8,4.6l-2.7,4.7l-2.7,4.7l-2.6,4.7l-2.6,4.7l-2.6,4.8l-2.5,4.8l-2.5,4.8l-2.4,4.8l-2.4,4.8
			l-2.3,4.9l-2.3,4.9l-2.3,4.9l-2.2,4.9l-2.2,4.9l-2.1,5l-2.1,5l-2,5l-2,5l-2,5l-1.9,5.1l-1.9,5.1l-1.8,5.1l-1.8,5.1l-1.7,5.1
			l-1.7,5.1l-1.6,5.1l-1.6,5.2l-1.6,5.2l-1.5,5.2l-1.5,5.2l-1.4,5.2l-1.4,5.2l-1.3,5.2l-1.3,5.2l-1.2,5.3l-1.2,5.3l-1.1,5.3
			l-1.1,5.3l-1.1,5.3l-1,5.3l-1,5.3l-0.9,5.3l-0.9,5.3l-0.8,5.3l-0.8,5.3l-0.7,5.4l-0.7,5.4l-0.6,5.4l-0.6,5.4l-0.5,5.4l-0.5,5.4
			l-0.4,5.4l-0.4,5.4l-0.4,5.4l-0.3,5.4l-0.3,5.4l-0.2,5.4l-0.2,5.4l-0.1,5.4l-0.1,5.4l0,5.4l0,5.4l0.1,5.4l0.1,5.4l0.2,5.4l0.2,5.4
			l0.3,5.4l0.3,5.4l0.4,5.4l0.4,5.4l0.4,5.4l0.5,5.4l0.5,5.4l0.6,5.4l0.6,5.4l0.7,5.4l0.7,5.4l0.8,5.3l0.8,5.3l0.9,5.3l0.9,5.3
			l1,5.3l1,5.3l1.1,5.3l1.1,5.3l1.1,5.3l1.2,5.3l1.2,5.3l1.3,5.2l1.3,5.2l1.4,5.2l1.4,5.2l1.5,5.2l1.5,5.2l1.6,5.2l1.6,5.2l1.6,5.1
			l1.7,5.1l1.7,5.1l1.8,5.1l1.8,5.1l1.9,5.1l1.9,5.1l2,5l2,5l2,5l2.1,5l2.1,5l2.2,4.9l2.2,4.9l2.3,4.9l2.3,4.9l2.3,4.9l2.4,4.8
			l2.4,4.8l2.5,4.8l2.5,4.8l2.6,4.8l2.6,4.7l2.6,4.7l2.7,4.7l2.7,4.7l2.8,4.6l2.8,4.6l2.8,4.6l2.9,4.6l2.9,4.5l3,4.5l3,4.5l3,4.5
			l3.1,4.4l3.1,4.4l3.2,4.4l3.2,4.4l3.2,4.3l3.3,4.3l3.3,4.3l3.3,4.2l3.4,4.2l3.4,4.2l3.5,4.2l3.5,4.1l3.5,4.1l3.6,4.1l3.6,4l3.6,4
			l3.7,4l3.7,3.9l3.7,3.9l3.8,3.9l3.8,3.8l3.8,3.8l3.9,3.8l3.9,3.7l3.9,3.7l4,3.7l4,3.6l4,3.6l4.1,3.6l4.1,3.5l4.1,3.5l4.2,3.5
			l4.2,3.4l4.2,3.4l4.2,3.3l4.3,3.3l4.3,3.3l4.3,3.2l4.4,3.2l4.4,3.2l4.4,3.1l4.4,3.1l4.5,3l4.5,3l4.5,3l4.5,2.9l4.6,2.9l4.6,2.8
			l4.6,2.8l4.6,2.8l4.7,2.7l4.7,2.7l4.7,2.6l4.7,2.6l4.8,2.6l4.8,2.5l4.8,2.5l4.8,2.4l4.8,2.4l4.9,2.3l4.9,2.3l4.9,2.3l4.9,2.2
			l4.9,2.2l5,2.1l5,2.1l5,2l5,2l5,2l5.1,1.9l5.1,1.9l5.1,1.8l5.1,1.8l5.1,1.7l5.1,1.7l5.1,1.6l5.2,1.6l5.2,1.6l5.2,1.5l5.2,1.5
			l5.2,1.4l5.2,1.4l5.2,1.3l5.2,1.3l5.3,1.2l5.3,1.2l5.3,1.1l5.3,1.1l5.3,1.1l5.3,1l5.3,1l5.3,0.9l5.3,0.9l5.3,0.8l5.3,0.8l5.4,0.7
			l5.4,0.7l5.4,0.6l5.4,0.6l5.4,0.5l5.4,0.5l5.4,0.4l5.4,0.4l5.4,0.4l5.4,0.3l5.4,0.3l5.4,0.2l5.4,0.2l5.4,0.1l5.4,0.1l5.4,0
			L773.6,1328.5z"/>
	</g>
</g>
</svg>
