<?xml version="1.0" encoding="UTF-8" standalone="no"?>
<!-- Created with Inkscape (http://www.inkscape.org/) -->

<svg
   xmlns:dc="http://purl.org/dc/elements/1.1/"
   xmlns:cc="http://creativecommons.org/ns#"
   xmlns:rdf="http://www.w3.org/1999/02/22-rdf-syntax-ns#"
   xmlns:svg="http://www.w3.org/2000/svg"
   xmlns="http://www.w3.org/2000/svg"
   xmlns:sodipodi="http://sodipodi.sourceforge.net/DTD/sodipodi-0.dtd"
   xmlns:inkscape="http://www.inkscape.org/namespaces/inkscape"
   width="726.76849mm"
   height="886.6521mm"
   viewBox="0 0 726.76849 886.65212"
   version="1.1"
   id="svg8"
   inkscape:version="0.92.4 (5da689c313, 2019-01-14)"
   sodipodi:docname="cwtv_logo_vektor.svg">
  <defs
     id="defs2" />
  <sodipodi:namedview
     id="base"
     pagecolor="#ffffff"
     bordercolor="#666666"
     borderopacity="1.0"
     inkscape:pageopacity="0.0"
     inkscape:pageshadow="2"
     inkscape:zoom="0.04375"
     inkscape:cx="-317.2685"
     inkscape:cy="705.74503"
     inkscape:document-units="mm"
     inkscape:current-layer="layer1"
     showgrid="false"
     fit-margin-top="0"
     fit-margin-left="0"
     fit-margin-right="0"
     fit-margin-bottom="0"
     inkscape:window-width="1920"
     inkscape:window-height="1241"
     inkscape:window-x="1329"
     inkscape:window-y="476"
     inkscape:window-maximized="0" />
  <metadata
     id="metadata5">
    <rdf:RDF>
      <cc:Work
         rdf:about="">
        <dc:format>image/svg+xml</dc:format>
        <dc:type
           rdf:resource="http://purl.org/dc/dcmitype/StillImage" />
        <dc:title></dc:title>
      </cc:Work>
    </rdf:RDF>
  </metadata>
  <g
     inkscape:label="Ebene 1"
     inkscape:groupmode="layer"
     id="layer1"
     transform="translate(506.32156,-771.44881)">
    <path
       style="fill:#000000;stroke-width:0.26458335"
       d="m -146.75313,1657.6604 c -0.80037,-0.2666 -1.97737,-0.7534 -2.61554,-1.0819 -0.63818,-0.3285 -35.43403,-23.4467 -77.32414,-51.3736 -41.89007,-27.927 -76.26765,-50.7764 -76.3946,-50.7764 -0.12695,0 -0.31554,1.0831 -0.4191,2.4069 -0.10356,1.3237 -0.36838,3.0204 -0.58851,3.7703 -1.34705,4.5888 -5.23558,8.4578 -9.85666,9.8073 -3.25897,0.9517 -7.71662,0.349 -10.64424,-1.4391 -3.49853,-2.1369 -147.14179,-102.9137 -148.33855,-104.0709 -1.75946,-1.7013 -3.01039,-3.7428 -3.72748,-6.0831 -0.53174,-1.7354 -0.55582,-2.3645 -0.55697,-14.5521 l -10e-4,-12.7382 -13.18258,-13.1821 c -14.2059,-14.2054 -14.54938,-14.6107 -15.51145,-18.3043 -0.36524,-1.4028 -0.40761,-20.6497 -0.40761,-185.2074 0,-161.7857 0.0469,-183.822 0.39399,-185.1546 0.97504,-3.7434 1.01862,-3.795 15.30778,-18.1148 l 13.2701,-13.29849 0.13964,-13.42439 0.13963,-13.4244 0.6914,-1.63017 c 0.87977,-2.07431 2.00413,-3.706 3.59367,-5.21525 1.62655,-1.54437 146.75748,-103.14892 149.02629,-104.33165 0.99562,-0.51902 2.63892,-1.07646 3.9026,-1.32385 1.99382,-0.39034 2.36535,-0.39138 4.29101,-0.012 1.15951,0.22844 2.77387,0.7201 3.58746,1.09258 0.81362,0.37248 5.40692,3.48918 10.20734,6.92599 4.86108,3.48025 8.88743,6.1876 9.0878,6.1107 0.19785,-0.0759 31.95222,-22.2536 70.56522,-49.28373 38.613,-27.03012 70.88082,-49.58257 71.70626,-50.11655 4.17367,-2.69992 9.46769,-2.91408 13.84501,-0.56008 0.72761,0.39129 33.2676,23.07327 72.311105,50.40442 39.043504,27.33114 71.1354741,49.63647 71.3154741,49.5674 0.18,-0.0691 4.3112499,-2.96872 9.1805699,-6.44365 5.81765,-4.15171 9.38096,-6.51987 10.39227,-6.90665 3.88517,-1.48593 7.54804,-1.30759 11.18042,0.54434 2.41036,1.22891 147.257241,102.74957 149.092181,104.49613 1.84251,1.75376 2.83245,3.30075 3.76799,5.88828 0.55469,1.53419 0.57673,2.02291 0.65608,14.55209 l 0.0821,12.96458 13.18032,13.22915 c 12.47593,12.5221 13.23192,13.3352 14.14532,15.2136 0.53072,1.0914 1.14249,2.8428 1.35948,3.892 0.34779,1.6817 0.38653,23.6139 0.32705,185.2083 -0.0653,177.3812 -0.0832,183.3477 -0.55573,184.7559 -1.25204,3.7316 -1.3561,3.8531 -15.30657,17.87 l -13.17704,13.2398 -0.004,12.1602 c -0.005,13.6611 -0.0829,14.4385 -1.76578,17.6523 -0.55189,1.0539 -1.59972,2.5228 -2.32852,3.2641 -1.31847,1.3412 -147.348971,103.7313 -149.491721,104.8169 -1.87122,0.9481 -3.84173,1.3885 -6.19959,1.3855 -3.8576,0 -6.80945,-1.2511 -9.70658,-4.0982 -2.93748,-2.8866 -4.33446,-6.2132 -4.33446,-10.3216 0,-1.8212 -0.0507,-2.0299 -0.46638,-1.9212 -0.25649,0.067 -34.933439,23.0949 -77.059894,51.1729 -49.134655,32.7491 -77.162635,51.2754 -78.181015,51.6768 -2.19152,0.864 -6.48806,1.0248 -8.59896,0.3219 z m 84.13784,-83.9175 80.168409,-53.4461 V 1266.089 1011.8811 l -38.105904,-21.77459 -38.1059,-21.77457 -1.998027,0.83179 c -10.547218,4.39081 -22.829229,0.95224 -29.982372,-8.39409 l -0.86061,-1.12448 h -51.526656 -51.52667 l -0.81333,1.12448 c -1.30366,1.80233 -4.18248,4.54479 -6.17186,5.87952 -4.23881,2.84393 -8.1362,4.10632 -13.29277,4.30561 -4.33292,0.16746 -6.83202,-0.28004 -10.90792,-1.9532 l -1.59515,-0.65481 -38.02621,21.72978 -38.02621,21.72976 v 39.8007 39.8007 l 25.99532,-0.01 25.99531,-0.01 0.73972,-0.9826 c 1.25751,-1.6703 3.94637,-4.2968 5.61028,-5.4802 4.46701,-3.1771 9.49211,-4.7626 14.94896,-4.7167 2.67004,0.023 3.80677,0.1614 5.89962,0.7209 9.66206,2.5833 16.5938,9.7864 18.86736,19.606 0.69324,2.9941 0.63773,7.685 -0.12819,10.832 -2.40437,9.8794 -10.67726,17.7143 -20.55106,19.4629 -2.65496,0.4701 -8.15861,0.2187 -10.72872,-0.4903 -5.39557,-1.4883 -10.79312,-5.122 -13.91171,-9.3656 l -0.92361,-1.2567 h -25.90665 -25.90663 l 0.008,200.3557 0.008,200.3557 80.0949,53.3797 c 44.0522,29.3588 80.18436,53.3796 80.29369,53.3797 0.1093,0 36.27453,-24.0507 80.367187,-53.446 z m -82.68264,37.6814 c -6.66829,-0.9078 -11.77401,-3.4765 -16.19631,-8.1483 -3.06133,-3.2341 -5.10103,-6.8869 -6.34846,-11.3693 -0.6785,-2.4379 -0.6568,-9.4313 0.0371,-11.9459 1.59271,-5.7722 4.84,-10.7309 9.26097,-14.1417 l 1.47278,-1.1362 v -7.8926 -7.8926 l -1.12448,-0.7781 c -1.53961,-1.0654 -4.64055,-4.3352 -5.93558,-6.2588 -3.22107,-4.7845 -4.50917,-9.5013 -4.22683,-15.4781 0.29723,-6.2919 2.4959,-11.3842 6.96764,-16.1377 3.39045,-3.6041 7.58807,-6.036 12.65362,-7.3309 9.02812,-2.3079 19.13091,1.1044 25.22398,8.5196 4.14702,5.0469 6.008,10.2071 5.96362,16.5365 -0.036,5.1319 -1.33027,9.3577 -4.21788,13.771 -1.3535,2.0687 -4.77755,5.6715 -6.17423,6.4965 l -0.81945,0.4841 0.003,8.0789 0.003,8.0789 0.97695,0.6614 c 1.66193,1.1253 4.51776,4.1955 5.99811,6.4485 1.69807,2.5843 3.12107,5.8884 3.77494,8.7651 0.73911,3.2517 0.63156,7.9888 -0.25757,11.3431 -2.91685,11.0041 -12.43952,18.7834 -23.6401,19.312 -1.42925,0.068 -2.95585,0.074 -3.39241,0.015 z m 5.1298,-14.1493 c 5.21367,-1.2019 8.76083,-5.8019 8.76083,-11.3611 0,-3.5576 -1.12295,-6.1693 -3.67673,-8.5513 -4.5149,-4.2111 -11.78827,-4.0618 -16.18475,0.3323 -5.58189,5.5789 -4.00515,15.3007 3.02546,18.6543 1.03788,0.495 2.18472,0.9528 2.54852,1.0172 1.27227,0.2253 4.3756,0.174 5.52667,-0.091 z m 2.18689,-59.0368 c 4.23976,-2.0229 6.57394,-5.7627 6.57394,-10.5326 0,-3.4273 -1.10659,-6.1132 -3.45826,-8.3937 -3.72044,-3.608 -9.73106,-4.2766 -14.23173,-1.5831 -6.17437,3.6951 -7.43204,12.4653 -2.56045,17.855 2.43795,2.6971 5.24018,3.8192 9.17858,3.6752 2.26885,-0.083 2.7713,-0.1969 4.49792,-1.0208 z m -65.39273,44.0814 c -0.3638,-0.064 -1.37583,-0.2399 -2.24896,-0.3913 -5.27925,-0.9156 -10.0218,-3.4997 -13.92655,-7.5882 -4.47016,-4.6806 -6.71798,-9.7986 -7.0295,-16.0052 l -0.15584,-3.105 -11.9979,-8.9993 -11.99788,-8.9993 -2.58159,0.689 c -2.97746,0.7947 -7.76957,0.978 -10.51907,0.4024 -5.80403,-1.2149 -10.0992,-3.6021 -14.11547,-7.845 -4.55681,-4.814 -6.92163,-10.6653 -6.91689,-17.1146 0.005,-7.098 2.29362,-12.7428 7.25493,-17.8957 6.72766,-6.9874 16.65964,-9.527 25.81597,-6.6012 7.74015,2.4732 14.00839,8.7173 16.66365,16.5992 0.62748,1.8627 1.32413,6.1094 1.32646,8.086 l 0.003,1.324 11.93668,8.9521 11.93665,8.9521 2.15241,-0.5832 c 2.72566,-0.7384 8.17192,-1 10.87033,-0.5221 5.04426,0.8933 10.31679,3.7022 13.86967,7.3891 7.07477,7.3414 9.18255,17.5831 5.55731,27.0029 -2.89751,7.5289 -9.54045,13.3913 -17.52492,15.4658 -2.38879,0.6207 -6.90149,1.0452 -8.37104,0.7875 z m 7.18439,-14.9772 c 4.16462,-1.9871 6.5827,-5.7889 6.56749,-10.3259 -0.0124,-3.6839 -1.05249,-6.2488 -3.46842,-8.5532 -4.63119,-4.4174 -11.89747,-4.3609 -16.38581,0.1274 -1.77188,1.7719 -2.77037,3.7301 -3.20198,6.2798 -0.87196,5.1509 1.66888,10.2004 6.22665,12.3745 2.36741,1.1293 2.64676,1.1824 5.76416,1.0958 2.2956,-0.064 2.75095,-0.1649 4.49791,-0.9984 z m -60.19371,-42.9163 c 2.73399,-0.7279 5.40427,-2.649 6.83702,-4.9186 1.29296,-2.0482 1.79165,-4.12 1.66137,-6.9021 -0.15624,-3.3367 -1.15922,-5.6477 -3.36354,-7.7503 -8.17954,-7.802 -21.39146,-0.9959 -19.66897,10.1323 0.59441,3.8404 2.88915,6.9947 6.25742,8.6013 1.03788,0.4951 2.18472,0.9529 2.54852,1.0173 1.45085,0.2569 4.44032,0.163 5.72818,-0.1799 z m 169.425989,57.8935 c -0.363802,-0.064 -1.375833,-0.2399 -2.248958,-0.3913 -5.178002,-0.898 -9.9695,-3.4836 -13.777441,-7.4344 -4.90878,-5.0931 -7.24958,-10.8238 -7.25492,-17.7614 -0.009,-11.3021 7.87849,-21.4895 19.02158,-24.5691 3.882575,-1.073 9.791092,-0.9724 13.704094,0.2333 l 1.374563,0.4235 12.053041,-9.0406 12.053041,-9.0407 v -2.1267 c 0,-6.1375 2.7423,-12.5229 7.395342,-17.2203 10.170557,-10.2673 25.89231,-10.3255 36.0841931,-0.1336 3.341445,3.3414 5.528975,7.1966 6.697605,11.8035 1.24376002,4.903 1.10099002,8.996 -0.48477,13.8969 -3.16618,9.7853 -12.0140631,16.7689 -22.4402871,17.7119 -2.189877,0.1981 -5.657744,-0.1507 -8.084264,-0.8132 -0.865161,-0.2361 -1.795145,-0.444 -2.066608,-0.4619 -0.271489,-0.018 -5.820674,3.956 -12.331567,8.8309 l -11.837988,8.8636 -0.156448,2.6458 c -0.679423,11.4883 -8.362421,20.9469 -19.329162,23.7963 -2.38879,0.6207 -6.901497,1.0452 -8.371046,0.7875 z m 6.614583,-14.6491 c 4.417431,-1.7715 7.14375,-5.9285 7.14375,-10.8926 0,-3.3931 -1.115271,-6.0897 -3.458263,-8.3619 -5.541592,-5.3741 -15.021692,-3.8569 -18.381768,2.9417 -3.360261,6.7991 -0.343482,14.2675 6.705256,16.5997 2.063988,0.6829 5.917592,0.5445 7.991025,-0.2869 z m 58.208334,-43.658 c 7.689506,-3.0747 9.681316,-13.5212 3.677946,-19.2898 -5.547942,-5.331 -15.026799,-3.7943 -18.374228,2.9788 -2.380773,4.8172 -1.616736,10.0689 1.991307,13.6872 2.528227,2.5354 5.025946,3.4664 8.868516,3.3055 1.645153,-0.069 2.831068,-0.2796 3.836459,-0.6817 z M -147.03301,1482.915 c -3.86321,-1.317 -6.91883,-3.9638 -8.5517,-7.4075 -0.62389,-1.3158 -9.01431,-30.3231 -26.99377,-93.3227 -14.34868,-50.2775 -26.17748,-91.5671 -26.28625,-91.7548 -0.10877,-0.1876 -1.1425,-0.7503 -2.29714,-1.2504 -4.21772,-1.8267 -8.39261,-5.2423 -10.95677,-8.964 -3.13264,-4.5468 -4.53466,-9.0137 -4.53466,-14.4475 0,-6.9225 2.35352,-12.6146 7.35173,-17.7805 3.55876,-3.6781 7.96158,-6.1173 13.11894,-7.2681 2.79988,-0.6247 7.67919,-0.5627 10.41123,0.1324 10.04713,2.5563 16.984,9.4613 19.44923,19.3599 0.77938,3.1294 0.77967,7.9754 0,11.1263 -0.88146,3.5655 -2.77728,7.5222 -4.81079,10.0404 -0.29379,0.3638 -0.53274,0.8996 -0.53105,1.1906 0.003,0.2911 8.61394,30.652 19.13827,67.4688 13.22837,46.2761 19.25132,66.9625 19.51151,67.0138 0.28636,0.056 4.98015,-16.0393 19.63161,-67.3203 l 19.25526,-67.3946 -0.5376,-0.6776 c -1.19608,-1.5075 -3.03583,-4.6312 -3.71449,-6.3069 -1.39012,-3.4324 -1.73069,-5.3851 -1.7177,-9.8488 0.0122,-4.2128 0.15515,-5.0586 1.4664,-8.6773 2.40829,-6.6464 8.2097,-12.3871 15.159884,-15.0014 4.677648,-1.7595 10.132165,-2.0558 14.847199,-0.8063 7.574201,2.0071 13.939176,7.3609 17.137698,14.4151 3.30581,7.2908 2.789925,16.433 -1.307121,23.1629 -3.003788,4.9341 -7.372721,8.6971 -12.495716,10.7626 l -1.747361,0.7045 -26.326043,92.0471 c -14.47932,50.6259 -26.56416,92.5745 -26.85521,93.2191 -1.18414,2.6226 -4.34271,5.7525 -7.01008,6.9464 -3.13597,1.4036 -6.8526,1.6458 -9.80625,0.6388 z m -51.52533,-205.7986 c 2.74405,-0.5741 5.74583,-2.6621 7.25085,-5.0436 2.26444,-3.5832 2.25132,-9.0442 -0.0305,-12.6587 -3.14102,-4.9757 -10.06072,-6.7272 -15.53786,-3.933 -1.63696,0.8351 -4.08112,3.412 -4.86937,5.1337 -1.46836,3.2073 -1.44315,7.3058 0.064,10.3972 0.8549,1.7536 3.22147,4.235 4.81365,5.0473 2.45885,1.2544 5.51056,1.6426 8.30922,1.0571 z m 116.416667,0 c 2.764129,-0.5783 5.725981,-2.627 7.2204,-4.9943 2.302986,-3.6482 2.296028,-9.0709 -0.0164,-12.7339 -2.614851,-4.1422 -7.949988,-6.155 -12.898199,-4.8662 -2.048907,0.5337 -3.265382,1.1886 -4.823831,2.5968 -4.66934,4.2192 -5.036105,11.8147 -0.797004,16.5054 2.777093,3.0729 7.036197,4.3874 11.314985,3.4922 z m -63.420837,-73.244 c -10.62701,-1.3383 -19.08088,-8.6148 -22.13218,-19.0499 -0.64733,-2.2138 -0.92806,-7.6624 -0.52692,-10.2268 0.55332,-3.5375 2.01171,-7.2088 4.08966,-10.2953 1.29503,-1.9236 4.39598,-5.1934 5.93559,-6.2588 l 1.12448,-0.7781 v -55.1529 -55.1529 h -18.74057 -18.74057 l -0.80952,1.1272 c -3.03758,4.2298 -8.38748,7.8867 -13.85007,9.4673 -2.47552,0.7163 -8.18658,1.0033 -10.63127,0.5342 -5.6773,-1.0894 -9.99369,-3.3732 -13.9668,-7.3901 -3.31793,-3.3545 -5.34011,-6.8517 -6.75135,-11.6761 -0.78607,-2.6873 -0.73469,-9.6857 0.0923,-12.5677 2.94553,-10.2655 11.56118,-17.6609 22.06252,-18.9377 8.21735,-0.9991 17.49134,2.9405 22.62468,9.6111 l 1.17075,1.5214 h 47.99095 47.990943 l 1.203483,-1.5641 c 5.080503,-6.6024 14.206167,-10.5158 22.360017,-9.5886 6.164739,0.701 11.540464,3.3418 15.777157,7.7503 2.717324,2.8277 4.504267,5.5962 5.646314,8.7479 1.352841,3.7336 1.464866,4.4211 1.456902,8.942 -0.0069,3.9626 -0.07258,4.5763 -0.710247,6.6485 -3.045778,9.8971 -10.442734,16.5731 -20.501531,18.5031 -2.434643,0.4671 -8.14959,0.1819 -10.649082,-0.5316 -4.961441,-1.4161 -10.020089,-4.729 -13.096875,-8.5772 l -1.5875,-1.9854 -15.015101,-0.017 -15.01511,-0.017 v 55.2408 55.2409 l 0.81944,0.4841 c 1.39669,0.825 4.82074,4.4278 6.17424,6.4965 2.88761,4.4133 4.1819,8.6391 4.21788,13.771 0.0269,3.834 -0.44648,6.3158 -1.86714,9.7896 -2.87252,7.0238 -8.74828,12.459 -15.959,14.7625 -3.31073,1.0576 -7.27017,1.4966 -10.18646,1.1293 z m 5.2125,-14.0685 c 2.74405,-0.5741 5.74583,-2.6621 7.25086,-5.0436 2.27176,-3.5948 2.25165,-9.0436 -0.0468,-12.6846 -3.22236,-5.1045 -10.22186,-6.7547 -15.81365,-3.7283 -1.63761,0.8864 -3.78298,3.2279 -4.61147,5.0331 -0.95724,2.0859 -1.29157,4.6947 -0.8989,7.0144 1.13689,6.7159 7.31502,10.8327 14.11997,9.409 z m -73.04809,-145.4935 c 3.48361,-0.6501 6.65623,-3.1586 8.21925,-6.4987 0.65556,-1.4009 0.84146,-2.2014 0.94893,-4.0862 0.25154,-4.4116 -1.25148,-7.7488 -4.63505,-10.2911 -3.12896,-2.3511 -8.17668,-2.8357 -11.81275,-1.1342 -7.31438,3.4228 -9.05221,13.1937 -3.35068,18.8391 2.85041,2.8223 6.56384,3.9301 10.6303,3.1711 z m 138.400177,-0.029 c 2.253351,-0.4739 4.192667,-1.5277 5.767705,-3.134 6.373522,-6.5 3.265567,-17.5167 -5.526193,-19.5886 -1.740747,-0.4103 -5.232479,-0.2165 -6.909223,0.3834 -2.856654,1.0221 -5.510425,3.6038 -6.675888,6.4945 -0.485484,1.2042 -0.587877,1.9801 -0.593434,4.498 -0.0063,2.8814 0.03818,3.1374 0.840344,4.8308 2.394558,5.0552 7.638229,7.664 13.096689,6.5159 z M -331.69688,1214.684 c 0,-268.20848 -0.0542,-314.59637 -0.36718,-314.52344 -0.20195,0.047 -26.62674,18.46969 -58.72176,40.93919 l -58.35458,40.85366 -0.0219,232.77549 -0.0219,232.7755 0.86605,0.6804 c 2.88844,2.2694 115.78066,81.0843 116.15823,81.095 0.44072,0.012 0.46302,-15.1396 0.46302,-314.5958 z m -67.16987,198.9993 c -2.43491,-1.0273 -4.66036,-2.1426 -5.08282,-2.5473 -0.67621,-0.6479 -3.69719,-5.4645 -4.86849,-7.7624 -1.2963,-2.543 0.93508,-5.8431 3.95086,-5.8431 1.93775,0 2.8093,0.7846 5.10666,4.597 l 1.57436,2.6126 2.75142,1.1476 c 2.67642,1.1163 2.83173,1.1479 5.69784,1.1577 2.90608,0.01 2.98577,-0.01 5.82083,-1.1894 l 2.87441,-1.1995 1.12448,-1.9358 c 1.08125,-1.8614 1.12437,-2.0213 1.1215,-4.1583 -0.003,-2.1506 -0.0405,-2.2857 -1.16426,-4.1743 l -1.16127,-1.9517 -2.47376,-1.0731 -2.47377,-1.0732 -4.36562,-0.1602 -4.36563,-0.1603 -4.23333,-1.7905 c -2.32833,-0.9848 -4.55607,-2.0994 -4.95053,-2.4768 -0.64578,-0.618 -3.68681,-5.4772 -4.82226,-7.7056 -0.37914,-0.7441 -0.43576,-1.5466 -0.36506,-5.1748 l 0.0837,-4.2943 2.31701,-3.8694 c 1.27436,-2.1281 2.60766,-4.098 2.9629,-4.3774 0.35524,-0.2795 2.5868,-1.3292 4.95903,-2.3328 l 4.31315,-1.8248 h 4.89479 4.89479 l 3.96875,1.6785 c 2.18281,0.9232 4.36205,1.9352 4.84276,2.249 0.89004,0.5809 4.71909,6.557 5.53957,8.6457 0.59434,1.5131 0.26586,2.7217 -1.11495,4.1025 -1.30619,1.3062 -2.5042,1.6693 -3.94194,1.1948 -1.50269,-0.4959 -2.16691,-1.1979 -3.9783,-4.2042 l -1.71577,-2.8477 -2.7261,-1.1127 c -2.68786,-1.097 -2.77065,-1.1125 -5.9011,-1.1037 -3.13567,0.01 -3.20774,0.023 -5.8173,1.1333 l -2.6423,1.1244 -1.12801,1.8362 c -1.11356,1.8128 -1.12802,1.8676 -1.12802,4.2787 0,2.4007 0.0191,2.4741 1.11524,4.2962 l 1.11525,1.8539 2.59399,1.0714 2.594,1.0714 3.63295,0.01 c 3.12521,0.01 3.8733,0.092 5.35274,0.6213 3.3542,1.201 7.73028,3.1597 8.4931,3.8016 0.42551,0.3581 1.81403,2.389 3.08559,4.5133 l 2.31193,3.8623 v 4.3939 4.3938 l -2.29026,3.8224 c -1.25964,2.1022 -2.57517,4.0885 -2.92341,4.4138 -0.34822,0.3253 -2.63298,1.4266 -5.07723,2.4474 l -4.44408,1.8559 -4.80334,-0.01 -4.80334,-0.01 -4.33133,-1.8274 z m -1.04617,-94.4152 c -2.37554,-0.993 -4.72207,-2.1269 -5.21451,-2.5198 -0.51411,-0.4103 -1.8858,-2.3691 -3.22146,-4.6004 l -2.32612,-3.8859 v -17.0798 -17.0798 l 2.38125,-3.9358 c 1.30969,-2.1647 2.73844,-4.2056 3.175,-4.5354 0.43656,-0.3298 2.57969,-1.3564 4.7625,-2.2812 l 3.96875,-1.6815 4.93902,-0.083 4.93901,-0.083 3.92453,1.6111 c 5.97832,2.4542 5.60974,2.152 8.53028,6.9931 l 2.53799,4.2069 v 16.8275 c 0,15.9381 -0.0262,16.8764 -0.49533,17.7534 -1.13989,2.1311 -3.99045,6.7926 -4.50524,7.3674 -0.69101,0.7715 -1.17484,1.023 -5.81409,3.0216 l -3.73742,1.6101 -4.7625,0.09 -4.7625,0.09 z m 14.66923,-8.0547 2.69562,-1.1214 1.21622,-2.0294 1.21622,-2.0295 -8e-4,-14.7748 -7.9e-4,-14.7747 -1.25594,-2.0849 -1.25593,-2.0849 -2.77812,-1.147 c -2.68343,-1.1079 -2.87598,-1.1473 -5.6487,-1.1562 -2.75533,-0.01 -2.97839,0.034 -5.55625,1.0727 -1.47712,0.5951 -2.82482,1.197 -2.99489,1.3375 -0.17007,0.1405 -0.79515,1.0734 -1.38906,2.0731 l -1.07985,1.8177 0.003,14.9026 0.003,14.9028 1.17838,1.9843 1.17838,1.9844 2.58895,1.1058 c 2.56216,1.0943 2.62305,1.106 5.88699,1.1245 3.29612,0.019 3.29964,0.018 5.99368,-1.1026 z m -26.75423,-85.1758 c -1.83118,-1.0083 -2.99727,-3.0826 -2.61039,-4.6435 0.33769,-1.3625 19.4147,-52.0323 19.82672,-52.6611 0.52238,-0.7973 1.85139,-1.6064 2.99271,-1.822 1.16102,-0.2194 2.91924,0.6136 3.81041,1.8052 0.82501,1.1032 20.03367,52.3105 20.03367,53.4068 0,1.0923 -0.87944,2.7358 -1.82383,3.4082 -1.70138,1.2115 -3.73801,1.0358 -5.27592,-0.4552 -0.90262,-0.8751 -1.346,-1.8785 -4.14667,-9.3838 l -3.13598,-8.404 -9.00521,0.07 -9.00522,0.07 -3.12596,8.3281 c -3.18968,8.4978 -3.63327,9.3561 -5.28005,10.2164 -0.84606,0.442 -2.50996,0.4756 -3.25428,0.066 z m 26.05827,-27.9368 c -0.006,-0.9069 -4.96948,-13.6918 -5.34496,-13.7682 -0.26542,-0.054 -1.11432,1.9034 -2.93656,6.7711 -1.40977,3.766 -2.56321,6.9851 -2.56321,7.1536 0,0.2223 1.48992,0.3065 5.42395,0.3065 4.9905,0 5.42371,-0.037 5.42078,-0.463 z m -22.61869,-63.4142 c -0.58208,-0.3503 -1.29646,-1.0338 -1.5875,-1.5189 -0.51826,-0.8638 -0.53064,-1.4181 -0.60037,-26.8964 -0.0485,-17.7042 0.0184,-26.347 0.20914,-27.0555 0.3529,-1.3106 1.79996,-2.7787 3.08987,-3.1349 1.87658,-0.5181 3.87133,0.4594 4.84937,2.3766 0.49423,0.9687 0.52178,1.5961 0.52178,11.8812 v 10.8585 h 10.98021 10.98021 v -10.8565 c 0,-11.6354 0.0292,-11.9182 1.35857,-13.1419 0.97416,-0.8967 2.50964,-1.4445 3.51836,-1.2553 1.066,0.2 2.64038,1.4488 3.26452,2.5894 0.42288,0.7728 0.4636,2.7385 0.53796,25.9715 0.0443,13.8245 0.007,25.7545 -0.0835,26.5112 -0.29524,2.4769 -2.11825,4.3128 -4.28254,4.3128 -1.46839,0 -2.4953,-0.5268 -3.43979,-1.7648 l -0.74128,-0.9715 -0.0743,-11.3319 -0.0743,-11.3318 h -10.97205 -10.97204 v 10.8967 c 0,10.5402 -0.0182,10.9343 -0.55746,12.0482 -1.13938,2.3537 -3.71623,3.1423 -5.92483,1.8133 z m 6.21771,-95.6659 c -2.4011,-1.0178 -4.65127,-2.0633 -5.00039,-2.3233 -0.6436,-0.4793 -4.49828,-6.5788 -5.2076,-8.2404 -0.32825,-0.7689 -0.37581,-3.4492 -0.31486,-17.7414 l 0.0718,-16.83565 2.29025,-3.82213 c 1.25965,-2.10217 2.56997,-4.0834 2.91183,-4.40274 0.34186,-0.31934 2.52593,-1.39075 4.85349,-2.38091 l 4.23193,-1.80029 4.89873,-0.0819 4.89874,-0.0819 4.48541,1.87316 c 2.48202,1.03652 4.80956,2.18371 5.21116,2.56847 0.65575,0.62825 3.69024,5.47673 4.84276,7.73772 1.27328,2.4979 -0.89228,5.85033 -3.8051,5.89055 -2.00604,0.0277 -3.0203,-0.8794 -5.31236,-4.75104 l -1.43089,-2.417 -2.57801,-1.0699 c -2.56308,-1.0637 -2.59799,-1.06989 -6.02926,-1.06989 -3.42944,0 -3.46757,0.007 -6.03601,1.06914 l -2.58476,1.06914 -1.12448,1.93388 -1.12448,1.93388 0.007,15.05481 0.007,15.0548 1.13766,1.8521 1.13767,1.852 2.62534,1.1184 2.62536,1.1184 3.43958,-0.016 3.43958,-0.016 2.51262,-1.1074 2.51262,-1.1074 1.76888,-2.9057 c 2.0786,-3.4145 3.0113,-4.1981 4.99687,-4.1981 1.04245,0 1.48878,0.1552 2.29238,0.7972 0.54883,0.4386 1.20606,1.2056 1.46049,1.7046 0.88547,1.7365 0.67199,2.4763 -1.98396,6.8753 -1.34607,2.2295 -2.74505,4.2691 -3.10886,4.5324 -0.3638,0.2634 -2.50692,1.2748 -4.7625,2.2475 l -4.10104,1.7686 -4.89479,0.083 -4.89479,0.083 -4.36563,-1.8507 z m 507.28282,449.3937 58.13176,-40.6926 V 1214.8096 981.89723 L 104.8472,941.13786 C 72.822479,918.72021 46.450139,900.3785 46.241989,900.3785 c -0.328,0 -0.37846,41.92165 -0.37846,314.4882 0,302.0213 0.0188,314.4832 0.47345,314.3643 0.2604,-0.068 26.63275,-18.4355 58.605211,-40.8165 z m -1.56377,-116.9139 c -0.45416,-0.2057 -1.16853,-0.8235 -1.5875,-1.3727 l -0.76176,-0.9987 -0.0703,-24.0316 -0.0703,-24.0316 -5.750561,-0.01 c -5.04373,0 -5.88447,-0.067 -6.83964,-0.5003 -1.18846,-0.5397 -2.3373,-1.854 -2.62363,-3.0013 -0.45194,-1.811 0.67974,-3.8345 2.64339,-4.7265 0.99865,-0.4536 2.11178,-0.4861 16.845841,-0.4915 17.44374,-0.01 16.89679,-0.057 18.43558,1.6959 1.50072,1.7092 1.38722,4.0485 -0.27236,5.6125 -1.35887,1.2806 -2.14688,1.417 -8.18237,1.417 h -5.51677 l -0.0116,22.9526 c -0.006,12.624 -0.11176,23.4716 -0.23429,24.1058 -0.40617,2.1024 -1.89323,3.4938 -3.90166,3.6506 -0.74594,0.058 -1.61967,-0.056 -2.10222,-0.2744 z m -7.237021,-85.0933 c -2.39723,-1.0113 -4.65941,-2.0631 -5.02708,-2.3374 -0.36766,-0.2743 -1.74006,-2.272 -3.04975,-4.4393 -2.1686,-3.5888 -2.38125,-4.0606 -2.38125,-5.2841 0,-1.6883 0.99317,-3.1121 2.69635,-3.8655 2.39826,-1.0609 4.05011,-0.066 6.4109,3.8622 0.93443,1.5547 1.8274,2.9099 1.98438,3.0117 0.157,0.1017 1.34525,0.6319 2.64057,1.1782 2.299781,0.97 2.433401,0.9934 5.688541,0.9962 3.29472,0 3.36418,-0.01 5.98122,-1.0778 l 2.64782,-1.0806 1.1225,-1.9252 c 1.09468,-1.8776 1.12233,-1.9837 1.11521,-4.2801 -0.007,-2.3046 -0.0315,-2.3941 -1.14098,-4.1994 -1.10795,-1.8027 -1.18748,-1.8686 -3.49843,-2.8975 l -2.36474,-1.0529 -4.36563,-0.1553 -4.36562,-0.1554 -4.186661,-1.7716 c -2.30264,-0.9744 -4.5053,-1.9997 -4.89479,-2.2783 -0.38947,-0.2787 -1.58764,-1.9588 -2.66261,-3.7337 -3.13076,-5.1691 -2.98895,-4.7033 -2.89206,-9.4999 l 0.084,-4.1585 2.32328,-3.8799 c 1.37854,-2.3021 2.66962,-4.1374 3.175,-4.5133 0.46845,-0.3485 2.79154,-1.4306 5.16242,-2.4048 l 4.310731,-1.7712 4.8174,0.084 4.81743,0.084 3.96875,1.6811 c 2.18281,0.9246 4.35488,1.9714 4.82684,2.3261 1.25429,0.9426 5.6242,8.3653 5.6242,9.5531 0,2.7206 -2.69285,4.8961 -5.25545,4.2456 -1.42708,-0.3622 -2.36813,-1.3608 -4.18293,-4.4385 l -1.54183,-2.6148 -2.64583,-1.0809 c -2.61747,-1.0692 -2.68172,-1.0807 -5.99282,-1.0779 -3.24583,0 -3.41778,0.032 -5.688541,0.97 -1.28786,0.532 -2.48071,1.0743 -2.65078,1.2052 -0.17007,0.1309 -0.79515,1.0559 -1.38906,2.0556 -1.0372,1.7459 -1.07985,1.9069 -1.07985,4.0771 0,2.2098 0.0262,2.3024 1.18653,4.2139 l 1.18655,1.9543 2.45147,1.0316 c 2.427711,1.0216 2.493851,1.0331 6.817121,1.1893 l 4.36563,0.1577 4.10104,1.7609 c 2.25557,0.9685 4.39869,1.9818 4.7625,2.2517 0.3638,0.2699 1.73302,2.264 3.04271,4.4313 l 2.38125,3.9407 v 4.512 4.512 l -2.32328,3.8813 c -1.37936,2.3043 -2.66933,4.1387 -3.175,4.5148 -0.46845,0.3484 -2.77387,1.4232 -5.12316,2.3885 l -4.27146,1.7549 -4.59208,-0.01 -4.59211,-0.01 -4.358591,-1.8388 z m -3.97578,-89.3538 c -0.93528,-0.3594 -1.90024,-1.2509 -2.38723,-2.2055 -0.51083,-1.0013 -0.52319,-1.6483 -0.52319,-27.3922 0,-26.1046 0.005,-26.3763 0.54327,-27.3333 0.29879,-0.5317 0.97457,-1.2622 1.50172,-1.6235 l 0.95848,-0.657 14.275861,-0.073 c 14.06117,-0.072 14.29324,-0.064 15.42976,0.4857 1.47719,0.7151 2.26817,1.8361 2.42152,3.432 0.151,1.5715 -0.66376,3.1789 -2.04761,4.0396 -0.92253,0.5737 -1.10636,0.5833 -12.64394,0.6588 l -11.707811,0.077 v 8.324 8.3239 H 109.0328 c 7.12756,0 11.4218,0.1036 12.10469,0.2893 3.8803,1.055 4.47212,6.1023 0.92758,7.9106 -0.99222,0.5062 -1.55525,0.5299 -12.55871,0.5299 H 97.986449 v 8.3344 8.3344 l 10.781771,0.012 c 5.92997,0.01 11.30067,0.1117 11.93488,0.2343 2.16037,0.4173 3.74168,2.1805 3.74168,4.172 0,1.4685 -0.52686,2.4954 -1.76487,3.4398 l -0.97166,0.7413 -14.57288,0.049 c -8.015071,0.027 -14.751471,-0.02 -14.969751,-0.1039 z m -7.54063,-87.4985 c -1.02243,-0.4544 -1.85404,-1.3666 -2.36863,-2.5982 -0.36028,-0.8622 -0.40881,-4.0898 -0.40367,-26.8516 0.006,-24.5378 0.0308,-25.926 0.49178,-26.9298 1.60171,-3.488 5.95577,-3.56 7.70691,-0.1275 0.51017,1 0.52674,1.5816 0.52674,18.5055 0,13.8023 0.0695,17.4729 0.33073,17.4725 0.1819,-2e-4 2.77151,-4.0659 5.75468,-9.0348 5.677621,-9.457 6.090981,-9.9865 8.122901,-10.4055 1.01118,-0.2085 2.83755,0.5259 3.67892,1.4794 0.30636,0.3472 2.79281,4.3817 5.52543,8.9656 2.73261,4.5839 5.16085,8.4884 5.3961,8.6766 0.39274,0.3144 0.43849,-1.0907 0.55999,-17.1979 0.14914,-19.7739 0.0486,-18.8488 2.20485,-20.2758 2.08584,-1.3803 4.71154,-0.686 5.98686,1.5831 0.54422,0.9683 0.54665,1.109 0.47712,27.6535 l -0.0699,26.6803 -0.6176,0.8659 c -1.43951,2.0182 -4.20727,2.4546 -6.02755,0.9503 -0.61791,-0.5107 -3.39905,-4.9002 -8.52588,-13.4567 -4.18483,-6.9844 -7.78163,-12.7318 -7.99285,-12.772 -0.2549,-0.049 -2.87517,4.0858 -7.792381,12.295 -4.07458,6.8025 -7.75342,12.7643 -8.1752,13.2485 -1.39258,1.5987 -3.06019,2.0422 -4.78938,1.2736 z m -312.594539,7.5152 c 3.55335,-0.6738 6.68456,-3.1187 8.19718,-6.4004 0.74401,-1.6141 0.89059,-2.2684 0.99164,-4.4265 0.13094,-2.7964 -0.36857,-4.8541 -1.68421,-6.9383 -3.8155,-6.0441 -12.67632,-7.0562 -17.96738,-2.0521 -4.47587,4.2331 -4.72477,11.6735 -0.54517,16.2983 2.73836,3.0301 6.77746,4.3213 11.00794,3.519 z M -272.6607,961.93169 c 16.64338,-9.51096 30.29458,-17.46419 30.33599,-17.67385 0.0761,-0.38523 -60.14572,-43.61476 -60.75844,-43.61476 -0.22667,0 -0.30332,9.92902 -0.30332,39.29063 0,22.40885 0.0999,39.29063 0.23255,39.29063 0.1279,0 13.84985,-7.7817 30.49322,-17.29265 z M 17.553119,939.9153 c 0,-37.92187 -0.0169,-39.30604 -0.48337,-39.22448 -0.77441,0.13546 -60.903221,43.17688 -60.832101,43.54485 0.06794,0.35139 60.415781,34.96664 60.984741,34.98057 0.26313,0.007 0.33073,-8.02579 0.33073,-39.30094 z m -230.474999,16.94082 c 3.44548,-0.81216 6.21337,-3.08816 7.7507,-6.37332 0.69308,-1.4811 0.8417,-2.15978 0.94203,-4.30174 0.0997,-2.12918 0.0249,-2.82083 -0.45919,-4.2487 -1.25238,-3.6936 -3.81704,-6.26511 -7.39621,-7.41597 -2.72648,-0.87668 -6.10905,-0.69115 -8.59317,0.47131 -7.31157,3.42149 -9.04581,13.21851 -3.33438,18.83663 3.01093,2.96176 6.88927,4.022 11.09022,3.03179 z m 145.025242,0.14119 c 2.937245,-0.55704 5.996278,-2.60977 7.556023,-5.07038 1.705928,-2.69119 2.181649,-6.78587 1.169274,-10.06364 -1.071775,-3.46996 -3.965046,-6.3244 -7.498239,-7.39758 -1.490504,-0.45272 -2.281052,-0.53034 -4.316915,-0.42385 -2.190486,0.11458 -2.728728,0.24721 -4.444736,1.0953 -5.917671,2.92468 -8.09416,9.78921 -5.054097,15.94036 2.229988,4.51207 7.340229,6.91514 12.58869,5.91979 z m -22.686566,-26.66439 c 4.38994,-5.83094 11.429206,-9.66305 18.839445,-10.25599 2.226707,-0.17817 5.473541,0.16094 7.852224,0.82013 3.269007,0.90592 0.735939,2.41087 24.484807,-14.54695 12.517252,-8.93791 21.405797,-15.45479 21.451623,-15.72785 0.05913,-0.35233 -15.191105,-11.15481 -62.422617,-44.21693 l -62.500858,-43.7507 -0.85706,0.50933 c -0.47141,0.28013 -28.66594,19.97605 -62.65455,43.7687 -36.2113,25.34858 -61.79405,43.4237 -61.78915,43.65625 0.008,0.37672 42.26174,30.72567 43.03874,30.91271 0.20277,0.0488 1.6411,-0.24315 3.1963,-0.6488 2.38934,-0.62324 3.34023,-0.73546 6.13492,-0.72404 3.72078,0.0152 6.09602,0.45236 9.22162,1.69725 4.09163,1.62965 7.95687,4.45307 10.58945,7.7352 l 1.42251,1.77352 51.62645,-0.01 51.626424,-0.01 0.739722,-0.98254 z"
       id="path4544"
       inkscape:connector-curvature="0" />
  </g>
</svg>
