<?xml version="1.0" encoding="UTF-8" standalone="no"?>
<!-- Created with Inkscape (http://www.inkscape.org/) -->
<svg
   xmlns:dc="http://purl.org/dc/elements/1.1/"
   xmlns:cc="http://creativecommons.org/ns#"
   xmlns:rdf="http://www.w3.org/1999/02/22-rdf-syntax-ns#"
   xmlns:svg="http://www.w3.org/2000/svg"
   xmlns="http://www.w3.org/2000/svg"
   xmlns:sodipodi="http://sodipodi.sourceforge.net/DTD/sodipodi-0.dtd"
   xmlns:inkscape="http://www.inkscape.org/namespaces/inkscape"
   width="717.09705"
   height="167.87062"
   id="svg5678"
   sodipodi:version="0.32"
   inkscape:version="0.46"
   version="1.0"
   sodipodi:docname="c-base-schriftzug.svg"
   inkscape:output_extension="org.inkscape.output.svg.inkscape">
  <defs
     id="defs5680">
    <inkscape:perspective
       sodipodi:type="inkscape:persp3d"
       inkscape:vp_x="0 : 526.18109 : 1"
       inkscape:vp_y="0 : 1000 : 0"
       inkscape:vp_z="744.09448 : 526.18109 : 1"
       inkscape:persp3d-origin="372.04724 : 350.78739 : 1"
       id="perspective5686" />
  </defs>
  <sodipodi:namedview
     id="base"
     pagecolor="#ffffff"
     bordercolor="#666666"
     borderopacity="1.0"
     inkscape:pageopacity="0.0"
     inkscape:pageshadow="2"
     inkscape:zoom="0.75721969"
     inkscape:cx="358.54852"
     inkscape:cy="83.93531"
     inkscape:document-units="px"
     inkscape:current-layer="layer1"
     showgrid="false"
     inkscape:window-width="1280"
     inkscape:window-height="720"
     inkscape:window-x="0"
     inkscape:window-y="0" />
  <metadata
     id="metadata5683">
    <rdf:RDF>
      <cc:Work
         rdf:about="">
        <dc:format>image/svg+xml</dc:format>
        <dc:type
           rdf:resource="http://purl.org/dc/dcmitype/StillImage" />
      </cc:Work>
    </rdf:RDF>
  </metadata>
  <g
     inkscape:label="Ebene 1"
     inkscape:groupmode="layer"
     id="layer1"
     transform="translate(-14.308632,-857.10718)">
    <g
       id="g5723"
       transform="matrix(2.8205529,0,0,2.8205529,-26.049619,-1866.0263)"
       style="fill:#000000;fill-opacity:1;stroke:none;stroke-opacity:1">
      <path
         d="M 21.134881,1021.7395 C 21.134881,1022.714 21.074761,1022.9989 19.905511,1022.9989 C 18.931011,1022.9989 18.721011,1022.804 18.721011,1020.96 C 18.721011,1019.161 18.991011,1018.9061 19.905511,1018.9061 C 20.445131,1018.9061 20.745011,1018.9661 20.924881,1019.1311 C 21.104761,1019.2959 21.149761,1019.5509 21.134881,1019.9706 L 23.713261,1019.9706 C 23.713261,1017.1671 22.169261,1016.9273 19.905511,1016.9273 C 16.682141,1016.9273 16.142511,1018.2915 16.142511,1020.96 C 16.142511,1024.0634 16.862141,1024.9778 19.905511,1024.9778 C 21.299631,1024.9778 22.244131,1024.9029 22.843891,1024.453 C 23.458511,1024.0183 23.713261,1023.2089 23.713261,1021.7395 L 21.134881,1021.7395 z"
         style="fill:#000000;fill-opacity:1;fill-rule:evenodd;stroke:none;stroke-opacity:1"
         id="path4414" />
      <path
         d="M 32.351261,1024.8879 L 32.351261,1017.0171 L 29.772761,1017.0171 L 29.772761,1021.8595 C 29.772761,1022.6391 29.008131,1022.9989 28.318391,1022.9989 C 27.448881,1022.9989 27.374011,1022.4293 27.374011,1021.7096 L 27.374011,1017.0171 L 24.795381,1017.0171 L 24.795381,1022.3993 C 24.795381,1024.3181 25.904761,1024.9778 27.463881,1024.9778 C 28.558261,1024.9778 29.457881,1024.5881 29.817761,1023.3736 L 29.937631,1023.3736 L 29.847641,1024.8879 L 32.351261,1024.8879 z"
         style="fill:#000000;fill-opacity:1;fill-rule:evenodd;stroke:none;stroke-opacity:1"
         id="path4416" />
      <path
         d="M 36.718511,1013.644 L 34.139891,1013.644 L 34.139891,1024.8879 L 36.718511,1024.8879 L 36.718511,1013.644 z"
         style="fill:#000000;fill-opacity:1;fill-rule:evenodd;stroke:none;stroke-opacity:1"
         id="path4418" />
      <path
         d="M 44.318141,1017.0171 L 41.334761,1017.0171 L 41.334761,1015.3531 L 38.756131,1015.3531 L 38.756131,1017.0171 L 37.796631,1017.0171 L 37.796631,1018.9061 L 38.756131,1018.9061 L 38.756131,1022.789 C 38.756131,1024.768 40.120381,1024.9778 41.769511,1024.9778 C 43.868261,1024.9778 44.663011,1024.498 44.663011,1022.3541 L 44.663011,1021.6496 L 42.609011,1021.6496 L 42.594011,1022.0695 C 42.564011,1022.6091 42.594011,1023.0889 41.919511,1023.0889 C 41.439761,1023.0889 41.349641,1022.8939 41.334761,1022.4293 L 41.334761,1018.9061 L 44.318141,1018.9061 L 44.318141,1017.0171 z"
         style="fill:#000000;fill-opacity:1;fill-rule:evenodd;stroke:none;stroke-opacity:1"
         id="path4420" />
      <path
         d="M 53.180881,1024.8879 L 53.180881,1017.0171 L 50.602261,1017.0171 L 50.602261,1021.8595 C 50.602261,1022.6391 49.837761,1022.9989 49.148141,1022.9989 C 48.278511,1022.9989 48.203631,1022.4293 48.203631,1021.7096 L 48.203631,1017.0171 L 45.625011,1017.0171 L 45.625011,1022.3993 C 45.625011,1024.3181 46.734391,1024.9778 48.293511,1024.9778 C 49.388011,1024.9778 50.287391,1024.5881 50.647131,1023.3736 L 50.767141,1023.3736 L 50.677261,1024.8879 L 53.180881,1024.8879 z"
         style="fill:#000000;fill-opacity:1;fill-rule:evenodd;stroke:none;stroke-opacity:1"
         id="path4422" />
      <path
         d="M 59.107261,1020.4504 L 61.431011,1020.4504 L 61.431011,1019.8356 C 61.431011,1018.3964 61.281011,1016.9273 59.482011,1016.9273 C 58.522511,1016.9273 57.848011,1017.2721 57.503261,1018.1716 L 57.398261,1018.1716 L 57.398261,1017.0171 L 54.894631,1017.0171 L 54.894631,1024.8879 L 57.473261,1024.8879 L 57.473261,1020.1655 C 57.473261,1019.5208 57.653141,1018.9061 58.432631,1018.9061 C 59.137261,1018.9061 59.107261,1019.5208 59.107261,1020.0754 L 59.107261,1020.4504 z"
         style="fill:#000000;fill-opacity:1;fill-rule:evenodd;stroke:none;stroke-opacity:1"
         id="path4424" />
      <path
         d="M 64.928761,1019.9706 C 64.958761,1018.9361 65.243631,1018.7263 66.158011,1018.7263 C 67.027641,1018.7263 67.462391,1018.8011 67.462391,1019.9706 L 64.928761,1019.9706 z M 67.507381,1022.2643 C 67.507381,1023.0889 66.997641,1023.1788 66.203011,1023.1788 C 65.138761,1023.1788 64.928761,1022.774 64.928761,1021.3948 L 70.040881,1021.3948 L 70.040881,1020.96 C 70.040881,1017.7519 69.156381,1016.9273 66.203011,1016.9273 C 63.039761,1016.9273 62.350261,1017.9318 62.350261,1020.96 C 62.350261,1023.8984 63.099891,1024.9778 66.203011,1024.9778 C 67.342391,1024.9778 68.301891,1024.8879 68.976631,1024.513 C 69.651261,1024.1233 70.040881,1023.4488 70.040881,1022.2643 L 67.507381,1022.2643 z"
         style="fill:#000000;fill-opacity:1;fill-rule:evenodd;stroke:none;stroke-opacity:1"
         id="path4426" />
      <path
         d="M 81.365261,1021.7395 C 81.365261,1022.714 81.305261,1022.9989 80.136011,1022.9989 C 79.161391,1022.9989 78.951631,1022.804 78.951631,1020.96 C 78.951631,1019.161 79.221381,1018.9061 80.136011,1018.9061 C 80.675511,1018.9061 80.975511,1018.9661 81.155261,1019.1311 C 81.335391,1019.2959 81.380261,1019.5509 81.365261,1019.9706 L 83.943881,1019.9706 C 83.943881,1017.1671 82.399641,1016.9273 80.136011,1016.9273 C 76.912761,1016.9273 76.373011,1018.2915 76.373011,1020.96 C 76.373011,1024.0634 77.092631,1024.9778 80.136011,1024.9778 C 81.530261,1024.9778 82.474511,1024.9029 83.074261,1024.453 C 83.689011,1024.0183 83.943881,1023.2089 83.943881,1021.7395 L 81.365261,1021.7395 z"
         style="fill:#000000;fill-opacity:1;fill-rule:evenodd;stroke:none;stroke-opacity:1"
         id="path4428" />
      <path
         d="M 88.698881,1016.9273 C 85.415761,1016.9273 84.771011,1017.7368 84.771011,1020.96 C 84.771011,1024.1084 85.475641,1024.9778 88.698881,1024.9778 C 91.967011,1024.9778 92.641631,1024.1983 92.641631,1020.96 C 92.641631,1017.6319 91.997011,1016.9273 88.698881,1016.9273 z M 88.743761,1018.9061 C 89.943141,1018.9061 90.063141,1019.251 90.063141,1020.96 C 90.063141,1022.6691 89.943141,1022.9989 88.743761,1022.9989 C 87.499641,1022.9989 87.349641,1022.6691 87.349641,1020.96 C 87.349641,1019.251 87.499641,1018.9061 88.743761,1018.9061 z"
         style="fill:#000000;fill-opacity:1;fill-rule:evenodd;stroke:none;stroke-opacity:1"
         id="path4430" />
      <path
         d="M 94.023391,1017.0171 L 94.023391,1024.8879 L 96.601891,1024.8879 L 96.601891,1020.4203 C 96.601891,1019.4758 96.796761,1018.9061 97.861261,1018.9061 C 98.760761,1018.9061 98.805761,1019.4009 98.835641,1020.1205 L 98.835641,1024.8879 L 101.41426,1024.8879 L 101.41426,1020.4203 C 101.41426,1019.5808 101.60913,1018.9061 102.61364,1018.9061 C 103.61801,1018.9061 103.60314,1019.5059 103.64801,1020.3304 L 103.64801,1024.8879 L 106.22676,1024.8879 L 106.22676,1019.5059 C 106.22676,1017.6768 105.29713,1016.9273 103.48314,1016.9273 C 102.49363,1016.9273 101.42939,1017.347 101.29426,1018.4714 L 101.17439,1018.4714 C 101.03951,1017.1221 99.900141,1016.9273 98.790761,1016.9273 C 97.906261,1016.9273 96.946761,1017.197 96.632011,1018.1266 L 96.527011,1018.1266 L 96.527011,1017.0171 L 94.023391,1017.0171 z"
         style="fill:#000000;fill-opacity:1;fill-rule:evenodd;stroke:none;stroke-opacity:1"
         id="path4432" />
      <path
         d="M 107.95814,1017.0171 L 107.95814,1024.8879 L 110.53676,1024.8879 L 110.53676,1020.4203 C 110.53676,1019.4758 110.73151,1018.9061 111.79601,1018.9061 C 112.69551,1018.9061 112.74051,1019.4009 112.77038,1020.1205 L 112.77038,1024.8879 L 115.34901,1024.8879 L 115.34901,1020.4203 C 115.34901,1019.5808 115.54401,1018.9061 116.54839,1018.9061 C 117.55288,1018.9061 117.53788,1019.5059 117.58288,1020.3304 L 117.58288,1024.8879 L 120.16139,1024.8879 L 120.16139,1019.5059 C 120.16139,1017.6768 119.23189,1016.9273 117.41801,1016.9273 C 116.42839,1016.9273 115.36401,1017.347 115.22913,1018.4714 L 115.10913,1018.4714 C 114.97426,1017.1221 113.83488,1016.9273 112.72538,1016.9273 C 111.84101,1016.9273 110.88151,1017.197 110.56663,1018.1266 L 110.46176,1018.1266 L 110.46176,1017.0171 L 107.95814,1017.0171 z"
         style="fill:#000000;fill-opacity:1;fill-rule:evenodd;stroke:none;stroke-opacity:1"
         id="path4434" />
      <path
         d="M 129.34376,1024.8879 L 129.34376,1017.0171 L 126.76513,1017.0171 L 126.76513,1021.8595 C 126.76513,1022.6391 126.00064,1022.9989 125.31101,1022.9989 C 124.44138,1022.9989 124.36651,1022.4293 124.36651,1021.7096 L 124.36651,1017.0171 L 121.78788,1017.0171 L 121.78788,1022.3993 C 121.78788,1024.3181 122.89738,1024.9778 124.45651,1024.9778 C 125.55089,1024.9778 126.45038,1024.5881 126.81026,1023.3736 L 126.93013,1023.3736 L 126.84013,1024.8879 L 129.34376,1024.8879 z"
         style="fill:#000000;fill-opacity:1;fill-rule:evenodd;stroke:none;stroke-opacity:1"
         id="path4436" />
      <path
         d="M 131.10251,1017.0171 L 131.10251,1024.8879 L 133.68113,1024.8879 L 133.68113,1020.5551 C 133.68113,1019.5958 133.87589,1018.9061 135.03038,1018.9061 C 135.87001,1018.9061 136.07976,1019.2809 136.09488,1020.0455 L 136.09488,1024.8879 L 138.67326,1024.8879 L 138.67326,1019.4459 C 138.67326,1017.7519 137.87876,1016.9273 136.13976,1016.9273 C 134.92538,1016.9273 134.16076,1017.242 133.78601,1018.4864 L 133.68113,1018.4864 L 133.68113,1017.0171 L 131.10251,1017.0171 z"
         style="fill:#000000;fill-opacity:1;fill-rule:evenodd;stroke:none;stroke-opacity:1"
         id="path4438" />
      <path
         d="M 142.75439,1017.0171 L 140.17589,1017.0171 L 140.17589,1024.8879 L 142.75439,1024.8879 L 142.75439,1017.0171 z M 142.75439,1013.644 L 140.17589,1013.644 L 140.17589,1015.6229 L 142.75439,1015.6229 L 142.75439,1013.644 z"
         style="fill:#000000;fill-opacity:1;fill-rule:evenodd;stroke:none;stroke-opacity:1"
         id="path4440" />
      <path
         d="M 148.84114,1021.7395 C 148.84114,1022.714 148.78138,1022.9989 147.61189,1022.9989 C 146.63751,1022.9989 146.42751,1022.804 146.42751,1020.96 C 146.42751,1019.161 146.69738,1018.9061 147.61189,1018.9061 C 148.15163,1018.9061 148.45138,1018.9661 148.63138,1019.1311 C 148.81126,1019.2959 148.85626,1019.5509 148.84114,1019.9706 L 151.41988,1019.9706 C 151.41988,1017.1671 149.87564,1016.9273 147.61189,1016.9273 C 144.38863,1016.9273 143.84889,1018.2915 143.84889,1020.96 C 143.84889,1024.0634 144.56851,1024.9778 147.61189,1024.9778 C 149.00613,1024.9778 149.95064,1024.9029 150.55026,1024.453 C 151.16489,1024.0183 151.41988,1023.2089 151.41988,1021.7395 L 148.84114,1021.7395 z"
         style="fill:#000000;fill-opacity:1;fill-rule:evenodd;stroke:none;stroke-opacity:1"
         id="path4442" />
      <path
         d="M 156.05489,1021.6346 C 156.89438,1021.6346 157.46413,1021.6945 157.46413,1022.3541 C 157.46413,1023.1788 157.13426,1023.3136 156.05489,1023.3136 C 155.66513,1023.3136 154.93051,1023.3136 154.93051,1022.4591 C 154.93051,1021.7395 155.42526,1021.6346 156.05489,1021.6346 z M 157.46413,1024.8879 L 160.04263,1024.8879 L 160.04263,1019.9706 C 160.04263,1017.257 158.93326,1016.9273 156.29476,1016.9273 C 154.45076,1016.9273 152.66689,1016.9123 152.66689,1019.3559 L 155.24526,1019.3559 C 155.24526,1018.6514 155.65013,1018.5014 156.29476,1018.5014 C 157.41913,1018.5014 157.46413,1018.9661 157.46413,1019.7006 L 157.46413,1020.945 L 157.34426,1020.945 C 157.05938,1020.0455 155.93501,1020.0605 155.20038,1020.0605 C 153.34138,1020.0605 152.35189,1020.6453 152.35189,1022.5341 C 152.35189,1024.543 153.40138,1024.9778 155.20038,1024.9778 C 156.09989,1024.9778 157.26913,1024.7979 157.46413,1023.7185 L 157.55401,1023.7185 L 157.46413,1024.8879 z"
         style="fill:#000000;fill-opacity:1;fill-rule:evenodd;stroke:none;stroke-opacity:1"
         id="path4444" />
      <path
         d="M 167.60276,1017.0171 L 164.61938,1017.0171 L 164.61938,1015.3531 L 162.04089,1015.3531 L 162.04089,1017.0171 L 161.08138,1017.0171 L 161.08138,1018.9061 L 162.04089,1018.9061 L 162.04089,1022.789 C 162.04089,1024.768 163.40501,1024.9778 165.05426,1024.9778 C 167.15301,1024.9778 167.94764,1024.498 167.94764,1022.3541 L 167.94764,1021.6496 L 165.89376,1021.6496 L 165.87876,1022.0695 C 165.84876,1022.6091 165.87876,1023.0889 165.20401,1023.0889 C 164.72439,1023.0889 164.63451,1022.8939 164.61938,1022.4293 L 164.61938,1018.9061 L 167.60276,1018.9061 L 167.60276,1017.0171 z"
         style="fill:#000000;fill-opacity:1;fill-rule:evenodd;stroke:none;stroke-opacity:1"
         id="path4446" />
      <path
         d="M 171.36826,1017.0171 L 168.78976,1017.0171 L 168.78976,1024.8879 L 171.36826,1024.8879 L 171.36826,1017.0171 z M 171.36826,1013.644 L 168.78976,1013.644 L 168.78976,1015.6229 L 171.36826,1015.6229 L 171.36826,1013.644 z"
         style="fill:#000000;fill-opacity:1;fill-rule:evenodd;stroke:none;stroke-opacity:1"
         id="path4448" />
      <path
         d="M 176.43576,1016.9273 C 173.15251,1016.9273 172.50788,1017.7368 172.50788,1020.96 C 172.50788,1024.1084 173.21251,1024.9778 176.43576,1024.9778 C 179.70389,1024.9778 180.37851,1024.1983 180.37851,1020.96 C 180.37851,1017.6319 179.73376,1016.9273 176.43576,1016.9273 z M 176.48064,1018.9061 C 177.68001,1018.9061 177.79988,1019.251 177.79988,1020.96 C 177.79988,1022.6691 177.68001,1022.9989 176.48064,1022.9989 C 175.23639,1022.9989 175.08639,1022.6691 175.08639,1020.96 C 175.08639,1019.251 175.23639,1018.9061 176.48064,1018.9061 z"
         style="fill:#000000;fill-opacity:1;fill-rule:evenodd;stroke:none;stroke-opacity:1"
         id="path4450" />
      <path
         d="M 181.74526,1017.0171 L 181.74526,1024.8879 L 184.32376,1024.8879 L 184.32376,1020.5551 C 184.32376,1019.5958 184.51863,1018.9061 185.67301,1018.9061 C 186.51251,1018.9061 186.72251,1019.2809 186.73739,1020.0455 L 186.73739,1024.8879 L 189.31601,1024.8879 L 189.31601,1019.4459 C 189.31601,1017.7519 188.52151,1016.9273 186.78238,1016.9273 C 185.56814,1016.9273 184.80351,1017.242 184.42863,1018.4864 L 184.32376,1018.4864 L 184.32376,1017.0171 L 181.74526,1017.0171 z"
         style="fill:#000000;fill-opacity:1;fill-rule:evenodd;stroke:none;stroke-opacity:1"
         id="path4452" />
      <path
         d="M 201.02926,1021.7395 C 201.02926,1022.714 200.96926,1022.9989 199.80001,1022.9989 C 198.82538,1022.9989 198.61564,1022.804 198.61564,1020.96 C 198.61564,1019.161 198.88539,1018.9061 199.80001,1018.9061 C 200.33951,1018.9061 200.63951,1018.9661 200.81926,1019.1311 C 200.99939,1019.2959 201.04426,1019.5509 201.02926,1019.9706 L 203.60788,1019.9706 C 203.60788,1017.1671 202.06364,1016.9273 199.80001,1016.9273 C 196.57676,1016.9273 196.03701,1018.2915 196.03701,1020.96 C 196.03701,1024.0634 196.75663,1024.9778 199.80001,1024.9778 C 201.19426,1024.9778 202.13863,1024.9029 202.73826,1024.453 C 203.35301,1024.0183 203.60788,1023.2089 203.60788,1021.7395 L 201.02926,1021.7395 z"
         style="fill:#000000;fill-opacity:1;fill-rule:evenodd;stroke:none;stroke-opacity:1"
         id="path4454" />
      <path
         d="M 208.24301,1021.6346 C 209.08251,1021.6346 209.65214,1021.6945 209.65214,1022.3541 C 209.65214,1023.1788 209.32238,1023.3136 208.24301,1023.3136 C 207.85314,1023.3136 207.11863,1023.3136 207.11863,1022.4591 C 207.11863,1021.7395 207.61326,1021.6346 208.24301,1021.6346 z M 209.65214,1024.8879 L 212.23076,1024.8879 L 212.23076,1019.9706 C 212.23076,1017.257 211.12138,1016.9273 208.48288,1016.9273 C 206.63889,1016.9273 204.85476,1016.9123 204.85476,1019.3559 L 207.43338,1019.3559 C 207.43338,1018.6514 207.83814,1018.5014 208.48288,1018.5014 C 209.60713,1018.5014 209.65214,1018.9661 209.65214,1019.7006 L 209.65214,1020.945 L 209.53226,1020.945 C 209.24738,1020.0455 208.12301,1020.0605 207.38839,1020.0605 C 205.52939,1020.0605 204.54001,1020.6453 204.54001,1022.5341 C 204.54001,1024.543 205.58939,1024.9778 207.38839,1024.9778 C 208.28788,1024.9778 209.45726,1024.7979 209.65214,1023.7185 L 209.74201,1023.7185 L 209.65214,1024.8879 z"
         style="fill:#000000;fill-opacity:1;fill-rule:evenodd;stroke:none;stroke-opacity:1"
         id="path4456" />
      <path
         d="M 218.08176,1020.4504 L 220.40551,1020.4504 L 220.40551,1019.8356 C 220.40551,1018.3964 220.25564,1016.9273 218.45663,1016.9273 C 217.49713,1016.9273 216.82238,1017.2721 216.47751,1018.1716 L 216.37276,1018.1716 L 216.37276,1017.0171 L 213.86901,1017.0171 L 213.86901,1024.8879 L 216.44764,1024.8879 L 216.44764,1020.1655 C 216.44764,1019.5208 216.62751,1018.9061 217.40713,1018.9061 C 218.11176,1018.9061 218.08176,1019.5208 218.08176,1020.0754 L 218.08176,1020.4504 z"
         style="fill:#000000;fill-opacity:1;fill-rule:evenodd;stroke:none;stroke-opacity:1"
         id="path4458" />
      <path
         d="M 221.39964,1013.644 L 221.39964,1024.8879 L 223.97814,1024.8879 L 223.91826,1023.5236 L 224.03814,1023.5236 C 224.33801,1024.708 225.16251,1024.9778 226.28701,1024.9778 C 228.19076,1024.9778 229.27026,1024.1683 229.27026,1022.0844 L 229.27026,1020.2854 C 229.27026,1017.8868 228.44576,1016.9273 226.28701,1016.9273 C 225.34251,1016.9273 224.51788,1017.1221 224.09814,1018.1415 L 223.97814,1018.1415 L 223.97814,1013.644 L 221.39964,1013.644 z M 225.40239,1022.9989 C 224.03814,1022.9989 223.97814,1022.4741 223.97814,1020.945 C 223.97814,1019.161 224.33801,1018.9061 225.40239,1018.9061 C 226.60176,1018.9061 226.69176,1019.6258 226.69176,1020.945 C 226.69176,1022.6091 226.49676,1022.9989 225.40239,1022.9989 z"
         style="fill:#000000;fill-opacity:1;fill-rule:evenodd;stroke:none;stroke-opacity:1"
         id="path4460" />
      <path
         d="M 234.20551,1016.9273 C 230.92226,1016.9273 230.27763,1017.7368 230.27763,1020.96 C 230.27763,1024.1084 230.98226,1024.9778 234.20551,1024.9778 C 237.47364,1024.9778 238.14839,1024.1983 238.14839,1020.96 C 238.14839,1017.6319 237.50351,1016.9273 234.20551,1016.9273 z M 234.25038,1018.9061 C 235.44976,1018.9061 235.56964,1019.251 235.56964,1020.96 C 235.56964,1022.6691 235.44976,1022.9989 234.25038,1022.9989 C 233.00613,1022.9989 232.85614,1022.6691 232.85614,1020.96 C 232.85614,1019.251 233.00613,1018.9061 234.25038,1018.9061 z"
         style="fill:#000000;fill-opacity:1;fill-rule:evenodd;stroke:none;stroke-opacity:1"
         id="path4462" />
      <path
         d="M 239.51501,1017.0171 L 239.51501,1024.8879 L 242.09339,1024.8879 L 242.09339,1020.5551 C 242.09339,1019.5958 242.28839,1018.9061 243.44289,1018.9061 C 244.28238,1018.9061 244.49214,1019.2809 244.50701,1020.0455 L 244.50701,1024.8879 L 247.08576,1024.8879 L 247.08576,1019.4459 C 247.08576,1017.7519 246.29113,1016.9273 244.55226,1016.9273 C 243.33789,1016.9273 242.57314,1017.242 242.19839,1018.4864 L 242.09339,1018.4864 L 242.09339,1017.0171 L 239.51501,1017.0171 z"
         style="fill:#000000;fill-opacity:1;fill-rule:evenodd;stroke:none;stroke-opacity:1"
         id="path4464" />
      <path
         d="M 251.16689,1017.0171 L 248.58814,1017.0171 L 248.58814,1024.8879 L 251.16689,1024.8879 L 251.16689,1017.0171 z M 251.16689,1013.644 L 248.58814,1013.644 L 248.58814,1015.6229 L 251.16689,1015.6229 L 251.16689,1013.644 z"
         style="fill:#000000;fill-opacity:1;fill-rule:evenodd;stroke:none;stroke-opacity:1"
         id="path4466" />
      <path
         d="M 258.52801,1017.0171 L 255.54464,1017.0171 L 255.54464,1015.3531 L 252.96589,1015.3531 L 252.96589,1017.0171 L 252.00638,1017.0171 L 252.00638,1018.9061 L 252.96589,1018.9061 L 252.96589,1022.789 C 252.96589,1024.768 254.33039,1024.9778 255.97926,1024.9778 C 258.07826,1024.9778 258.87289,1024.498 258.87289,1022.3541 L 258.87289,1021.6496 L 256.81876,1021.6496 L 256.80376,1022.0695 C 256.77389,1022.6091 256.80376,1023.0889 256.12939,1023.0889 C 255.64964,1023.0889 255.55963,1022.8939 255.54464,1022.4293 L 255.54464,1018.9061 L 258.52801,1018.9061 L 258.52801,1017.0171 z"
         style="fill:#000000;fill-opacity:1;fill-rule:evenodd;stroke:none;stroke-opacity:1"
         id="path4468" />
      <path
         d="M 262.09864,1019.9706 C 262.12851,1018.9361 262.41351,1018.7263 263.32789,1018.7263 C 264.19764,1018.7263 264.63214,1018.8011 264.63214,1019.9706 L 262.09864,1019.9706 z M 264.67739,1022.2643 C 264.67739,1023.0889 264.16739,1023.1788 263.37301,1023.1788 C 262.30851,1023.1788 262.09864,1022.774 262.09864,1021.3948 L 267.21089,1021.3948 L 267.21089,1020.96 C 267.21089,1017.7519 266.32614,1016.9273 263.37301,1016.9273 C 260.20951,1016.9273 259.51988,1017.9318 259.51988,1020.96 C 259.51988,1023.8984 260.26964,1024.9778 263.37301,1024.9778 C 264.51226,1024.9778 265.47176,1024.8879 266.14639,1024.513 C 266.82089,1024.1233 267.21089,1023.4488 267.21089,1022.2643 L 264.67739,1022.2643 z"
         style="fill:#000000;fill-opacity:1;fill-rule:evenodd;stroke:none;stroke-opacity:1"
         id="path4470" />
      <path
         d="M 14.308631,994.85413 C 14.308631,1007.9311 22.346891,1009.3708 29.965131,1009.3708 L 41.722261,1009.3708 C 48.320881,1009.3708 55.159261,1007.0313 55.159261,998.81325 L 55.159261,996.114 L 44.001891,996.114 L 44.001891,996.83388 C 44.001891,999.65313 41.062511,1000.373 37.823261,1000.373 L 31.944631,1000.373 C 28.345381,1000.373 25.826011,999.17338 25.826011,995.214 L 25.826011,991.135 C 25.826011,987.776 28.105511,986.456 32.904391,986.456 L 37.343391,986.456 C 42.382261,986.456 44.001891,987.59588 44.001891,990.71513 L 55.159261,990.71513 L 55.159261,987.95563 C 55.159261,980.93725 49.940381,977.818 41.422511,977.818 L 28.465511,977.818 C 20.067381,977.818 14.308631,980.33763 14.308631,991.91476 L 14.308631,994.85413 z"
         style="fill:#000000;fill-opacity:1;fill-rule:evenodd;stroke:none;stroke-opacity:1"
         id="path4472" />
      <path
         d="M 62.601641,999.11325 L 79.397761,999.11325 L 79.397761,988.31575 L 62.601641,988.31575 L 62.601641,999.11325 z"
         style="fill:#000000;fill-opacity:1;fill-rule:evenodd;stroke:none;stroke-opacity:1"
         id="path4474" />
      <path
         d="M 99.073141,992.09475 C 99.073141,987.476 101.47251,986.456 106.03138,986.456 L 112.80976,986.456 C 118.32863,986.456 118.86851,988.37563 118.86851,991.79475 L 118.86851,995.394 C 118.86851,998.81325 118.32863,1000.7328 112.80976,1000.7328 L 106.03138,1000.7328 C 101.47251,1000.7328 99.073141,999.71325 99.073141,995.094 L 99.073141,992.09475 z M 88.275511,1008.8909 L 99.073141,1008.8909 L 99.073141,1003.2524 L 99.193011,1003.2524 C 100.45276,1007.0313 103.33213,1009.3708 110.29038,1009.3708 L 113.64964,1009.3708 C 128.22626,1009.3708 130.02588,1004.152 130.02588,996.35388 L 130.02588,990.835 C 130.02588,983.03688 128.22626,977.818 113.64964,977.818 L 110.23051,977.818 C 105.49151,977.818 100.63263,979.13788 99.912761,983.93688 L 99.792881,983.93688 L 99.792881,965.46088 L 88.275511,965.46088 L 88.275511,1008.8909 z"
         style="fill:#000000;fill-opacity:1;fill-rule:evenodd;stroke:none;stroke-opacity:1"
         id="path4476" />
      <path
         d="M 135.25788,1000.673 C 135.25788,1007.8711 139.75701,1009.4308 146.77526,1009.3708 L 154.63338,1009.3708 C 160.39201,1009.3708 161.59189,1008.711 164.77113,1005.4118 L 164.77113,1008.8909 L 175.68851,1008.8909 L 175.68851,988.7955 C 175.68851,981.59738 171.48964,977.818 163.57138,977.818 L 150.19451,977.818 C 140.47676,977.818 136.39764,979.19775 136.39764,987.476 L 147.55513,987.476 C 147.67501,985.3165 148.63488,985.0165 151.99401,985.0165 L 158.77251,985.0165 C 163.27138,985.0165 164.17113,986.09625 164.17113,989.0955 L 164.17113,991.79475 C 161.95176,989.5155 158.47251,989.33538 152.17401,989.33538 C 141.01663,989.33538 135.25788,989.81538 135.25788,998.15351 L 135.25788,1000.673 z M 152.47401,1002.1726 C 147.97501,1002.1726 146.41526,1001.3926 146.41526,999.41325 C 146.41526,996.89363 147.43526,995.814 152.29401,995.814 L 157.39276,995.814 C 163.75138,995.814 164.41126,996.65375 164.41126,998.93313 C 164.41126,1000.9726 163.69126,1002.1726 155.77326,1002.1726 L 152.47401,1002.1726 z"
         style="fill:#000000;fill-opacity:1;fill-rule:evenodd;stroke:none;stroke-opacity:1"
         id="path4478" />
      <path
         d="M 181.93138,999.35313 C 181.93138,1006.9114 185.83038,1009.3708 196.44801,1009.3708 L 207.36551,1009.3708 C 220.50239,1009.3708 223.74163,1007.2714 223.74163,999.17338 C 223.74163,993.71438 222.72188,989.0955 208.92501,989.0955 L 200.94688,989.0955 C 194.94839,989.0955 194.04851,988.6155 194.04851,987.29588 C 194.04851,985.19625 195.30826,985.0165 201.96676,985.0165 C 208.86514,985.0165 209.94476,985.3165 210.54463,987.11588 L 222.06201,987.11588 C 221.94201,979.91763 219.30276,977.818 204.24613,977.818 L 196.20813,977.818 C 188.28989,977.818 182.17126,978.95788 182.17126,986.576 C 182.17126,994.97413 185.35051,997.31363 196.08801,997.37375 L 206.88564,997.37375 C 210.96451,997.37375 211.86439,998.09338 211.86439,999.893 C 211.86439,1001.7526 210.48463,1002.1726 205.02601,1002.1726 L 200.94688,1002.1726 C 194.40851,1002.1726 193.80851,1001.0328 193.80851,999.35313 L 181.93138,999.35313 z"
         style="fill:#000000;fill-opacity:1;fill-rule:evenodd;stroke:none;stroke-opacity:1"
         id="path4480" />
      <path
         d="M 229.07763,994.85413 C 229.07763,1007.9311 237.11564,1009.3708 244.73414,1009.3708 L 253.37214,1009.3708 C 261.71014,1009.3708 268.54851,1007.6913 268.54851,1000.0129 L 268.54851,998.69325 L 257.75101,998.69325 C 257.75101,1000.4929 257.45114,1002.1726 251.21264,1002.1726 L 247.67326,1002.1726 C 242.87439,1002.1726 240.59501,1001.2726 240.59501,998.0335 L 240.59501,996.17375 L 268.54851,996.17375 L 268.54851,991.01513 C 268.54851,980.39738 263.50976,977.818 251.27251,977.818 L 243.23451,977.818 C 234.83639,977.818 229.07763,980.33763 229.07763,991.91476 L 229.07763,994.85413 z M 240.59501,989.33538 C 240.59501,985.67638 241.49501,985.0165 248.99314,985.0165 C 255.71151,985.0165 257.39126,985.67638 257.39126,989.33538 L 240.59501,989.33538 z"
         style="fill:#000000;fill-opacity:1;fill-rule:evenodd;stroke:none;stroke-opacity:1"
         id="path4482" />
    </g>
  </g>
</svg>
