<?xml version="1.0" encoding="UTF-8" standalone="no"?>
<!-- Generator: Adobe Illustrator 23.0.2, SVG Export Plug-In . SVG Version: 6.00 Build 0)  -->

<svg
   version="1.1"
   id="Layer_1"
   x="0px"
   y="0px"
   viewBox="0 0 496.52328 497.43198"
   xml:space="preserve"
   sodipodi:docname="r3s_logo_vektor_blue1.svg"
   width="496.52328"
   height="497.43198"
   inkscape:version="1.1 (c68e22c387, 2021-05-23)"
   xmlns:inkscape="http://www.inkscape.org/namespaces/inkscape"
   xmlns:sodipodi="http://sodipodi.sourceforge.net/DTD/sodipodi-0.dtd"
   xmlns="http://www.w3.org/2000/svg"
   xmlns:svg="http://www.w3.org/2000/svg"><defs
   id="defs340" /><sodipodi:namedview
   id="namedview338"
   pagecolor="#ffffff"
   bordercolor="#666666"
   borderopacity="1.0"
   inkscape:pageshadow="2"
   inkscape:pageopacity="0.0"
   inkscape:pagecheckerboard="0"
   showgrid="false"
   fit-margin-top="0"
   fit-margin-left="0"
   fit-margin-right="0"
   fit-margin-bottom="0"
   inkscape:zoom="2.6813489"
   inkscape:cx="277.84523"
   inkscape:cy="240.73704"
   inkscape:window-width="2510"
   inkscape:window-height="1592"
   inkscape:window-x="90"
   inkscape:window-y="90"
   inkscape:window-maximized="0"
   inkscape:current-layer="Layer_1" />
<style
   type="text/css"
   id="style179">
	.st0{fill:#216E61;}
</style>
<g
   id="g335"
   style="fill:#3a5769;fill-opacity:1"
   transform="translate(-245.44121,-251.65694)">
	<g
   id="g187"
   style="fill:#3a5769;fill-opacity:1">
		<path
   class="st0"
   d="m 348.47,659.33 c -14.1,-12.89 -26.5,-27.62 -36.79,-43.82 -1.39,1.01 -2.96,1.79 -4.64,2.26 8.69,13.75 18.96,26.64 30.75,38.42 2.31,2.31 4.68,4.56 7.07,6.76 0.98,-1.41 2.21,-2.63 3.61,-3.62 z"
   id="path181"
   style="fill:#3a5769;fill-opacity:1" />
		<path
   class="st0"
   d="m 712.11,465.12 -4.94,0.78 c 1.78,11.19 2.68,22.66 2.68,34.09 0,119.04 -96.84,215.88 -215.88,215.88 -40.86,0 -79.09,-11.42 -111.69,-31.22 -0.47,1.68 -1.24,3.26 -2.25,4.65 34.04,20.58 73.15,31.57 113.95,31.57 59,0 114.47,-22.98 156.19,-64.69 41.71,-41.71 64.68,-97.18 64.68,-156.18 0,-11.69 -0.92,-23.43 -2.74,-34.88 z"
   id="path183"
   style="fill:#3a5769;fill-opacity:1" />
		<path
   class="st0"
   d="m 288.96,567.65 c -7.04,-21.29 -10.87,-44.03 -10.87,-67.65 0,-119.04 96.84,-215.88 215.88,-215.88 71.26,0 137.88,35.14 178.22,94.01 l 4.13,-2.83 c -41.27,-60.23 -109.43,-96.18 -182.34,-96.18 -59,0 -114.47,22.98 -156.19,64.69 -41.72,41.71 -64.7,97.19 -64.7,156.19 0,24.07 3.83,47.55 11.19,69.75 1.41,-0.97 2.99,-1.68 4.68,-2.1 z"
   id="path185"
   style="fill:#3a5769;fill-opacity:1" />
	</g>
	<g
   id="g195"
   style="fill:#3a5769;fill-opacity:1">
		<path
   class="st0"
   d="m 650.59,508.39 c -4.39,83.25 -73.18,148.46 -156.62,148.46 -4.82,0 -9.59,-0.23 -14.3,-0.66 0.09,0.65 0.16,1.32 0.16,1.99 0,1.03 -0.12,2.04 -0.34,3.01 4.77,0.43 9.6,0.65 14.48,0.65 86.1,0 157.09,-67.29 161.62,-153.19 z"
   id="path189"
   style="fill:#3a5769;fill-opacity:1" />
		<path
   class="st0"
   d="m 348.65,428.86 c -8.42,17.14 -13.92,35.97 -15.79,55.84 0.29,-0.02 0.58,-0.05 0.88,-0.05 1.41,0 2.79,0.22 4.09,0.62 1.8,-19.24 7.1,-37.47 15.25,-54.08 -1.92,-0.25 -3.4,-1.11 -4.43,-2.33 z"
   id="path191"
   style="fill:#3a5769;fill-opacity:1" />
		<path
   class="st0"
   d="m 493.97,338.16 c -54.28,0 -102.39,26.86 -131.76,67.99 1.8,0.51 3.12,1.62 3.98,3.03 28.46,-39.93 75.13,-66.02 127.78,-66.02 43.14,0 83.34,17.15 113.21,48.29 l 3.61,-3.46 C 579.97,355.85 538.48,338.16 493.97,338.16 Z"
   id="path193"
   style="fill:#3a5769;fill-opacity:1" />
	</g>
	<g
   id="g333"
   style="fill:#3a5769;fill-opacity:1">
		<g
   id="g243"
   style="fill:#3a5769;fill-opacity:1">
			<g
   id="g201"
   style="fill:#3a5769;fill-opacity:1">
				<g
   id="g199"
   style="fill:#3a5769;fill-opacity:1">
					<path
   class="st0"
   d="m 721.96,393.64 c -8.65,-3.09 -17.53,-5.19 -26.69,-6.13 -16.8,-1.72 -33.08,-0.43 -48.99,3.08 -0.89,0.19 -1.78,0.4 -2.68,0.61 -1.03,0.24 -2.06,0.5 -3.07,0.76 0,0 -0.05,0.01 -0.15,0.04 l -0.73,0.18 c -0.12,0.02 -0.24,0.06 -0.38,0.1 -9.78,2.57 -19.42,5.92 -28.95,9.88 -1.91,0.8 -4.7,1.82 -7.36,2.95 -15.83,6.41 -30.79,13.61 -48.84,26.49 0.72,-0.69 15.77,-18.2 34.7,-28.81 -7.34,-0.99 -14.7,-1.88 -22.01,-3.15 -8.34,-1.46 -15.61,-0.69 -22.62,4.88 -11.35,9.06 -23.45,17.19 -34.97,26.06 -20.96,16.09 -40.88,33.43 -59.34,52.36 -1.82,1.88 -4.4,3.92 -2.9,6.89 1.38,2.75 4.4,1.45 6.69,1.28 8.47,-0.61 16.92,-1.46 25.38,-2.17 2.1,-0.18 4.73,-1.59 6.08,0.97 1.34,2.53 -1.03,4.3 -2.61,5.58 -5.54,4.46 -6.82,10.01 -5.4,16.69 2.21,10.47 6.24,20.01 13.45,28.07 5.95,6.67 11.97,12.88 22.27,9.15 1.65,-0.6 4.24,-1.28 5.38,1.1 0.95,1.95 -0.97,3.3 -1.98,4.63 -5.82,7.65 -11.76,15.22 -17.62,22.84 -0.94,1.21 -2.25,2.48 -1.54,4.17 0.85,2 2.81,2.02 4.63,1.89 1.55,-0.11 3.09,-0.38 4.61,-0.69 41.05,-8.43 80.43,-22.14 119.11,-37.97 3.37,-1.37 6.73,-2.97 8.38,-6.34 4.6,-9.32 8.94,-18.76 14.12,-29.68 -4.6,1.89 -9.16,3.68 -13.71,5.35 h -0.01 c -1.8,0.67 -3.59,1.31 -5.4,1.94 h -0.01 c -5.59,1.96 -11.15,3.74 -16.75,5.35 -8,2.33 -16.03,4.31 -24.18,5.96 -2.69,0.54 -5.4,1.05 -8.13,1.52 1.31,-1.93 3.01,-2.56 4.67,-3.06 0.69,-0.21 1.37,-0.38 2,-0.62 6.54,-2.39 13.04,-4.87 19.47,-7.48 4.59,-1.85 9.15,-3.78 13.66,-5.79 6.59,-2.93 13.09,-6.03 19.48,-9.37 5.64,-2.94 11.17,-6.05 16.6,-9.37 4.76,-2.91 9.43,-5.96 14.02,-9.21 0.66,-0.47 1.3,-0.92 1.94,-1.4 4.54,-3.3 8.89,-6.74 13.01,-10.38 4.12,-3.59 8.02,-7.37 11.66,-11.32 14.74,-15.95 25.48,-34.79 30.97,-57.41 1.36,-5.5 -0.21,-8.63 -5.26,-10.42 z m -57.09,31.91 -4.8,2.6 -4.88,2.65 c 3.98,9.56 10.34,19.4 20.51,27.04 1.5,1.13 1.45,3.38 -0.11,4.41 -0.46,0.31 -1.02,0.46 -1.56,0.45 -0.54,-0.01 -1.07,-0.19 -1.52,-0.52 -10.9,-8.17 -17.75,-18.62 -22.04,-28.81 l -7.66,4.15 -4.73,2.56 c 1.55,2.15 2.59,4.69 2.92,7.49 0.49,4.19 -0.67,8.21 -3,11.36 -1.09,1.49 -2.43,2.8 -3.98,3.84 -1.59,1.08 -3.37,1.88 -5.31,2.33 3,3.67 6.51,7.12 10.65,10.23 1.53,1.15 1.49,3.46 -0.11,4.51 v 0 c -0.96,0.62 -2.21,0.61 -3.13,-0.08 -5.79,-4.33 -10.47,-9.31 -14.23,-14.56 h -0.01 c -5.35,-1.06 -9.83,-4.8 -11.81,-9.92 l -4.74,2.57 -5.27,2.85 -4.74,2.58 c 0.96,1.31 1.6,2.88 1.79,4.6 0.16,1.27 0.06,2.51 -0.27,3.68 -0.52,2 -1.68,3.79 -3.26,5.08 -1.41,1.17 -3.17,1.95 -5.11,2.19 -0.05,0.01 -0.11,0.01 -0.16,0.01 0.27,0.4 0.54,0.79 0.82,1.18 0.54,0.79 1.13,1.56 1.73,2.33 0.56,0.71 1.13,1.41 1.72,2.11 1.99,2.32 4.19,4.55 6.64,6.66 0.79,0.68 1.61,1.36 2.45,2.01 0.4,0.31 0.8,0.61 1.21,0.92 l 0.02,0.01 c 1.3,0.94 1.26,2.89 -0.09,3.77 l -0.81,0.53 c -0.79,0.52 -1.84,0.5 -2.6,-0.06 -8.83,-6.54 -15.07,-14.55 -19.49,-22.75 -0.76,-0.85 -1.37,-1.85 -1.78,-2.93 l -4.75,2.57 -8.99,4.87 -4.88,2.65 -4.97,2.7 c 0.27,0.6 0.55,1.2 0.84,1.8 0.09,0.2 0.2,0.39 0.29,0.58 0.2,0.4 0.4,0.81 0.61,1.21 0.12,0.23 0.25,0.47 0.37,0.7 0.19,0.36 0.39,0.73 0.59,1.09 0.14,0.25 0.28,0.49 0.42,0.74 0.2,0.35 0.4,0.7 0.61,1.04 0.15,0.25 0.3,0.5 0.46,0.76 0.21,0.34 0.42,0.68 0.64,1.02 0.16,0.25 0.32,0.5 0.49,0.75 0.22,0.34 0.45,0.68 0.69,1.02 0.17,0.25 0.34,0.49 0.51,0.74 0.24,0.35 0.49,0.69 0.75,1.03 0.17,0.23 0.34,0.47 0.52,0.7 0.28,0.37 0.56,0.73 0.85,1.09 0.16,0.2 0.32,0.41 0.48,0.61 0.39,0.49 0.8,0.97 1.21,1.45 0.07,0.08 0.13,0.15 0.19,0.23 0.48,0.55 0.97,1.1 1.48,1.64 0.16,0.17 0.32,0.33 0.48,0.5 0.36,0.37 0.72,0.75 1.08,1.12 0.2,0.2 0.42,0.4 0.62,0.6 0.34,0.32 0.67,0.65 1.02,0.97 0.23,0.21 0.47,0.43 0.71,0.64 0.34,0.3 0.67,0.6 1.02,0.9 0.25,0.21 0.5,0.43 0.76,0.64 0.35,0.29 0.7,0.58 1.06,0.86 0.26,0.21 0.53,0.42 0.8,0.62 0.13,0.1 0.26,0.21 0.4,0.31 1.24,0.95 1.57,2.76 0.59,3.97 -0.96,1.17 -2.62,1.35 -3.76,0.5 -10.36,-7.75 -17.14,-17.53 -21.56,-27.23 l -46.51,25.24 c 0,0 -0.37,-0.45 -0.87,-1.28 -3.81,-6.34 -2.71,-14.45 2.37,-19.82 0.77,-0.83 1.56,-1.64 2.36,-2.45 10.86,-11.25 22.64,-21.47 34.84,-31.24 0.92,-0.74 1.84,-1.47 2.76,-2.2 0.8,-0.63 1.59,-1.26 2.4,-1.89 1.78,-1.39 3.56,-2.78 5.36,-4.14 1.86,-1.42 3.74,-2.81 5.61,-4.19 3.78,-2.78 7.58,-5.5 11.45,-8.12 1.76,-1.21 3.53,-2.39 5.32,-3.55 1.82,-1.18 3.66,-2.34 5.5,-3.49 1.87,-1.16 3.77,-2.3 5.66,-3.41 6.6,-3.88 13.37,-7.48 20.35,-10.71 1.8,-0.84 3.6,-1.66 5.44,-2.43 1.49,-0.65 2.99,-1.28 4.5,-1.88 2.2,-0.9 4.41,-1.75 6.65,-2.55 4.33,-1.57 8.72,-3 13.21,-4.26 2.46,-0.69 4.93,-1.33 7.4,-1.91 1.77,-0.43 3.53,-0.81 5.3,-1.16 1.78,-0.39 3.58,-0.72 5.37,-1.02 1.78,-0.29 3.56,-0.57 5.34,-0.81 13.5,-1.83 27.13,-1.88 40.91,0.16 1.71,0.26 3.66,0.04 5.02,2.64 z"
   id="path197"
   style="fill:#3a5769;fill-opacity:1" />
				</g>
			</g>
			<g
   id="g205"
   style="fill:#3a5769;fill-opacity:1">
				<path
   class="st0"
   d="m 646.35,446.93 c -0.41,-3.46 -1.65,-6.68 -3.53,-9.43 -3.77,-5.6 -10.13,-9.32 -17.22,-9.5 -1.01,-0.02 -2.04,0.02 -3.05,0.14 -1.28,0.16 -2.54,0.41 -3.74,0.78 -1.87,0.56 -3.62,1.36 -5.25,2.4 -2.01,1.28 -3.82,2.9 -5.33,4.84 -3.55,4.5 -5.14,10.1 -4.46,15.79 0.24,2.06 0.79,4.04 1.59,5.89 3.23,7.54 10.65,12.83 19.15,13.04 1.02,0.03 2.04,-0.03 3.07,-0.14 1.78,-0.21 3.5,-0.64 5.13,-1.26 1.82,-0.68 3.52,-1.62 5.08,-2.78 1.53,-1.12 2.91,-2.45 4.12,-3.98 3.52,-4.49 5.11,-10.1 4.44,-15.79 z m -12.31,15.83 c -1.59,1.08 -3.37,1.88 -5.31,2.33 -0.58,0.13 -1.19,0.24 -1.8,0.32 -7.43,0.86 -14.27,-3.47 -16.85,-10.13 -0.49,-1.24 -0.82,-2.56 -0.99,-3.95 -0.67,-5.63 1.67,-10.94 5.76,-14.29 1.48,-1.23 3.2,-2.19 5.1,-2.82 1.02,-0.35 2.1,-0.59 3.22,-0.73 6.01,-0.71 11.63,1.99 14.93,6.58 1.55,2.15 2.59,4.69 2.92,7.49 0.72,6.17 -2.15,11.94 -6.98,15.2 z"
   id="path203"
   style="fill:#3a5769;fill-opacity:1" />
			</g>
			<g
   id="g209"
   style="fill:#3a5769;fill-opacity:1">
				<path
   class="st0"
   d="m 602.46,467.25 c -0.28,-2.4 -1.12,-4.62 -2.39,-6.55 -2.67,-4.06 -7.24,-6.77 -12.34,-6.89 -0.73,-0.02 -1.45,0.02 -2.18,0.11 -0.73,0.09 -1.43,0.22 -2.12,0.4 -1.89,0.5 -3.64,1.35 -5.14,2.48 -4.24,3.13 -6.74,8.41 -6.07,14.03 0.18,1.54 0.58,3 1.18,4.34 2.33,5.26 7.57,8.95 13.55,9.1 0.73,0.02 1.45,-0.02 2.18,-0.11 0.96,-0.11 1.88,-0.32 2.77,-0.58 1.86,-0.59 3.53,-1.51 5,-2.69 3.94,-3.17 6.2,-8.25 5.56,-13.64 z m -8.86,9.39 c -1.41,1.17 -3.17,1.95 -5.11,2.19 -0.05,0.01 -0.11,0.01 -0.16,0.01 h -0.01 c -4.49,0.47 -8.62,-2.19 -10.17,-6.23 -0.29,-0.76 -0.5,-1.56 -0.6,-2.41 -0.36,-2.95 0.64,-5.76 2.5,-7.8 1.28,-1.41 2.99,-2.45 4.95,-2.92 0.38,-0.11 0.77,-0.18 1.17,-0.23 3.68,-0.45 7.13,1.21 9.15,4.03 0.96,1.31 1.6,2.88 1.79,4.6 0.43,3.45 -1.01,6.71 -3.51,8.76 z"
   id="path207"
   style="fill:#3a5769;fill-opacity:1" />
			</g>
			<g
   id="g215"
   style="fill:#3a5769;fill-opacity:1">
				<g
   id="g213"
   style="fill:#3a5769;fill-opacity:1">
					<path
   class="st0"
   d="m 683.85,456.85 -2.75,4.61 c -0.76,-0.45 -1.48,-0.91 -2.2,-1.39 -12.08,-7.91 -19.33,-18.76 -23.71,-29.28 -4.57,-11.04 -5.96,-21.72 -6.34,-28.26 -0.22,-3.67 -0.12,-6.04 -0.1,-6.44 l 5.36,0.25 c 0,0.09 -0.08,2.01 0.11,5.16 0.35,5.9 1.59,16.09 5.85,26.64 4.25,10.51 11.48,21.36 23.78,28.71 z"
   id="path211"
   style="fill:#3a5769;fill-opacity:1" />
				</g>
			</g>
			<g
   id="g225"
   style="fill:#3a5769;fill-opacity:1">
				<g
   id="g219"
   style="fill:#3a5769;fill-opacity:1">
					<path
   class="st0"
   d="m 618.8,428.93 c 0.31,1.69 0.69,3.46 1.15,5.28 -1.9,0.63 -3.61,1.59 -5.1,2.82 -0.52,-1.98 -0.95,-3.88 -1.3,-5.7 -1.52,-7.64 -1.75,-13.91 -1.76,-17.03 0,-1.16 0.03,-1.89 0.04,-2.1 l 4.46,0.22 1.02,0.05 c 0,0.17 -0.25,7.05 1.49,16.46 z"
   id="path217"
   style="fill:#3a5769;fill-opacity:1" />
				</g>
				<g
   id="g223"
   style="fill:#3a5769;fill-opacity:1">
					<path
   class="st0"
   d="m 647.72,474.31 -2.82,4.72 c -0.77,-0.46 -1.52,-0.92 -2.25,-1.41 -3.77,-2.46 -7.06,-5.2 -9.96,-8.12 -1.42,-1.43 -2.74,-2.89 -3.96,-4.4 1.95,-0.45 3.73,-1.25 5.31,-2.33 1.16,1.36 2.41,2.68 3.73,3.95 2.89,2.79 6.19,5.34 9.95,7.59 z"
   id="path221"
   style="fill:#3a5769;fill-opacity:1" />
				</g>
			</g>
			<g
   id="g235"
   style="fill:#3a5769;fill-opacity:1">
				<g
   id="g229"
   style="fill:#3a5769;fill-opacity:1">
					<path
   class="st0"
   d="m 583.43,454.32 c 0.46,1.69 0.98,3.41 1.58,5.16 -1.96,0.46 -3.67,1.51 -4.95,2.92 -0.68,-1.9 -1.26,-3.77 -1.77,-5.59 -2.68,-9.47 -3.31,-17.82 -3.44,-22.46 -0.05,-2.14 0.01,-3.48 0.01,-3.78 l 5.49,0.26 c 0,0 0,0.01 0,0.03 -0.03,0.62 -0.32,10.91 3.08,23.46 z"
   id="path227"
   style="fill:#3a5769;fill-opacity:1" />
				</g>
				<g
   id="g233"
   style="fill:#3a5769;fill-opacity:1">
					<path
   class="st0"
   d="m 610.75,492.65 -2.82,4.72 c -0.77,-0.46 -1.52,-0.92 -2.25,-1.41 -0.42,-0.28 -0.83,-0.56 -1.24,-0.82 -0.53,-0.36 -1.03,-0.74 -1.53,-1.1 -0.41,-0.31 -0.82,-0.61 -1.21,-0.92 -0.84,-0.65 -1.66,-1.33 -2.45,-2.01 -2.45,-2.1 -4.65,-4.34 -6.64,-6.66 -0.23,-0.29 -0.48,-0.58 -0.7,-0.86 -0.35,-0.41 -0.69,-0.82 -1.02,-1.25 -0.6,-0.77 -1.19,-1.53 -1.73,-2.33 -0.27,-0.38 -0.55,-0.78 -0.82,-1.18 0.05,0 0.11,0 0.16,-0.01 1.94,-0.23 3.69,-1.01 5.11,-2.19 1.01,1.45 2.11,2.87 3.3,4.26 3.7,4.4 8.26,8.44 13.84,11.76 z"
   id="path231"
   style="fill:#3a5769;fill-opacity:1" />
				</g>
			</g>
			<g
   id="g241"
   style="fill:#3a5769;fill-opacity:1">
				<g
   id="g239"
   style="fill:#3a5769;fill-opacity:1">
					<path
   class="st0"
   d="m 582.88,509.77 -2.82,4.72 c -0.77,-0.46 -1.51,-0.92 -2.24,-1.4 -11.49,-7.53 -18.72,-17.65 -23.27,-27.7 -5.43,-12.02 -7.02,-23.92 -7.45,-31.06 -0.23,-3.8 -0.14,-6.24 -0.12,-6.66 l 5.49,0.26 c 0,0.05 -0.03,0.86 -0.02,2.26 0.1,5.23 0.99,18.79 7.06,32.5 4.46,10.02 11.67,20.1 23.37,27.08 z"
   id="path237"
   style="fill:#3a5769;fill-opacity:1" />
				</g>
			</g>
		</g>
		<g
   id="g247"
   style="fill:#3a5769;fill-opacity:1">
			<path
   class="st0"
   d="m 489.47,577.88 c -1.26,1.57 -5.12,6.34 -2.47,12.62 0.46,1.06 2.91,5.97 6.18,10.67 l -27.73,-1.22 1.02,64.88 -47.23,-47.2 -67.01,78.47 17.55,-95.84 -118.58,10.48 98.1,-55.82 -68.05,-55.17 92.06,11.59 -21.07,-107.17 71.72,93.75 9.24,-7.88 c 0.2,1.14 0.59,2.34 1.23,3.59 2.03,4.02 5.81,6.39 10.38,6.51 1.6,0.04 3.02,-0.19 4.06,-0.37 0.28,-0.05 0.57,-0.11 0.81,-0.14 5.62,-0.4 11.3,-0.91 16.79,-1.41 0.14,-0.01 0.27,-0.02 0.41,-0.03 -0.6,1.29 -1.09,2.64 -1.42,4.05 -15.21,14.59 -30.19,28.72 -43.61,41.35 -9.2,8.67 -18.7,17.35 -27.89,25.76 -4.19,3.84 -8.38,7.67 -12.56,11.52 -2.15,1.96 -2.44,5.24 -0.7,7.56 l 1.3,1.73 c 1.06,1.42 2.68,2.22 4.39,2.26 0.5,0.01 0.99,-0.03 1.49,-0.16 0,0 1.84,-0.45 2.38,-0.59 11.6,-2.76 23.19,-5.55 34.79,-8.35 22.06,-5.31 44.67,-10.76 67.27,-15.95 l 3.06,2.84 c -1.9,2.46 -3.79,4.89 -5.65,7.33 z"
   id="path245"
   style="fill:#3a5769;fill-opacity:1" />
		</g>
		<g
   id="g293"
   style="fill:#3a5769;fill-opacity:1">
			<g
   id="g251"
   style="fill:#3a5769;fill-opacity:1">
				<path
   class="st0"
   d="m 324.32,442.22 2.5,0.65 -0.15,0.59 -0.68,2.63 -0.65,2.51 c -0.13,0.5 -0.34,0.89 -0.63,1.19 -0.29,0.3 -0.65,0.52 -1.08,0.66 l -11.52,3.9 c -0.43,0.15 -0.76,0.34 -0.99,0.59 -0.23,0.25 -0.42,0.66 -0.57,1.22 l -0.56,2.14 7.79,2.03 c 0.23,-0.5 0.41,-0.9 0.55,-1.19 0.13,-0.29 0.23,-0.49 0.28,-0.6 0.05,-0.11 0.09,-0.19 0.12,-0.25 0.34,-0.67 0.87,-0.91 1.61,-0.72 l 2.5,0.65 -0.84,3.21 -1.49,5.72 -0.84,3.22 -2.5,-0.65 c -0.73,-0.19 -1.09,-0.66 -1.05,-1.41 0.01,-0.06 0.01,-0.16 0.02,-0.28 0.01,-0.12 0.03,-0.34 0.05,-0.66 0.02,-0.32 0.06,-0.76 0.1,-1.31 l -22.3,-5.8 c -0.23,0.51 -0.41,0.91 -0.55,1.2 -0.13,0.29 -0.23,0.49 -0.28,0.6 -0.05,0.11 -0.09,0.2 -0.12,0.25 -0.34,0.67 -0.87,0.91 -1.61,0.72 l -2.5,-0.65 0.84,-3.22 2.36,-9.07 c 0.55,-2.09 1.23,-3.83 2.05,-5.22 0.82,-1.38 1.74,-2.45 2.77,-3.2 1.03,-0.75 2.14,-1.21 3.34,-1.38 1.2,-0.16 2.45,-0.08 3.75,0.26 1.03,0.27 1.97,0.67 2.81,1.22 0.84,0.55 1.56,1.2 2.17,1.97 0.6,0.77 1.08,1.65 1.42,2.64 0.35,0.99 0.55,2.07 0.61,3.23 0.6,-0.62 1.35,-1.09 2.25,-1.41 l 8.39,-2.98 c 0.23,-0.51 0.42,-0.92 0.56,-1.26 0.14,-0.33 0.25,-0.57 0.31,-0.72 0.06,-0.15 0.1,-0.25 0.13,-0.31 0.36,-0.66 0.89,-0.9 1.63,-0.71 z m -17.86,6.57 c -0.34,-0.64 -0.8,-1.17 -1.39,-1.6 -0.59,-0.42 -1.27,-0.74 -2.05,-0.94 -1.56,-0.41 -2.89,-0.2 -3.99,0.61 -1.1,0.81 -1.93,2.27 -2.48,4.38 l -0.87,3.35 10.2,2.65 0.85,-3.27 c 0.28,-1.08 0.39,-2.05 0.33,-2.92 -0.06,-0.87 -0.26,-1.62 -0.6,-2.26 z"
   id="path249"
   style="fill:#3a5769;fill-opacity:1" />
			</g>
			<g
   id="g255"
   style="fill:#3a5769;fill-opacity:1">
				<path
   class="st0"
   d="m 316.53,411.72 c 0.92,-0.88 1.96,-1.53 3.12,-1.93 1.16,-0.41 2.41,-0.55 3.76,-0.45 1.35,0.11 2.76,0.51 4.23,1.21 0.37,0.18 0.67,0.34 0.9,0.49 0.23,0.15 0.39,0.3 0.49,0.45 0.1,0.15 0.14,0.31 0.13,0.49 -0.01,0.18 -0.07,0.37 -0.18,0.6 L 323,425.15 c 2.16,0.85 3.96,1.01 5.4,0.5 1.44,-0.51 2.55,-1.58 3.32,-3.19 0.38,-0.79 0.61,-1.52 0.7,-2.18 0.09,-0.66 0.12,-1.26 0.1,-1.8 -0.02,-0.54 -0.05,-1.01 -0.08,-1.42 -0.03,-0.41 0.02,-0.77 0.17,-1.07 0.09,-0.2 0.21,-0.35 0.36,-0.46 0.15,-0.11 0.32,-0.18 0.52,-0.22 l 2.46,-0.58 c 0.38,0.84 0.62,1.71 0.73,2.58 0.11,0.88 0.12,1.74 0.03,2.6 -0.09,0.86 -0.26,1.69 -0.52,2.5 -0.26,0.81 -0.55,1.57 -0.89,2.29 -0.67,1.41 -1.53,2.62 -2.58,3.61 -1.05,0.99 -2.24,1.72 -3.59,2.18 -1.35,0.46 -2.82,0.63 -4.42,0.5 -1.6,-0.13 -3.29,-0.62 -5.08,-1.47 -1.39,-0.66 -2.59,-1.5 -3.6,-2.54 -1.01,-1.03 -1.77,-2.18 -2.27,-3.45 -0.51,-1.27 -0.74,-2.64 -0.69,-4.1 0.05,-1.46 0.43,-2.95 1.15,-4.47 0.62,-1.27 1.39,-2.36 2.31,-3.24 z m 0.88,8.75 c 0.42,1.19 1.32,2.25 2.7,3.18 l 4.37,-9.2 c -0.64,-0.3 -1.27,-0.5 -1.92,-0.6 -0.64,-0.09 -1.26,-0.06 -1.85,0.09 -0.59,0.16 -1.14,0.45 -1.64,0.87 -0.5,0.43 -0.93,1 -1.27,1.73 -0.69,1.43 -0.82,2.74 -0.39,3.93 z"
   id="path253"
   style="fill:#3a5769;fill-opacity:1" />
			</g>
			<g
   id="g259"
   style="fill:#3a5769;fill-opacity:1">
				<path
   class="st0"
   d="m 364.86,375.51 2.03,1.59 -2.05,2.62 -3.34,4.28 -11.3,-8.83 c -1.13,-0.88 -2.17,-1.3 -3.13,-1.25 -0.96,0.05 -1.81,0.55 -2.56,1.51 -0.34,0.44 -0.59,0.9 -0.73,1.4 -0.14,0.49 -0.18,0.99 -0.12,1.49 0.06,0.51 0.24,1 0.54,1.5 0.3,0.49 0.73,0.96 1.28,1.39 l 7.87,6.15 c 0.41,-0.37 0.74,-0.67 0.98,-0.88 0.24,-0.22 0.4,-0.36 0.5,-0.44 0.09,-0.08 0.16,-0.14 0.21,-0.19 0.58,-0.48 1.16,-0.49 1.76,-0.02 l 2.03,1.59 -2.05,2.62 -3.35,4.29 -11.3,-8.83 c -1.19,-0.93 -2.24,-1.37 -3.16,-1.31 -0.92,0.06 -1.74,0.55 -2.47,1.48 -0.48,0.61 -0.77,1.3 -0.89,2.08 -0.11,0.78 -0.09,1.6 0.09,2.48 l 9.57,7.48 c 0.41,-0.37 0.74,-0.66 0.98,-0.88 0.24,-0.21 0.4,-0.36 0.49,-0.44 0.09,-0.08 0.16,-0.14 0.21,-0.19 0.57,-0.48 1.16,-0.49 1.76,-0.02 l 2.03,1.59 -2.05,2.62 -3.34,4.27 -2.05,2.62 -2.03,-1.59 c -0.6,-0.47 -0.73,-1.04 -0.41,-1.71 0.03,-0.06 0.07,-0.14 0.13,-0.25 0.05,-0.11 0.16,-0.31 0.31,-0.59 0.15,-0.28 0.36,-0.67 0.62,-1.17 l -10.89,-8.51 c -0.41,0.37 -0.74,0.67 -0.98,0.88 -0.24,0.21 -0.41,0.36 -0.5,0.44 -0.09,0.08 -0.16,0.14 -0.21,0.19 -0.58,0.48 -1.16,0.49 -1.76,0.02 l -2.03,-1.59 2.05,-2.62 2.04,-2.61 c 0.43,-0.55 0.98,-0.71 1.63,-0.48 l 1.53,0.75 c -0.1,-0.58 -0.17,-1.16 -0.19,-1.72 -0.02,-0.57 0.01,-1.12 0.11,-1.67 0.1,-0.55 0.25,-1.09 0.48,-1.63 0.23,-0.54 0.55,-1.08 0.96,-1.6 0.88,-1.12 1.9,-1.8 3.07,-2.05 1.17,-0.25 2.4,-0.16 3.68,0.27 -0.37,-0.74 -0.61,-1.48 -0.7,-2.22 -0.1,-0.74 -0.08,-1.47 0.04,-2.17 0.12,-0.7 0.34,-1.38 0.65,-2.04 0.31,-0.66 0.69,-1.27 1.13,-1.84 0.77,-0.98 1.6,-1.73 2.49,-2.26 0.9,-0.53 1.83,-0.82 2.82,-0.89 0.98,-0.07 2,0.09 3.04,0.47 1.04,0.38 2.1,0.99 3.17,1.82 l 7.87,6.15 c 0.41,-0.37 0.74,-0.67 0.98,-0.88 0.24,-0.21 0.4,-0.36 0.5,-0.44 0.09,-0.08 0.16,-0.14 0.21,-0.19 0.56,-0.5 1.15,-0.51 1.75,-0.04 z"
   id="path257"
   style="fill:#3a5769;fill-opacity:1" />
			</g>
			<g
   id="g263"
   style="fill:#3a5769;fill-opacity:1">
				<path
   class="st0"
   d="m 372.49,343.86 c 1.4,-0.44 2.8,-0.58 4.17,-0.42 1.38,0.16 2.72,0.64 4.04,1.42 1.31,0.78 2.53,1.86 3.64,3.24 1.13,1.39 1.94,2.8 2.43,4.25 0.49,1.45 0.69,2.87 0.57,4.26 -0.11,1.39 -0.53,2.73 -1.25,4.01 -0.72,1.28 -1.74,2.46 -3.04,3.52 -1.31,1.06 -2.67,1.82 -4.08,2.26 -1.41,0.45 -2.81,0.58 -4.2,0.41 -1.39,-0.17 -2.75,-0.65 -4.07,-1.42 -1.32,-0.78 -2.54,-1.86 -3.67,-3.25 -1.12,-1.38 -1.92,-2.79 -2.41,-4.24 -0.49,-1.45 -0.67,-2.87 -0.54,-4.26 0.13,-1.39 0.56,-2.72 1.28,-4.01 0.73,-1.29 1.74,-2.46 3.05,-3.53 1.32,-1.04 2.68,-1.79 4.08,-2.24 z m 9.98,12.96 c -0.09,-1.54 -0.91,-3.26 -2.44,-5.15 -1.53,-1.89 -3.05,-3.04 -4.55,-3.46 -1.5,-0.42 -2.98,-0.04 -4.44,1.14 -1.48,1.2 -2.17,2.58 -2.06,4.15 0.1,1.57 0.91,3.29 2.44,5.16 1.52,1.88 3.03,3.02 4.54,3.43 1.5,0.41 2.99,0.02 4.47,-1.18 1.45,-1.18 2.13,-2.55 2.04,-4.09 z"
   id="path261"
   style="fill:#3a5769;fill-opacity:1" />
			</g>
			<g
   id="g267"
   style="fill:#3a5769;fill-opacity:1">
				<path
   class="st0"
   d="m 403.26,348.05 c -1.46,-0.44 -2.68,-1.5 -3.65,-3.19 l -6.25,-10.92 -1.98,1.13 c -0.25,0.14 -0.52,0.19 -0.8,0.13 -0.28,-0.06 -0.51,-0.26 -0.7,-0.58 l -1.07,-1.87 2.85,-2.32 -2.06,-5.9 c -0.1,-0.28 -0.09,-0.55 0.01,-0.79 0.1,-0.24 0.3,-0.45 0.58,-0.61 l 2.44,-1.4 3.52,6.16 5.15,-2.95 1.92,3.36 -5.15,2.94 6.07,10.6 c 0.35,0.61 0.77,1 1.27,1.17 0.5,0.17 1.01,0.11 1.51,-0.18 0.29,-0.17 0.52,-0.34 0.67,-0.53 0.16,-0.18 0.29,-0.35 0.39,-0.51 0.1,-0.16 0.19,-0.31 0.27,-0.44 0.07,-0.14 0.17,-0.24 0.28,-0.3 0.14,-0.08 0.27,-0.11 0.4,-0.09 0.13,0.02 0.28,0.07 0.47,0.15 l 2.72,1.48 c -0.36,0.97 -0.9,1.85 -1.62,2.65 -0.72,0.8 -1.56,1.47 -2.51,2.02 -1.69,0.96 -3.26,1.23 -4.73,0.79 z"
   id="path265"
   style="fill:#3a5769;fill-opacity:1" />
			</g>
			<g
   id="g271"
   style="fill:#3a5769;fill-opacity:1">
				<path
   class="st0"
   d="m 428.48,313.37 c 1.28,0.01 2.47,0.28 3.58,0.81 1.11,0.52 2.11,1.29 3,2.32 0.89,1.02 1.61,2.3 2.17,3.83 0.14,0.38 0.24,0.71 0.3,0.98 0.06,0.27 0.07,0.49 0.03,0.67 -0.04,0.18 -0.12,0.32 -0.25,0.44 -0.13,0.12 -0.31,0.22 -0.54,0.3 l -13.08,4.79 c 0.95,2.12 2.11,3.5 3.5,4.14 1.39,0.65 2.92,0.66 4.6,0.05 0.83,-0.3 1.5,-0.66 2.03,-1.07 0.53,-0.41 0.97,-0.82 1.33,-1.21 0.36,-0.4 0.68,-0.75 0.94,-1.07 0.27,-0.32 0.56,-0.53 0.87,-0.65 0.21,-0.08 0.4,-0.1 0.58,-0.07 0.18,0.03 0.35,0.1 0.52,0.21 l 2.17,1.31 c -0.32,0.87 -0.75,1.65 -1.29,2.36 -0.54,0.7 -1.14,1.33 -1.8,1.88 -0.67,0.55 -1.37,1.02 -2.12,1.42 -0.75,0.4 -1.5,0.74 -2.24,1.01 -1.47,0.54 -2.93,0.8 -4.37,0.77 -1.44,-0.03 -2.81,-0.34 -4.09,-0.96 -1.28,-0.61 -2.45,-1.53 -3.51,-2.74 -1.05,-1.21 -1.92,-2.75 -2.6,-4.6 -0.53,-1.44 -0.79,-2.89 -0.79,-4.33 0,-1.45 0.27,-2.8 0.8,-4.06 0.53,-1.26 1.32,-2.4 2.38,-3.41 1.06,-1.01 2.38,-1.8 3.96,-2.38 1.34,-0.52 2.64,-0.76 3.92,-0.74 z m -5.5,6.85 c -0.53,1.15 -0.63,2.53 -0.3,4.16 l 9.57,-3.5 c -0.24,-0.66 -0.56,-1.25 -0.95,-1.77 -0.39,-0.52 -0.86,-0.93 -1.39,-1.24 -0.53,-0.3 -1.13,-0.48 -1.78,-0.53 -0.66,-0.05 -1.36,0.06 -2.12,0.34 -1.49,0.55 -2.5,1.4 -3.03,2.54 z"
   id="path269"
   style="fill:#3a5769;fill-opacity:1" />
			</g>
			<g
   id="g275"
   style="fill:#3a5769;fill-opacity:1">
				<path
   class="st0"
   d="m 497.85,321.24 0.15,2.58 -0.61,0.04 -2.71,0.16 -2.59,0.16 c -0.51,0.03 -0.95,-0.05 -1.32,-0.23 -0.37,-0.18 -0.69,-0.46 -0.96,-0.82 l -7.27,-9.75 c -0.27,-0.37 -0.56,-0.62 -0.87,-0.76 -0.31,-0.14 -0.76,-0.2 -1.34,-0.16 l -2.21,0.13 0.48,8.04 c 0.55,0.06 0.99,0.11 1.3,0.15 0.32,0.04 0.54,0.06 0.66,0.08 0.12,0.01 0.21,0.03 0.28,0.03 0.74,0.11 1.13,0.55 1.18,1.31 l 0.15,2.58 -3.31,0.2 -5.9,0.35 -3.32,0.2 -0.15,-2.58 c -0.04,-0.76 0.29,-1.24 1.02,-1.44 0.06,-0.01 0.15,-0.04 0.27,-0.07 0.12,-0.03 0.33,-0.08 0.65,-0.16 0.31,-0.07 0.74,-0.18 1.28,-0.31 l -1.37,-23 c -0.55,-0.06 -0.99,-0.11 -1.31,-0.15 -0.32,-0.04 -0.54,-0.07 -0.66,-0.08 -0.12,-0.02 -0.21,-0.03 -0.28,-0.03 -0.74,-0.11 -1.13,-0.55 -1.18,-1.3 l -0.15,-2.58 3.32,-0.2 9.35,-0.56 c 2.16,-0.13 4.03,-0.02 5.59,0.34 1.57,0.36 2.87,0.9 3.9,1.65 1.03,0.75 1.81,1.66 2.34,2.75 0.53,1.09 0.83,2.31 0.91,3.65 0.06,1.07 -0.03,2.08 -0.29,3.05 -0.26,0.97 -0.66,1.86 -1.21,2.67 -0.55,0.81 -1.24,1.53 -2.07,2.17 -0.83,0.64 -1.79,1.16 -2.88,1.58 0.77,0.38 1.45,0.95 2.04,1.7 l 5.43,7.06 c 0.55,0.07 1.01,0.11 1.37,0.15 0.36,0.04 0.62,0.06 0.78,0.07 0.16,0.01 0.27,0.02 0.34,0.03 0.73,0.11 1.13,0.55 1.17,1.3 z m -11.76,-14.95 c 0.51,-0.52 0.87,-1.12 1.09,-1.81 0.22,-0.69 0.31,-1.43 0.26,-2.24 -0.1,-1.61 -0.7,-2.81 -1.81,-3.61 -1.11,-0.8 -2.75,-1.13 -4.93,-1 l -3.46,0.21 0.63,10.52 3.37,-0.2 c 1.11,-0.07 2.07,-0.26 2.88,-0.59 0.81,-0.34 1.46,-0.76 1.97,-1.28 z"
   id="path273"
   style="fill:#3a5769;fill-opacity:1" />
			</g>
			<g
   id="g279"
   style="fill:#3a5769;fill-opacity:1">
				<path
   class="st0"
   d="m 534.15,325.8 -0.39,2.55 -3.29,-0.5 -5.36,-0.82 2.16,-14.18 c 0.21,-1.36 0.05,-2.46 -0.46,-3.3 -0.52,-0.84 -1.4,-1.36 -2.66,-1.55 -0.93,-0.14 -1.83,-0.07 -2.7,0.23 -0.87,0.29 -1.73,0.75 -2.56,1.36 l -1.8,11.81 c 0.53,0.18 0.94,0.32 1.25,0.42 0.3,0.1 0.51,0.18 0.63,0.21 0.12,0.04 0.2,0.07 0.26,0.09 0.7,0.27 1,0.77 0.88,1.52 l -0.39,2.55 -3.29,-0.5 -5.37,-0.82 -3.29,-0.5 0.39,-2.55 c 0.11,-0.75 0.54,-1.15 1.29,-1.19 0.06,0 0.16,0 0.28,-0.01 0.12,-0.01 0.34,-0.01 0.66,-0.02 0.32,-0.01 0.76,-0.02 1.32,-0.03 l 3.61,-23.66 c -0.53,-0.18 -0.94,-0.32 -1.25,-0.43 -0.3,-0.1 -0.51,-0.18 -0.63,-0.21 -0.11,-0.04 -0.2,-0.07 -0.26,-0.09 -0.7,-0.27 -0.99,-0.78 -0.88,-1.52 l 0.39,-2.55 3.29,0.5 5.36,0.82 -1.89,12.4 c 0.99,-0.69 2.05,-1.21 3.17,-1.56 1.12,-0.35 2.38,-0.42 3.79,-0.2 1.22,0.19 2.26,0.56 3.14,1.11 0.88,0.55 1.57,1.25 2.09,2.1 0.52,0.84 0.86,1.8 1.03,2.89 0.17,1.08 0.16,2.25 -0.03,3.5 l -1.51,9.88 c 0.53,0.18 0.94,0.32 1.25,0.42 0.31,0.1 0.51,0.18 0.63,0.22 0.11,0.04 0.2,0.07 0.27,0.09 0.69,0.26 0.98,0.77 0.87,1.52 z"
   id="path277"
   style="fill:#3a5769;fill-opacity:1" />
			</g>
			<g
   id="g283"
   style="fill:#3a5769;fill-opacity:1">
				<path
   class="st0"
   d="m 564.39,314.95 c 0.97,0.82 1.72,1.79 2.25,2.9 0.52,1.11 0.8,2.34 0.84,3.69 0.03,1.36 -0.22,2.8 -0.76,4.33 -0.14,0.39 -0.27,0.7 -0.39,0.95 -0.12,0.24 -0.26,0.42 -0.4,0.53 -0.14,0.11 -0.3,0.17 -0.47,0.18 -0.17,0.01 -0.38,-0.03 -0.61,-0.11 l -13.12,-4.62 c -0.62,2.24 -0.59,4.04 0.07,5.42 0.66,1.38 1.83,2.37 3.52,2.96 0.83,0.29 1.58,0.44 2.24,0.46 0.67,0.02 1.27,-0.01 1.8,-0.09 0.53,-0.08 1,-0.15 1.41,-0.23 0.41,-0.07 0.77,-0.05 1.08,0.06 0.21,0.07 0.37,0.18 0.5,0.31 0.12,0.14 0.21,0.3 0.27,0.49 l 0.83,2.39 c -0.8,0.46 -1.63,0.8 -2.49,1 -0.86,0.2 -1.72,0.3 -2.58,0.3 -0.86,0 -1.71,-0.08 -2.54,-0.25 -0.83,-0.17 -1.62,-0.38 -2.37,-0.65 -1.48,-0.52 -2.76,-1.25 -3.86,-2.19 -1.1,-0.94 -1.95,-2.05 -2.55,-3.34 -0.6,-1.29 -0.92,-2.74 -0.96,-4.34 -0.04,-1.61 0.27,-3.34 0.92,-5.2 0.51,-1.45 1.22,-2.73 2.14,-3.84 0.92,-1.11 1.98,-1.99 3.19,-2.62 1.21,-0.64 2.54,-1.01 4,-1.12 1.46,-0.11 2.98,0.12 4.57,0.68 1.34,0.48 2.49,1.13 3.47,1.95 z m -8.6,1.79 c -1.14,0.55 -2.1,1.55 -2.88,3.01 l 9.6,3.38 c 0.23,-0.66 0.36,-1.32 0.39,-1.97 0.03,-0.65 -0.07,-1.26 -0.28,-1.83 -0.22,-0.57 -0.56,-1.09 -1.04,-1.54 -0.48,-0.45 -1.09,-0.81 -1.85,-1.08 -1.49,-0.53 -2.8,-0.52 -3.94,0.03 z"
   id="path281"
   style="fill:#3a5769;fill-opacity:1" />
			</g>
			<g
   id="g287"
   style="fill:#3a5769;fill-opacity:1">
				<path
   class="st0"
   d="m 583.47,345.49 -1.21,2.28 -2.94,-1.56 -4.79,-2.53 -2.94,-1.55 1.21,-2.28 c 0.35,-0.67 0.89,-0.9 1.61,-0.7 0.06,0.02 0.15,0.05 0.27,0.08 0.11,0.04 0.33,0.1 0.63,0.2 0.31,0.1 0.72,0.23 1.25,0.4 l 6.46,-12.22 c -0.44,-0.34 -0.79,-0.61 -1.04,-0.81 -0.25,-0.2 -0.43,-0.34 -0.52,-0.41 -0.1,-0.07 -0.17,-0.13 -0.22,-0.17 -0.57,-0.48 -0.68,-1.06 -0.33,-1.73 l 1.21,-2.28 2.94,1.56 4.79,2.54 -8.5,16.07 c 0.44,0.34 0.79,0.61 1.04,0.81 0.25,0.2 0.43,0.34 0.52,0.41 0.09,0.07 0.17,0.13 0.22,0.17 0.58,0.47 0.69,1.05 0.34,1.72 z m 9.3,-23.58 c -0.36,0.27 -0.75,0.47 -1.17,0.6 -0.42,0.13 -0.86,0.17 -1.32,0.13 -0.46,-0.04 -0.9,-0.17 -1.33,-0.39 -0.41,-0.22 -0.76,-0.51 -1.05,-0.86 -0.28,-0.36 -0.49,-0.74 -0.62,-1.16 -0.13,-0.42 -0.18,-0.85 -0.15,-1.3 0.03,-0.45 0.15,-0.88 0.37,-1.29 0.23,-0.43 0.52,-0.79 0.88,-1.08 0.36,-0.29 0.75,-0.5 1.16,-0.63 0.42,-0.13 0.85,-0.18 1.3,-0.14 0.45,0.03 0.89,0.16 1.3,0.38 0.43,0.23 0.79,0.52 1.08,0.88 0.29,0.36 0.5,0.75 0.64,1.17 0.13,0.42 0.19,0.86 0.16,1.32 -0.03,0.47 -0.16,0.91 -0.38,1.34 -0.22,0.41 -0.51,0.76 -0.87,1.03 z"
   id="path285"
   style="fill:#3a5769;fill-opacity:1" />
			</g>
			<g
   id="g291"
   style="fill:#3a5769;fill-opacity:1">
				<path
   class="st0"
   d="m 613.52,366.61 -1.57,2.05 -2.65,-2.02 -4.31,-3.29 8.7,-11.4 c 0.84,-1.09 1.23,-2.13 1.18,-3.12 -0.05,-0.99 -0.58,-1.87 -1.59,-2.64 -0.74,-0.57 -1.57,-0.93 -2.48,-1.09 -0.91,-0.16 -1.88,-0.17 -2.9,-0.03 l -7.25,9.49 c 0.38,0.41 0.67,0.73 0.89,0.97 0.22,0.24 0.37,0.4 0.45,0.49 0.08,0.09 0.15,0.16 0.19,0.21 0.49,0.57 0.5,1.15 0.04,1.76 l -1.57,2.05 -2.64,-2.02 -4.31,-3.29 -2.65,-2.02 1.57,-2.05 c 0.46,-0.6 1.03,-0.75 1.71,-0.42 0.06,0.03 0.14,0.07 0.25,0.13 0.11,0.06 0.31,0.16 0.59,0.3 0.29,0.15 0.68,0.35 1.17,0.61 l 8.39,-10.99 c -0.38,-0.41 -0.67,-0.73 -0.89,-0.97 -0.22,-0.24 -0.37,-0.4 -0.45,-0.49 -0.08,-0.09 -0.15,-0.16 -0.19,-0.21 -0.49,-0.57 -0.5,-1.16 -0.04,-1.76 l 1.57,-2.05 2.65,2.02 2.64,2.01 c 0.56,0.43 0.72,0.97 0.5,1.63 l -0.78,1.64 c 0.64,-0.1 1.28,-0.14 1.92,-0.14 0.63,0 1.26,0.07 1.87,0.19 0.62,0.12 1.23,0.32 1.83,0.59 0.6,0.28 1.21,0.64 1.81,1.1 0.98,0.75 1.72,1.57 2.22,2.49 0.5,0.91 0.78,1.86 0.83,2.84 0.05,0.99 -0.11,2 -0.49,3.03 -0.37,1.03 -0.94,2.05 -1.71,3.05 l -6.06,7.94 c 0.38,0.41 0.67,0.73 0.89,0.97 0.22,0.24 0.37,0.4 0.45,0.49 0.08,0.09 0.14,0.16 0.19,0.21 0.48,0.55 0.49,1.13 0.03,1.74 z"
   id="path289"
   style="fill:#3a5769;fill-opacity:1" />
			</g>
		</g>
		<g
   id="g331"
   style="fill:#3a5769;fill-opacity:1">
			<g
   id="g297"
   style="fill:#3a5769;fill-opacity:1">
				<path
   class="st0"
   d="m 442.97,694.55 -0.84,2.44 -0.58,-0.2 -2.57,-0.88 -2.46,-0.84 c -0.48,-0.17 -0.86,-0.4 -1.14,-0.72 -0.27,-0.31 -0.47,-0.68 -0.58,-1.13 l -3.02,-11.78 c -0.11,-0.44 -0.28,-0.79 -0.51,-1.04 -0.23,-0.25 -0.63,-0.47 -1.18,-0.66 l -2.1,-0.72 -2.61,7.62 c 0.49,0.27 0.87,0.48 1.15,0.64 0.28,0.15 0.47,0.26 0.58,0.32 0.11,0.06 0.19,0.11 0.24,0.14 0.64,0.39 0.84,0.94 0.59,1.65 l -0.84,2.44 -3.14,-1.08 -5.59,-1.91 -3.15,-1.08 0.84,-2.44 c 0.24,-0.72 0.74,-1.03 1.48,-0.94 0.07,0.01 0.16,0.02 0.28,0.04 0.12,0.02 0.34,0.05 0.66,0.1 0.32,0.05 0.75,0.12 1.3,0.2 l 7.47,-21.8 c -0.49,-0.27 -0.87,-0.48 -1.15,-0.64 -0.28,-0.16 -0.47,-0.26 -0.58,-0.32 -0.11,-0.06 -0.19,-0.1 -0.24,-0.14 -0.64,-0.39 -0.84,-0.94 -0.59,-1.65 l 0.84,-2.44 3.15,1.08 8.87,3.04 c 2.05,0.7 3.73,1.52 5.05,2.44 1.32,0.92 2.31,1.93 2.99,3.01 0.67,1.08 1.05,2.23 1.12,3.44 0.07,1.21 -0.11,2.45 -0.55,3.73 -0.35,1.01 -0.82,1.91 -1.43,2.71 -0.61,0.8 -1.32,1.47 -2.13,2.01 -0.81,0.54 -1.73,0.95 -2.74,1.22 -1.01,0.27 -2.1,0.39 -3.27,0.37 0.57,0.64 0.98,1.43 1.24,2.35 l 2.34,8.59 c 0.49,0.27 0.89,0.49 1.21,0.66 0.32,0.17 0.55,0.29 0.69,0.36 0.14,0.07 0.24,0.12 0.3,0.16 0.65,0.38 0.84,0.94 0.6,1.65 z m -5.2,-18.31 c 0.66,-0.29 1.23,-0.71 1.7,-1.26 0.47,-0.55 0.83,-1.21 1.09,-1.97 0.52,-1.52 0.42,-2.87 -0.3,-4.03 -0.72,-1.16 -2.12,-2.1 -4.18,-2.8 l -3.28,-1.13 -3.42,9.97 3.2,1.1 c 1.05,0.36 2.01,0.54 2.89,0.55 0.87,0.01 1.64,-0.13 2.3,-0.43 z"
   id="path295"
   style="fill:#3a5769;fill-opacity:1" />
			</g>
			<g
   id="g301"
   style="fill:#3a5769;fill-opacity:1">
				<path
   class="st0"
   d="m 479.66,700.66 -0.36,2.56 -3.3,-0.46 -3.28,-0.46 c -0.7,-0.1 -1.11,-0.49 -1.23,-1.17 l -0.12,-1.84 c -0.53,0.4 -1.07,0.76 -1.61,1.07 -0.55,0.32 -1.12,0.57 -1.71,0.76 -0.6,0.19 -1.23,0.32 -1.89,0.38 -0.67,0.06 -1.37,0.04 -2.11,-0.06 -1.22,-0.17 -2.27,-0.53 -3.14,-1.07 -0.88,-0.55 -1.58,-1.24 -2.12,-2.08 -0.53,-0.84 -0.89,-1.81 -1.07,-2.89 -0.18,-1.08 -0.18,-2.25 -0.01,-3.49 l 1.38,-9.87 c -1.81,-0.59 -1.83,-0.6 -2.15,-0.7 -0.7,-0.26 -1,-0.76 -0.9,-1.51 l 0.36,-2.56 3.3,0.46 5.37,0.75 -1.98,14.18 c -0.19,1.36 -0.02,2.46 0.5,3.3 0.53,0.83 1.42,1.34 2.68,1.52 0.93,0.13 1.83,0.04 2.7,-0.26 0.87,-0.3 1.72,-0.76 2.54,-1.38 l 1.65,-11.83 c -1.8,-0.58 -1.82,-0.59 -2.15,-0.7 -0.7,-0.26 -1,-0.76 -0.9,-1.51 l 0.36,-2.56 3.29,0.46 h 0.01 l 5.37,0.75 -2.52,18.01 c 1.81,0.59 1.83,0.6 2.15,0.7 0.69,0.25 0.99,0.75 0.89,1.5 z"
   id="path299"
   style="fill:#3a5769;fill-opacity:1" />
			</g>
			<g
   id="g305"
   style="fill:#3a5769;fill-opacity:1">
				<path
   class="st0"
   d="m 517.86,699.82 0.14,2.58 -3.32,0.17 -5.42,0.28 -0.75,-14.32 c -0.07,-1.37 -0.45,-2.42 -1.12,-3.14 -0.68,-0.72 -1.65,-1.05 -2.92,-0.98 -0.94,0.05 -1.8,0.31 -2.6,0.77 -0.8,0.47 -1.54,1.09 -2.23,1.85 l 0.63,11.92 c 0.55,0.07 0.99,0.12 1.31,0.16 0.32,0.04 0.54,0.07 0.66,0.08 0.12,0.02 0.21,0.03 0.28,0.04 0.74,0.12 1.13,0.56 1.17,1.32 l 0.14,2.58 -3.32,0.17 -5.42,0.28 -3.32,0.17 -0.13,-2.58 c -0.04,-0.76 0.3,-1.23 1.03,-1.43 0.06,-0.01 0.15,-0.04 0.27,-0.06 0.12,-0.03 0.33,-0.08 0.65,-0.15 0.31,-0.07 0.74,-0.17 1.29,-0.3 l -1.25,-23.89 c -0.55,-0.07 -0.99,-0.12 -1.31,-0.16 -0.32,-0.04 -0.54,-0.07 -0.66,-0.09 -0.12,-0.01 -0.21,-0.03 -0.28,-0.03 -0.74,-0.12 -1.13,-0.56 -1.17,-1.31 l -0.14,-2.58 3.32,-0.17 5.42,-0.28 0.66,12.52 c 0.83,-0.88 1.76,-1.6 2.79,-2.17 1.03,-0.57 2.25,-0.89 3.67,-0.96 1.23,-0.06 2.33,0.09 3.3,0.45 0.97,0.37 1.8,0.91 2.47,1.63 0.67,0.72 1.2,1.59 1.59,2.62 0.38,1.03 0.61,2.17 0.68,3.43 l 0.52,9.97 c 0.55,0.07 0.99,0.12 1.31,0.16 0.32,0.04 0.54,0.07 0.66,0.08 0.12,0.02 0.21,0.03 0.28,0.04 0.69,0.14 1.08,0.58 1.12,1.33 z"
   id="path303"
   style="fill:#3a5769;fill-opacity:1" />
			</g>
			<g
   id="g309"
   style="fill:#3a5769;fill-opacity:1">
				<path
   class="st0"
   d="m 542.21,674.87 0.2,4.12 c 0.02,0.27 -0.04,0.47 -0.15,0.61 -0.12,0.14 -0.3,0.24 -0.54,0.29 -0.21,0.05 -0.52,0.06 -0.91,0.05 -0.39,-0.02 -0.9,0.04 -1.51,0.18 -1.1,0.25 -1.98,0.76 -2.62,1.54 -0.65,0.78 -1.12,1.82 -1.39,3.11 l 2.12,9.45 c 1.9,-0.09 1.92,-0.08 2.26,-0.1 0.75,-0.01 1.21,0.36 1.37,1.1 l 0.56,2.52 -3.24,0.73 v 0 l -5.29,1.19 -3.25,0.73 -0.57,-2.52 c -0.16,-0.74 0.09,-1.27 0.77,-1.58 0.32,-0.13 0.33,-0.14 2.09,-0.88 l -3.02,-13.49 c -1.9,0.09 -1.92,0.08 -2.26,0.1 -0.75,0.01 -1.21,-0.36 -1.37,-1.1 l -0.56,-2.52 3.25,-0.73 v 0 l 3.11,-0.7 c 0.54,-0.12 0.94,-0.11 1.2,0.04 0.26,0.15 0.48,0.46 0.66,0.93 l 0.92,2.59 c 0.48,-1.53 1.16,-2.81 2.04,-3.83 0.88,-1.02 1.98,-1.68 3.29,-1.98 1.06,-0.23 2.02,-0.19 2.84,0.15 z"
   id="path307"
   style="fill:#3a5769;fill-opacity:1" />
			</g>
			<g
   id="g313"
   style="fill:#3a5769;fill-opacity:1">
				<path
   class="st0"
   d="m 589.79,668.31 c 0.64,1.28 1.02,2.59 1.14,3.93 0.12,1.34 -0.03,2.64 -0.46,3.89 -0.43,1.25 -1.13,2.42 -2.11,3.51 -0.98,1.09 -2.26,2.02 -3.83,2.81 -0.16,0.08 -0.36,0.18 -0.59,0.28 -2.52,1.26 -5.49,2.12 -8.9,2.58 l -0.35,-0.7 -3.3,-6.61 0.17,-0.08 0.48,-0.24 1.62,-0.81 c 0.51,-0.25 0.93,-0.16 1.28,0.27 0.24,0.33 0.9,1.35 1.97,3.07 1.31,-0.22 3.18,-0.94 5.63,-2.16 1.51,-0.75 2.49,-1.69 2.96,-2.82 0.47,-1.12 0.37,-2.36 -0.3,-3.69 -0.37,-0.75 -0.86,-1.26 -1.47,-1.55 -0.61,-0.29 -1.3,-0.43 -2.08,-0.45 -0.77,-0.01 -1.61,0.07 -2.51,0.24 -0.91,0.17 -1.83,0.33 -2.76,0.47 -0.94,0.14 -1.9,0.23 -2.87,0.25 -0.97,0.03 -1.91,-0.1 -2.82,-0.38 -0.91,-0.28 -1.77,-0.77 -2.59,-1.47 -0.81,-0.7 -1.55,-1.7 -2.19,-2.99 -0.52,-1.03 -0.81,-2.15 -0.89,-3.33 -0.08,-1.19 0.09,-2.36 0.5,-3.51 0.41,-1.16 1.08,-2.25 2,-3.28 0.93,-1.03 2.13,-1.92 3.61,-2.66 2.79,-1.39 5.77,-2.21 8.96,-2.46 l 3.63,7.27 -0.17,0.08 -0.48,0.24 -1.62,0.81 c -0.51,0.25 -0.93,0.16 -1.28,-0.27 -0.24,-0.33 -0.89,-1.33 -1.94,-3.01 -1.21,0.05 -2.84,0.59 -4.9,1.62 -0.73,0.37 -1.33,0.77 -1.78,1.22 -0.46,0.45 -0.79,0.92 -1.01,1.42 -0.22,0.5 -0.31,1.02 -0.27,1.55 0.04,0.53 0.19,1.06 0.45,1.58 0.33,0.67 0.8,1.13 1.39,1.39 0.59,0.26 1.28,0.39 2.05,0.4 0.77,0.01 1.61,-0.06 2.52,-0.2 0.91,-0.14 1.84,-0.28 2.8,-0.41 0.96,-0.13 1.93,-0.2 2.9,-0.22 0.97,-0.02 1.91,0.1 2.81,0.36 0.9,0.26 1.74,0.71 2.53,1.35 0.79,0.62 1.48,1.53 2.07,2.71 z"
   id="path311"
   style="fill:#3a5769;fill-opacity:1" />
			</g>
			<g
   id="g317"
   style="fill:#3a5769;fill-opacity:1">
				<path
   class="st0"
   d="m 606.95,667.49 c -1.5,-0.31 -2.8,-1.26 -3.91,-2.85 l -7.19,-10.32 -1.87,1.3 c -0.24,0.17 -0.5,0.23 -0.78,0.2 -0.28,-0.04 -0.53,-0.21 -0.75,-0.52 l -1.23,-1.76 2.63,-2.56 -2.57,-5.7 c -0.12,-0.27 -0.14,-0.54 -0.06,-0.79 0.08,-0.25 0.25,-0.47 0.52,-0.66 l 2.31,-1.6 4.05,5.82 4.86,-3.39 2.21,3.17 -4.86,3.39 6.97,10.02 c 0.4,0.58 0.86,0.92 1.37,1.05 0.51,0.12 1.01,0.02 1.49,-0.32 0.28,-0.19 0.48,-0.39 0.62,-0.58 0.14,-0.2 0.25,-0.38 0.34,-0.55 0.09,-0.17 0.16,-0.32 0.23,-0.46 0.06,-0.14 0.15,-0.25 0.25,-0.32 0.13,-0.09 0.26,-0.13 0.39,-0.13 0.13,0.01 0.29,0.04 0.48,0.11 l 2.84,1.23 c -0.27,0.99 -0.73,1.92 -1.38,2.78 -0.65,0.86 -1.42,1.61 -2.32,2.23 -1.6,1.11 -3.15,1.51 -4.64,1.21 z"
   id="path315"
   style="fill:#3a5769;fill-opacity:1" />
			</g>
			<g
   id="g321"
   style="fill:#3a5769;fill-opacity:1">
				<path
   class="st0"
   d="m 638.79,639.2 1.77,1.88 -1.99,1.87 -0.44,0.41 -1.34,1.26 c -0.37,0.35 -0.72,0.57 -1.04,0.66 -0.32,0.09 -0.69,0.01 -1.12,-0.23 l -1.45,-0.84 c -0.07,0.77 -0.16,1.48 -0.3,2.14 -0.13,0.66 -0.32,1.28 -0.57,1.88 -0.25,0.59 -0.56,1.16 -0.95,1.71 -0.39,0.55 -0.88,1.1 -1.46,1.65 -0.69,0.65 -1.42,1.16 -2.18,1.53 -0.76,0.36 -1.53,0.56 -2.3,0.58 -0.77,0.02 -1.54,-0.13 -2.3,-0.47 -0.76,-0.33 -1.48,-0.87 -2.18,-1.61 -0.59,-0.62 -1,-1.38 -1.24,-2.3 -0.24,-0.91 -0.22,-1.96 0.08,-3.16 0.3,-1.2 0.93,-2.55 1.88,-4.06 0.95,-1.51 2.36,-3.14 4.23,-4.89 l -0.91,-0.97 c -1.04,-1.11 -2.04,-1.71 -3.01,-1.8 -0.96,-0.09 -1.89,0.27 -2.77,1.11 -0.64,0.6 -1.1,1.18 -1.39,1.73 -0.29,0.55 -0.5,1.07 -0.64,1.55 -0.14,0.48 -0.27,0.92 -0.4,1.32 -0.13,0.4 -0.35,0.75 -0.67,1.05 -0.27,0.25 -0.56,0.4 -0.88,0.44 -0.32,0.04 -0.64,0.02 -0.95,-0.08 l -1.91,-0.58 c 0.26,-3.5 1.72,-6.51 4.39,-9.02 0.96,-0.9 1.96,-1.55 3.01,-1.94 1.05,-0.39 2.09,-0.56 3.14,-0.49 1.05,0.07 2.08,0.36 3.08,0.89 1,0.52 1.94,1.25 2.81,2.17 l 6.84,7.27 c 0.43,-0.28 0.75,-0.49 0.99,-0.64 0.23,-0.15 0.37,-0.24 0.4,-0.26 0.67,-0.39 1.25,-0.31 1.77,0.24 z m -10.62,0.43 c -1.15,1.08 -2.05,2.06 -2.68,2.93 -0.64,0.87 -1.08,1.64 -1.34,2.31 -0.26,0.67 -0.34,1.24 -0.26,1.73 0.09,0.49 0.29,0.91 0.63,1.26 0.66,0.7 1.33,1 2.03,0.92 0.69,-0.09 1.37,-0.44 2.03,-1.06 0.41,-0.38 0.74,-0.77 1.02,-1.16 0.27,-0.4 0.49,-0.81 0.66,-1.24 0.16,-0.43 0.29,-0.89 0.37,-1.37 0.08,-0.48 0.13,-1 0.14,-1.57 z"
   id="path319"
   style="fill:#3a5769;fill-opacity:1" />
			</g>
			<g
   id="g325"
   style="fill:#3a5769;fill-opacity:1">
				<path
   class="st0"
   d="m 638.07,608.7 c 0.67,-0.55 1.37,-1 2.1,-1.32 l 3.93,-5.15 1.61,1.23 c 0.27,0.2 0.42,0.43 0.47,0.69 0.04,0.26 -0.03,0.57 -0.23,0.96 l -0.93,1.83 c 0.39,0.11 0.78,0.27 1.17,0.46 0.39,0.19 0.77,0.43 1.14,0.72 0.88,0.68 1.55,1.46 1.99,2.36 0.45,0.9 0.68,1.86 0.71,2.86 0.03,1.01 -0.15,2.04 -0.53,3.1 -0.38,1.06 -0.95,2.1 -1.72,3.1 -0.52,0.68 -1.08,1.28 -1.7,1.83 -0.09,0.82 0.07,1.38 0.49,1.7 0.36,0.28 0.75,0.31 1.17,0.11 0.42,-0.2 0.87,-0.55 1.36,-1.04 0.48,-0.49 0.99,-1.07 1.54,-1.74 0.54,-0.67 1.12,-1.35 1.73,-2.03 0.61,-0.68 1.25,-1.3 1.92,-1.88 0.67,-0.57 1.37,-1.01 2.09,-1.32 0.73,-0.3 1.49,-0.41 2.28,-0.33 0.79,0.08 1.62,0.45 2.47,1.09 0.79,0.61 1.41,1.39 1.86,2.34 0.45,0.96 0.68,2.03 0.7,3.21 0.02,1.18 -0.2,2.45 -0.67,3.79 -0.46,1.34 -1.22,2.7 -2.26,4.07 -1.04,1.36 -2.07,2.44 -3.1,3.24 -1.03,0.8 -2.01,1.36 -2.95,1.69 -0.94,0.33 -1.82,0.43 -2.64,0.32 -0.82,-0.11 -1.54,-0.4 -2.15,-0.87 -0.84,-0.64 -1.35,-1.43 -1.53,-2.38 -0.18,-0.95 -0.09,-2 0.26,-3.17 -0.58,0.25 -1.18,0.36 -1.79,0.32 -0.61,-0.04 -1.24,-0.31 -1.9,-0.81 -0.27,-0.2 -0.51,-0.46 -0.72,-0.77 -0.21,-0.31 -0.39,-0.67 -0.52,-1.07 -0.13,-0.4 -0.21,-0.85 -0.24,-1.33 -0.03,-0.48 0.01,-1 0.11,-1.54 -1.18,0.53 -2.38,0.75 -3.59,0.65 -1.21,-0.1 -2.36,-0.57 -3.46,-1.41 -0.88,-0.68 -1.55,-1.46 -1.99,-2.37 -0.44,-0.9 -0.68,-1.86 -0.7,-2.88 -0.02,-1.02 0.16,-2.07 0.56,-3.14 0.39,-1.07 0.98,-2.12 1.76,-3.14 0.6,-0.77 1.23,-1.43 1.9,-1.98 z m 7.8,7.16 c 0.16,-0.51 0.21,-0.99 0.15,-1.45 -0.06,-0.46 -0.21,-0.89 -0.47,-1.3 -0.26,-0.41 -0.6,-0.78 -1.03,-1.11 -0.89,-0.68 -1.79,-0.95 -2.71,-0.81 -0.92,0.13 -1.79,0.73 -2.6,1.79 -0.81,1.06 -1.16,2.05 -1.04,2.98 0.11,0.92 0.61,1.73 1.5,2.4 0.42,0.32 0.86,0.55 1.32,0.69 0.46,0.14 0.93,0.18 1.39,0.12 0.46,-0.06 0.92,-0.24 1.37,-0.53 0.45,-0.29 0.88,-0.7 1.28,-1.22 0.4,-0.53 0.68,-1.05 0.84,-1.56 z m 11.86,4.28 c -0.38,0.04 -0.77,0.2 -1.17,0.46 -0.4,0.27 -0.81,0.62 -1.24,1.06 -0.43,0.44 -0.86,0.92 -1.3,1.44 -0.44,0.52 -0.9,1.06 -1.37,1.61 -0.47,0.55 -0.94,1.07 -1.42,1.55 -0.11,0.69 -0.09,1.33 0.05,1.91 0.14,0.58 0.45,1.05 0.93,1.41 0.32,0.24 0.67,0.39 1.06,0.44 0.39,0.05 0.82,-0.02 1.28,-0.21 0.46,-0.19 0.95,-0.52 1.48,-0.98 0.53,-0.46 1.09,-1.09 1.7,-1.88 0.61,-0.8 1.08,-1.54 1.4,-2.22 0.32,-0.68 0.52,-1.29 0.59,-1.83 0.07,-0.54 0.03,-1.01 -0.14,-1.42 -0.16,-0.4 -0.42,-0.73 -0.77,-1 -0.33,-0.27 -0.7,-0.38 -1.08,-0.34 z"
   id="path323"
   style="fill:#3a5769;fill-opacity:1" />
			</g>
			<g
   id="g329"
   style="fill:#3a5769;fill-opacity:1">
				<path
   class="st0"
   d="m 654.97,582.29 c 0.96,-0.84 2.03,-1.43 3.21,-1.78 1.18,-0.35 2.44,-0.44 3.78,-0.27 1.34,0.17 2.73,0.64 4.17,1.41 0.36,0.19 0.65,0.37 0.87,0.53 0.22,0.16 0.38,0.32 0.47,0.47 0.09,0.16 0.13,0.32 0.11,0.5 -0.02,0.17 -0.09,0.37 -0.2,0.59 l -6.58,12.27 c 2.12,0.95 3.91,1.21 5.37,0.76 1.47,-0.44 2.62,-1.45 3.47,-3.03 0.42,-0.78 0.68,-1.49 0.8,-2.15 0.12,-0.66 0.18,-1.26 0.19,-1.79 0.01,-0.54 0,-1.01 -0.01,-1.42 -0.01,-0.41 0.06,-0.77 0.22,-1.07 0.11,-0.19 0.23,-0.34 0.39,-0.44 0.15,-0.1 0.33,-0.17 0.53,-0.19 l 2.49,-0.46 c 0.33,0.86 0.54,1.73 0.6,2.62 0.07,0.88 0.03,1.75 -0.1,2.6 -0.13,0.85 -0.35,1.68 -0.64,2.47 -0.29,0.79 -0.63,1.54 -1,2.24 -0.74,1.38 -1.66,2.54 -2.75,3.48 -1.09,0.94 -2.33,1.61 -3.69,2.01 -1.37,0.4 -2.85,0.49 -4.44,0.29 -1.59,-0.2 -3.26,-0.77 -5,-1.71 -1.35,-0.73 -2.51,-1.63 -3.47,-2.71 -0.96,-1.08 -1.66,-2.27 -2.11,-3.56 -0.44,-1.29 -0.61,-2.67 -0.49,-4.13 0.12,-1.46 0.57,-2.93 1.37,-4.41 0.66,-1.24 1.48,-2.29 2.44,-3.12 z m 0.46,8.77 c 0.37,1.21 1.21,2.31 2.54,3.3 l 4.81,-8.98 c -0.62,-0.33 -1.25,-0.56 -1.89,-0.69 -0.64,-0.13 -1.26,-0.13 -1.86,0 -0.6,0.13 -1.16,0.39 -1.68,0.79 -0.52,0.4 -0.97,0.96 -1.35,1.67 -0.75,1.4 -0.94,2.7 -0.57,3.91 z"
   id="path327"
   style="fill:#3a5769;fill-opacity:1" />
			</g>
		</g>
	</g>
</g>
</svg>
